<svg width="32" height="32" viewBox="0 0 32 32" fill="none" xmlns="http://www.w3.org/2000/svg">
<path d="M11.75 2C10.888 2 10.0614 2.34241 9.4519 2.9519C8.84241 3.5614 8.5 4.38805 8.5 5.25V23.25C8.5 23.6768 8.58406 24.0994 8.74739 24.4937C8.91072 24.888 9.15011 25.2463 9.4519 25.5481C9.75369 25.8499 10.112 26.0893 10.5063 26.2526C10.9006 26.4159 11.3232 26.5 11.75 26.5H23.75C24.1768 26.5 24.5994 26.4159 24.9937 26.2526C25.388 26.0893 25.7463 25.8499 26.0481 25.5481C26.3499 25.2463 26.5893 24.888 26.7526 24.4937C26.9159 24.0994 27 23.6768 27 23.25V5.25C27 4.38805 26.6576 3.5614 26.0481 2.9519C25.4386 2.34241 24.612 2 23.75 2H11.75ZM10.5 5.25C10.5 4.56 11.06 4 11.75 4H23.75C24.44 4 25 4.56 25 5.25V23.25C25 23.94 24.44 24.5 23.75 24.5H11.75C11.06 24.5 10.5 23.94 10.5 23.25V5.25ZM7 5.749C5.826 6.239 5 7.398 5 8.749V23.5C5 24.3536 5.16813 25.1988 5.49478 25.9874C5.82144 26.7761 6.30022 27.4926 6.90381 28.0962C8.12279 29.3152 9.77609 30 11.5 30H20.25C20.8918 30.0001 21.5192 29.8102 22.0532 29.4543C22.5873 29.0984 23.004 28.5924 23.251 28H11.5C10.3065 28 9.16193 27.5259 8.31802 26.682C7.47411 25.8381 7 24.6935 7 23.5V5.749Z" fill="#02222D"/>
</svg>
