<svg width="115" height="115" viewBox="0 0 115 115" fill="none" xmlns="http://www.w3.org/2000/svg">
<path d="M21.0692 0H88.8451C90.1748 0.161719 91.223 0.625163 91.9897 1.39033C97.0958 6.49346 102.2 11.5988 107.304 16.7064C108.833 18.236 109.606 19.3321 109.606 21.394C109.607 50.3851 109.608 79.3762 109.608 108.367C109.608 109.722 109.502 110.725 109.289 111.375C108.609 113.45 107.045 114.659 104.597 115H21.1007C19.5404 114.82 18.308 114.167 17.4036 113.041C16.5793 112.015 15.6022 109.614 16.6602 108.567C17.7023 107.534 19.3555 108.125 19.5644 109.567C19.7755 111.022 20.3415 111.629 21.8823 111.631C49.102 111.631 76.3216 111.631 103.541 111.631C105.013 111.631 106.239 111.26 106.239 109.609C106.239 80.8399 106.239 52.0764 106.239 23.3189C106.239 23.2844 106.225 23.2513 106.201 23.2268C106.176 23.2024 106.143 23.1887 106.109 23.1887C101.281 23.1902 96.4833 23.1917 91.7156 23.1932C89.3977 23.1932 87.612 23.164 86.7293 21.0347C86.5182 20.5271 86.4133 19.7409 86.4148 18.6763C86.4193 13.6795 86.4201 8.63997 86.4171 3.55781C86.4171 3.43203 86.3542 3.36914 86.2284 3.36914C64.8965 3.36914 43.5264 3.36914 22.1182 3.36914C20.5594 3.36914 19.5958 3.84307 19.5958 5.49619C19.5973 24.4592 19.5965 43.4222 19.5936 62.3853C19.5936 63.7464 18.7378 65.0401 17.2868 64.4584C15.8583 63.8879 16.2716 62.3134 16.2087 61.1117C16.207 61.0766 16.1918 61.0434 16.1663 61.0192C16.1407 60.9949 16.1069 60.9814 16.0717 60.9814C14.5084 60.9814 12.3611 60.7771 11.0809 61.2689C8.14297 62.3965 7.97227 66.9224 11.0247 68.1263C11.5039 68.3149 12.2878 68.404 13.3764 68.3936C16.3906 68.3666 19.7351 68.4362 22.4191 68.4272C37.5713 68.3763 52.7234 68.3733 67.8756 68.4183C71.4963 68.4272 73.5627 70.7025 73.5605 74.2536C73.556 82.3036 73.5567 90.3529 73.5627 98.4014C73.5649 100.928 72.5025 103.04 70.0318 103.868C69.337 104.102 68.1107 104.219 66.3527 104.219C48.5203 104.22 30.6885 104.219 12.8575 104.216C9.53105 104.214 6.62236 102.307 5.68799 99.0505C5.49183 98.3662 5.393 97.2259 5.3915 95.6297C5.38701 85.41 5.38477 75.1895 5.38477 64.9683C5.38477 61.525 7.54551 58.5916 10.9371 57.8122C12.3813 57.482 14.3849 57.6011 16.0335 57.6235C16.0588 57.6238 16.0838 57.6192 16.1073 57.6098C16.1307 57.6005 16.152 57.5866 16.17 57.5691C16.1879 57.5515 16.2022 57.5306 16.2119 57.5076C16.2217 57.4846 16.2267 57.4598 16.2267 57.4349C16.2282 40.2627 16.2274 23.0749 16.2244 5.87129C16.2244 2.6998 17.7652 0.521094 21.0692 0ZM105.482 19.8218C105.496 19.8214 105.509 19.8171 105.52 19.8092C105.531 19.8014 105.54 19.7905 105.545 19.7778C105.55 19.7651 105.551 19.7513 105.548 19.7379C105.545 19.7246 105.539 19.7123 105.529 19.7027L89.9053 4.07891C89.8957 4.06922 89.8834 4.06257 89.8701 4.05978C89.8567 4.05699 89.8429 4.05818 89.8302 4.0632C89.8175 4.06823 89.8066 4.07686 89.7988 4.08804C89.791 4.09922 89.7866 4.11244 89.7862 4.12607V19.7521C89.7862 19.7613 89.788 19.7703 89.7915 19.7788C89.795 19.7872 89.8002 19.7949 89.8066 19.8014C89.8131 19.8078 89.8208 19.813 89.8292 19.8165C89.8377 19.82 89.8467 19.8218 89.8559 19.8218H105.482ZM70.1936 73.7617C70.1262 72.4253 69.2412 71.7447 67.943 71.747C49.549 71.7575 31.1549 71.7619 12.7609 71.7604C11.2291 71.7604 10.1105 71.5066 8.88418 70.7812C8.87169 70.7737 8.85745 70.7696 8.8429 70.7694C8.82834 70.7691 8.81397 70.7727 8.80124 70.7797C8.7885 70.7868 8.77784 70.7971 8.77032 70.8095C8.7628 70.822 8.75869 70.8362 8.7584 70.8508C8.7599 79.1583 8.75915 87.4749 8.75615 95.8004C8.75615 97.9297 8.99199 99.6637 10.9933 100.492C11.5683 100.731 12.6404 100.85 14.2097 100.85C32.0242 100.85 49.838 100.849 67.651 100.847C69.4995 100.847 70.1711 100.245 70.1891 98.316C70.2475 92.0629 70.2639 85.809 70.2385 79.5544C70.2317 77.643 70.3126 76.0842 70.1936 73.7617Z" fill="#408AC9"/>
<path d="M63.1146 32.7311C63.0562 32.9265 63.1191 33.0949 63.2157 33.2566C65.8017 37.5736 68.8294 41.5567 72.2989 45.2059C72.3513 45.2613 72.4149 45.2852 72.4898 45.2777C76.079 44.9184 81.1417 44.9318 84.0572 46.8859C86.8266 48.7412 85.2004 52.8695 82.6893 54.0218C79.0214 55.7041 73.8015 51.4298 71.3622 48.9748C71.208 48.8191 71.0246 48.7509 70.812 48.7704C65.634 49.2421 60.5054 50.1907 55.4262 51.6162C55.337 51.6422 55.2619 51.7019 55.2173 51.7824C53.2834 55.3807 50.779 59.3607 47.5604 61.5821C44.8763 63.4329 41.889 62.2313 40.8828 59.3338C38.9444 53.7478 49.0743 50.0192 52.7983 48.9456C52.8717 48.9246 52.9301 48.882 52.9735 48.8176C53.0978 48.6304 53.2086 48.4417 53.3059 48.2516C55.7272 43.4928 57.7562 38.5716 59.3928 33.488C59.4034 33.4547 59.4069 33.4194 59.4031 33.3842C59.3992 33.349 59.3881 33.3148 59.3704 33.2836C57.3466 29.755 52.8118 20.3349 59.4692 18.5896C59.7941 18.5058 60.2179 18.4639 60.7405 18.4639C67.1733 18.4639 64.0961 29.4383 63.1146 32.7311ZM60.9988 21.8779C57.706 21.1143 60.2126 27.2708 60.6596 28.2636C60.6665 28.278 60.6778 28.2899 60.6919 28.2976C60.7059 28.3053 60.7221 28.3084 60.738 28.3064C60.7539 28.3044 60.7687 28.2974 60.7805 28.2865C60.7922 28.2756 60.8002 28.2613 60.8034 28.2456C61.1582 26.3993 61.6591 23.8545 61.1403 22.0127C61.1193 21.9393 61.0721 21.8944 60.9988 21.8779ZM61.6277 37.376C60.4238 40.814 59.0304 44.1742 57.4477 47.4564C57.4399 47.4726 57.4369 47.4906 57.439 47.5084C57.4411 47.5262 57.4482 47.5431 57.4595 47.557C57.4708 47.5709 57.4858 47.5813 57.5028 47.5869C57.5198 47.5926 57.5381 47.5933 57.5555 47.589C60.9681 46.731 64.4211 46.0923 67.9145 45.673C67.9289 45.6714 67.9428 45.6668 67.9554 45.6598C67.968 45.6527 67.9791 45.6432 67.9879 45.6319C67.9967 45.6206 68.0031 45.6077 68.0067 45.5939C68.0103 45.5801 68.011 45.5658 68.0088 45.5518C67.9864 45.3721 67.7865 45.2575 67.7034 45.1632C65.5965 42.7374 63.6604 40.1821 61.895 37.4973C61.8426 37.4179 61.7744 37.3662 61.6906 37.3423C61.6778 37.3387 61.6641 37.3403 61.6524 37.3465C61.6407 37.3528 61.6318 37.3634 61.6277 37.376ZM76.0521 48.6244C77.1594 49.5565 81.5011 52.764 82.1345 49.7452C82.151 49.6688 82.1263 49.6097 82.0604 49.5678C80.5286 48.6312 77.831 48.5099 76.0858 48.5256C76.0745 48.5261 76.0637 48.53 76.0547 48.5368C76.0457 48.5436 76.039 48.5529 76.0354 48.5636C76.0317 48.5742 76.0314 48.5857 76.0344 48.5966C76.0373 48.6074 76.0435 48.6171 76.0521 48.6244ZM44.0587 58.0737C44.0812 58.496 44.5843 59.2934 45.1369 59.0553C47.1426 58.1883 49.1596 55.2976 50.2849 53.4984C50.2901 53.4903 50.2925 53.4807 50.2918 53.4711C50.2911 53.4615 50.2873 53.4523 50.281 53.445C50.2747 53.4377 50.2662 53.4326 50.2568 53.4305C50.2474 53.4284 50.2376 53.4294 50.2287 53.4333C48.7643 54.024 43.9621 56.2027 44.0587 58.0737Z" fill="#408AC9"/>
<path d="M23.1404 89.0761C23.1299 90.5136 23.1292 91.9481 23.1381 93.3796C23.1516 95.6953 19.7735 95.9244 19.769 93.1774C19.7645 88.6224 19.7645 84.068 19.769 79.5145C19.7712 78.1848 20.2856 77.4413 21.64 77.4391C24.5891 77.4346 27.6393 76.9247 29.8292 79.3932C32.6706 82.5938 31.105 87.3893 27.125 88.6426C25.9907 88.9997 24.5307 88.9121 23.2549 88.9593C23.1801 88.9623 23.1419 89.0012 23.1404 89.0761ZM23.1292 80.9542L23.1426 85.406C23.1429 85.4281 23.1476 85.4499 23.1563 85.4703C23.165 85.4906 23.1777 85.509 23.1936 85.5244C23.2094 85.5399 23.2281 85.552 23.2487 85.5602C23.2692 85.5684 23.2912 85.5725 23.3133 85.5722L25.2742 85.5654C25.9722 85.5628 26.6407 85.3105 27.1326 84.8641C27.6246 84.4176 27.8997 83.8135 27.8976 83.1846V83.1396C27.8966 82.8281 27.8274 82.5198 27.6941 82.2325C27.5607 81.9451 27.3659 81.6842 27.1206 81.4648C26.8753 81.2454 26.5844 81.0717 26.2645 80.9536C25.9446 80.8356 25.602 80.7755 25.2562 80.7768L23.2954 80.7835C23.2732 80.7838 23.2514 80.7884 23.2311 80.7972C23.2107 80.8059 23.1923 80.8186 23.1769 80.8344C23.1615 80.8503 23.1493 80.869 23.1411 80.8896C23.1329 80.9101 23.1289 80.9321 23.1292 80.9542Z" fill="#408AC9"/>
<path d="M58.5804 84.5086C60.1414 84.5086 60.6962 86.7187 59.3845 87.5521C58.5242 88.1001 55.9772 87.8867 54.9327 87.8485C54.8519 87.8455 54.8107 87.8845 54.8092 87.9653C54.8002 89.7053 54.7972 91.44 54.8002 93.1695C54.8069 95.1483 52.4755 95.9345 51.6557 94.2072C51.5104 93.9003 51.4378 93.3657 51.4378 92.6035C51.4348 88.1847 51.4348 83.7644 51.4378 79.3426C51.4378 77.9927 52.2913 77.4896 53.5738 77.4896C55.2045 77.4911 56.8352 77.4903 58.4658 77.4873C59.0573 77.4873 59.4848 77.5614 59.7483 77.7097C60.9343 78.3813 60.8489 80.1377 59.6271 80.6678C58.5894 81.117 56.1142 80.8564 54.917 80.8632C54.8872 80.8632 54.8586 80.8748 54.8376 80.8954C54.8165 80.9161 54.8047 80.9441 54.8047 80.9732V84.3379C54.8047 84.3828 54.8226 84.4259 54.8546 84.4578C54.8865 84.4898 54.9299 84.508 54.9754 84.5086C56.1583 84.5101 57.36 84.5101 58.5804 84.5086Z" fill="#408AC9"/>
<path d="M34.9082 79.3462C34.9076 78.8873 35.0892 78.4469 35.413 78.1218C35.7369 77.7967 36.1766 77.6134 36.6355 77.6122L40.4538 77.6055C42.4057 77.6022 44.2792 78.4406 45.662 79.9364C47.0449 81.4321 47.8239 83.4626 47.8277 85.5814L47.8322 86.9605C47.8341 88.0097 47.6456 89.0491 47.2774 90.0191C46.9092 90.9892 46.3685 91.871 45.6863 92.6141C45.0041 93.3573 44.1936 93.9472 43.3012 94.3503C42.4088 94.7534 41.4519 94.9617 40.4853 94.9633L36.6669 94.97C36.4393 94.9706 36.2138 94.9263 36.0033 94.8397C35.7929 94.7531 35.6015 94.6258 35.4403 94.4652C35.279 94.3046 35.151 94.1137 35.0636 93.9036C34.9761 93.6935 34.931 93.4681 34.9307 93.2405L34.9082 79.3462ZM38.311 81.1363L38.2751 91.4279C38.2751 91.4702 38.2919 91.5108 38.3218 91.5407C38.3517 91.5706 38.3923 91.5874 38.4346 91.5874L40.4156 91.5964C40.9445 91.5982 41.4686 91.4812 41.958 91.2522C42.4474 91.0231 42.8926 90.6864 43.268 90.2613C43.6434 89.8363 43.9418 89.3311 44.1461 88.7748C44.3504 88.2184 44.4566 87.6218 44.4586 87.0189L44.4631 85.5903C44.4672 84.3728 44.0469 83.2036 43.2946 82.3401C42.5423 81.4766 41.5196 80.9895 40.4516 80.9858L38.4705 80.9769C38.4282 80.9769 38.3877 80.9937 38.3577 81.0236C38.3278 81.0535 38.311 81.094 38.311 81.1363Z" fill="#408AC9"/>
</svg>
