<svg width="24" height="24" viewBox="0 0 24 24" fill="none" xmlns="http://www.w3.org/2000/svg">
<path d="M5.00038 2.9996L5.00038 20.9996C5.00095 21.1818 5.05122 21.3605 5.14576 21.5163C5.2403 21.6721 5.37555 21.7991 5.53693 21.8838C5.69832 21.9684 5.87974 22.0075 6.06167 21.9967C6.24359 21.9859 6.41913 21.9257 6.56938 21.8226L19.5694 12.8226C20.1084 12.4496 20.1084 11.5516 19.5694 11.1776L6.56938 2.1776C6.41944 2.07342 6.24381 2.01233 6.06159 2.00096C5.87936 1.98959 5.6975 2.02838 5.53578 2.11311C5.37405 2.19784 5.23863 2.32527 5.14424 2.48156C5.04985 2.63785 5.0001 2.81702 5.00038 2.9996Z" fill="#02222D"/>
</svg>
