<svg width="128" height="128" viewBox="0 0 128 128" fill="none" xmlns="http://www.w3.org/2000/svg">
<rect width="128" height="128" fill="white"/>
<path d="M107.103 85.1505C92.8379 101.199 69.0494 100.51 55.8179 83.5497C55.8179 83.5294 55.7773 83.5092 55.7773 83.4889C55.7773 83.4484 55.7976 83.4281 55.8179 83.4079C55.8179 83.4079 55.8584 83.3876 55.8787 83.3876C55.8989 83.3876 55.9192 83.4079 55.9394 83.4079C68.4821 92.4856 80.5587 92.0195 92.1895 82.0097C97.863 75.7891 100.436 68.4742 99.8893 60.045C97.8833 38.3031 74.7635 28.3338 56.75 40.9372C56.75 40.9372 56.7297 40.9575 56.7094 40.9372C56.6892 40.9372 56.6689 40.9372 56.6689 40.9169C56.6486 40.9169 56.6486 40.9169 56.6486 40.8764C56.6486 40.8359 56.6486 40.8359 56.6689 40.8156C77.0127 17.7161 111.723 29.7522 115.127 59.4371C115.897 69.2037 113.242 77.7546 107.123 85.1505H107.103Z" fill="#408AC9"/>
<path d="M109.048 98.2398C99.119 110.478 83.9625 118.3 66.9621 118.3C37.0543 118.3 12.7998 94.0454 12.7998 64.1173C12.7998 34.1893 37.0543 9.95508 66.9621 9.95508C83.922 9.95508 99.0582 17.7562 109.007 29.9544C101.247 23.4501 91.2571 19.5191 80.376 19.5191C55.7365 19.5191 35.7777 39.4981 35.7777 64.1173C35.7777 88.7365 55.7365 108.716 80.376 108.716C91.2773 108.716 101.287 104.785 109.048 98.2398Z" fill="#02222D"/>
</svg>
