<svg width="16" height="16" viewBox="0 0 16 16" fill="none" xmlns="http://www.w3.org/2000/svg">
<rect width="16" height="16" fill="white"/>
<path d="M13.3883 10.6436C11.6052 12.6496 8.63167 12.5635 6.97772 10.4435C6.97772 10.4409 6.97266 10.4384 6.97266 10.4359C6.97266 10.4308 6.97519 10.4283 6.97772 10.4257C6.97772 10.4257 6.98279 10.4232 6.98532 10.4232C6.98785 10.4232 6.99039 10.4257 6.99292 10.4257C8.56075 11.5605 10.0703 11.5022 11.5242 10.251C12.2334 9.47339 12.555 8.55904 12.4866 7.50537C12.2359 4.78764 9.34593 3.54148 7.09423 5.11691C7.09423 5.11691 7.0917 5.11944 7.08917 5.11691C7.08663 5.11691 7.0841 5.11691 7.0841 5.11437C7.08157 5.11437 7.08157 5.11437 7.08157 5.10931C7.08157 5.10424 7.08157 5.10424 7.0841 5.10171C9.62707 2.21427 13.9658 3.71878 14.3913 7.42939C14.4876 8.65022 14.1558 9.71908 13.3909 10.6436H13.3883Z" fill="#408AC9"/>
<path d="M13.6306 12.2797C12.3895 13.8096 10.4949 14.7872 8.36989 14.7872C4.63142 14.7872 1.59961 11.7554 1.59961 8.01442C1.59961 4.27342 4.63142 1.24414 8.36989 1.24414C10.4899 1.24414 12.3819 2.21928 13.6255 3.74405C12.6555 2.93101 11.4068 2.43964 10.0466 2.43964C6.9667 2.43964 4.47185 4.93702 4.47185 8.01442C4.47185 11.0918 6.9667 13.5892 10.0466 13.5892C11.4093 13.5892 12.6605 13.0978 13.6306 12.2797Z" fill="#02222D"/>
</svg>
