<svg width="196" height="196" viewBox="0 0 196 196" fill="none" xmlns="http://www.w3.org/2000/svg">
<path d="M164.001 130.387C142.158 154.96 105.732 153.906 85.4712 127.936C85.4712 127.905 85.4092 127.874 85.4092 127.843C85.4092 127.781 85.4402 127.75 85.4712 127.718C85.4712 127.718 85.5333 127.687 85.5643 127.687C85.5953 127.687 85.6264 127.718 85.6574 127.718C104.863 141.619 123.356 140.905 141.165 125.578C149.853 116.052 153.793 104.851 152.956 91.944C149.884 58.6517 114.482 43.3863 86.8985 62.6853C86.8985 62.6853 86.8675 62.7163 86.8364 62.6853C86.8054 62.6853 86.7744 62.6853 86.7744 62.6543C86.7434 62.6543 86.7434 62.6543 86.7434 62.5922C86.7434 62.5301 86.7434 62.5301 86.7744 62.4991C117.926 27.128 171.076 45.5582 176.288 91.0132C177.467 105.968 173.403 119.062 164.032 130.387H164.001Z" fill="#408AC9"/>
<path d="M166.979 150.43C151.776 169.171 128.567 181.147 102.536 181.147C56.7393 181.147 19.5996 144.007 19.5996 98.1801C19.5996 52.3528 56.7393 15.2441 102.536 15.2441C128.505 15.2441 151.683 27.1896 166.917 45.8681C155.034 35.9083 139.737 29.889 123.076 29.889C85.3464 29.889 54.7846 60.4819 54.7846 98.1801C54.7846 135.878 85.3464 166.471 123.076 166.471C139.768 166.471 155.096 160.452 166.979 150.43Z" fill="#02222D"/>
</svg>
