<svg width="270" height="270" viewBox="0 0 270 270" fill="none" xmlns="http://www.w3.org/2000/svg">
<path d="M225.92 179.614C195.83 213.466 145.651 212.013 117.741 176.238C117.741 176.195 117.655 176.152 117.655 176.11C117.655 176.024 117.698 175.981 117.741 175.939C117.741 175.939 117.826 175.896 117.869 175.896C117.912 175.896 117.954 175.939 117.997 175.939C144.454 195.087 169.928 194.104 194.462 172.989C206.43 159.868 211.858 144.438 210.704 126.657C206.472 80.7957 157.704 59.7667 119.707 86.3521C119.707 86.3521 119.664 86.3948 119.621 86.3521C119.579 86.3521 119.536 86.3521 119.536 86.3093C119.493 86.3093 119.493 86.3093 119.493 86.2238C119.493 86.1384 119.493 86.1384 119.536 86.0956C162.449 37.3701 235.665 62.7587 242.846 125.375C244.47 145.977 238.871 164.014 225.963 179.614H225.92Z" fill="#408AC9"/>
<path d="M230.023 207.225C209.08 233.041 177.109 249.54 141.248 249.54C78.1618 249.54 27 198.378 27 135.249C27 72.119 78.1618 21 141.248 21C177.023 21 208.951 37.4555 229.937 63.186C213.567 49.466 192.496 41.1741 169.543 41.1741C117.57 41.1741 75.4691 83.3174 75.4691 135.249C75.4691 187.18 117.57 229.323 169.543 229.323C192.538 229.323 213.653 221.031 230.023 207.225Z" fill="#02222D"/>
</svg>
