<svg width="32" height="32" viewBox="0 0 32 32" fill="none" xmlns="http://www.w3.org/2000/svg">
<rect width="32" height="32" fill="white"/>
<path d="M26.7757 21.2881C23.2095 25.3001 17.2624 25.1279 13.9545 20.8879C13.9545 20.8829 13.9443 20.8778 13.9443 20.8727C13.9443 20.8626 13.9494 20.8575 13.9545 20.8525C13.9545 20.8525 13.9646 20.8474 13.9697 20.8474C13.9747 20.8474 13.9798 20.8525 13.9849 20.8525C17.1205 23.1219 20.1397 23.0054 23.0474 20.5029C24.4658 18.9478 25.1091 17.1191 24.9723 15.0117C24.4708 9.57625 18.6909 7.08394 14.1875 10.2348C14.1875 10.2348 14.1824 10.2399 14.1774 10.2348C14.1723 10.2348 14.1672 10.2348 14.1672 10.2297C14.1622 10.2297 14.1622 10.2297 14.1622 10.2196C14.1622 10.2095 14.1622 10.2095 14.1672 10.2044C19.2532 4.42952 27.9307 7.43853 28.7817 14.8598C28.9742 17.3014 28.3106 19.4391 26.7808 21.2881H26.7757Z" fill="#408AC9"/>
<path d="M27.2622 24.5604C24.78 27.6201 20.9909 29.5755 16.7408 29.5755C9.26381 29.5755 3.2002 23.5118 3.2002 16.0298C3.2002 8.54781 9.26381 2.48926 16.7408 2.48926C20.9807 2.48926 24.7648 4.43954 27.252 7.48908C25.3119 5.863 22.8145 4.88026 20.0942 4.88026C13.9344 4.88026 8.94468 9.87502 8.94468 16.0298C8.94468 22.1846 13.9344 27.1794 20.0942 27.1794C22.8196 27.1794 25.322 26.1966 27.2622 24.5604Z" fill="#02222D"/>
</svg>
