<svg width="26" height="28" viewBox="0 0 26 28" fill="none" xmlns="http://www.w3.org/2000/svg">
<path d="M23.7757 19.2881C20.2095 23.3001 14.2624 23.1279 10.9545 18.8879C10.9545 18.8829 10.9443 18.8778 10.9443 18.8727C10.9443 18.8626 10.9494 18.8575 10.9545 18.8525C10.9545 18.8525 10.9646 18.8474 10.9697 18.8474C10.9747 18.8474 10.9798 18.8525 10.9849 18.8525C14.1205 21.1219 17.1397 21.0054 20.0474 18.5029C21.4658 16.9478 22.1091 15.1191 21.9723 13.0117C21.4708 7.57625 15.6909 5.08394 11.1875 8.23479C11.1875 8.23479 11.1824 8.23986 11.1774 8.23479C11.1723 8.23479 11.1672 8.23479 11.1672 8.22972C11.1622 8.22972 11.1622 8.22972 11.1622 8.21959C11.1622 8.20946 11.1622 8.20946 11.1672 8.2044C16.2532 2.42952 24.9307 5.43853 25.7817 12.8598C25.9742 15.3014 25.3106 17.4391 23.7808 19.2881H23.7757Z" fill="#408AC9"/>
<path d="M24.2622 22.5604C21.78 25.6201 17.9909 27.5755 13.7408 27.5755C6.26381 27.5755 0.200195 21.5118 0.200195 14.0298C0.200195 6.54781 6.26381 0.489258 13.7408 0.489258C17.9807 0.489258 21.7648 2.43954 24.252 5.48908C22.3119 3.863 19.8145 2.88026 17.0942 2.88026C10.9344 2.88026 5.94468 7.87502 5.94468 14.0298C5.94468 20.1846 10.9344 25.1794 17.0942 25.1794C19.8196 25.1794 22.322 24.1966 24.2622 22.5604Z" fill="#02222D"/>
</svg>
