<svg width="48" height="48" viewBox="0 0 48 48" fill="none" xmlns="http://www.w3.org/2000/svg">
<rect width="48" height="48" fill="white"/>
<path d="M40.165 31.9317C34.8157 37.9497 25.895 37.6913 20.9332 31.3314C20.9332 31.3238 20.918 31.3162 20.918 31.3086C20.918 31.2934 20.9256 31.2858 20.9332 31.2782C20.9332 31.2782 20.9484 31.2706 20.956 31.2706C20.9636 31.2706 20.9712 31.2782 20.9788 31.2782C25.6822 34.6823 30.211 34.5076 34.5725 30.7539C36.7001 28.4212 37.6651 25.6781 37.4599 22.5171C36.7077 14.3639 28.0378 10.6254 21.2827 15.3517C21.2827 15.3517 21.2751 15.3593 21.2675 15.3517C21.2599 15.3517 21.2523 15.3517 21.2523 15.3441C21.2447 15.3441 21.2447 15.3441 21.2447 15.3289C21.2447 15.3137 21.2447 15.3137 21.2523 15.3061C28.8812 6.64379 41.8975 11.1573 43.174 22.2891C43.4628 25.9516 42.4674 29.1582 40.1726 31.9317H40.165Z" fill="#408AC9"/>
<path d="M40.8938 36.8402C37.1705 41.4297 31.4868 44.3627 25.1116 44.3627C13.8962 44.3627 4.80078 35.2673 4.80078 24.0442C4.80078 12.8212 13.8962 3.7334 25.1116 3.7334C31.4716 3.7334 37.1477 6.65883 40.8786 11.2331C37.9683 8.79401 34.2223 7.3199 30.1418 7.3199C20.902 7.3199 13.4175 14.812 13.4175 24.0442C13.4175 33.2764 20.902 40.7686 30.1418 40.7686C34.2299 40.7686 37.9835 39.2945 40.8938 36.8402Z" fill="#02222D"/>
</svg>
