<svg width="70" height="70" viewBox="0 0 70 70" fill="none" xmlns="http://www.w3.org/2000/svg">
<path d="M58.5725 46.5665C50.7714 55.3427 37.7621 54.966 30.5261 45.691C30.5261 45.68 30.5039 45.6689 30.5039 45.6578C30.5039 45.6356 30.515 45.6245 30.5261 45.6135C30.5261 45.6135 30.5482 45.6024 30.5593 45.6024C30.5704 45.6024 30.5815 45.6135 30.5926 45.6135C37.4518 50.5778 44.0562 50.323 50.4168 44.8489C53.5195 41.4469 54.9268 37.4466 54.6276 32.8369C53.5306 20.9468 40.887 15.4948 31.0358 22.3873C31.0358 22.3873 31.0247 22.3984 31.0136 22.3873C31.0026 22.3873 30.9915 22.3873 30.9915 22.3762C30.9804 22.3762 30.9804 22.3762 30.9804 22.3541C30.9804 22.3319 30.9804 22.3319 30.9915 22.3208C42.117 9.68829 61.099 16.2705 62.9607 32.5044C63.3818 37.8456 61.9301 42.5218 58.5836 46.5665H58.5725Z" fill="#408AC9"/>
<path d="M59.6356 53.725C54.2058 60.4181 45.9171 64.6954 36.62 64.6954C20.2642 64.6954 7 51.4312 7 35.0643C7 18.6974 20.2642 5.44434 36.62 5.44434C45.8949 5.44434 54.1726 9.71059 59.6134 16.3815C55.3693 12.8244 49.9063 10.6747 43.9557 10.6747C30.481 10.6747 19.5661 21.6007 19.5661 35.0643C19.5661 48.528 30.481 59.454 43.9557 59.454C49.9174 59.454 55.3915 57.3042 59.6356 53.725Z" fill="#02222D"/>
</svg>
