<svg width="96" height="96" viewBox="0 0 96 96" fill="none" xmlns="http://www.w3.org/2000/svg">
<rect width="96" height="96" fill="white"/>
<path d="M80.3271 63.8633C69.6284 75.8994 51.7871 75.3827 41.8634 62.6628C41.8634 62.6476 41.833 62.6324 41.833 62.6172C41.833 62.5868 41.8482 62.5716 41.8634 62.5564C41.8634 62.5564 41.8938 62.5412 41.909 62.5412C41.9242 62.5412 41.9394 62.5564 41.9546 62.5564C51.3616 69.3647 60.419 69.0151 69.1421 61.5078C73.3973 56.8423 75.3273 51.3562 74.917 45.0342C73.4125 28.7278 56.0726 21.2508 42.5625 30.7034C42.5625 30.7034 42.5473 30.7186 42.5321 30.7034C42.5169 30.7034 42.5017 30.7034 42.5017 30.6882C42.4865 30.6882 42.4865 30.6882 42.4865 30.6578C42.4865 30.6274 42.4865 30.6274 42.5017 30.6122C57.7595 13.2876 83.792 22.3146 86.3451 44.5783C86.9226 51.9033 84.9318 58.3164 80.3423 63.8633H80.3271Z" fill="#408AC9"/>
<path d="M81.7856 73.6803C74.339 82.8593 62.9716 88.7254 50.2213 88.7254C27.7905 88.7254 9.59961 70.5345 9.59961 48.0885C9.59961 25.6425 27.7905 7.4668 50.2213 7.4668C62.9412 7.4668 74.2934 13.3177 81.7552 22.4663C75.9347 17.588 68.4426 14.6398 60.2817 14.6398C41.8021 14.6398 26.8331 29.6241 26.8331 48.0885C26.8331 66.5529 41.8021 81.5372 60.2817 81.5372C68.4577 81.5372 75.9651 78.589 81.7856 73.6803Z" fill="#02222D"/>
</svg>
