<svg width="120" height="120" viewBox="0 0 120 120" fill="none" xmlns="http://www.w3.org/2000/svg">
<rect width="120" height="120" fill="white"/>
<path d="M100.409 79.8282C87.0353 94.8733 64.7336 94.2274 52.329 78.3275C52.329 78.3085 52.291 78.2895 52.291 78.2705C52.291 78.2325 52.31 78.2135 52.329 78.1945C52.329 78.1945 52.367 78.1755 52.386 78.1755C52.405 78.1755 52.424 78.1945 52.443 78.1945C64.2017 86.7048 75.5235 86.2679 86.4274 76.8838C91.7463 71.0519 94.1589 64.1942 93.646 56.2918C91.7653 35.9087 70.0906 26.5626 53.2028 38.3783C53.2028 38.3783 53.1838 38.3973 53.1648 38.3783C53.1459 38.3783 53.1269 38.3783 53.1269 38.3593C53.1079 38.3593 53.1079 38.3593 53.1079 38.3213C53.1079 38.2833 53.1079 38.2833 53.1269 38.2643C72.1991 16.6085 104.74 27.8923 107.931 55.7219C108.653 64.8781 106.165 72.8945 100.428 79.8282H100.409Z" fill="#408AC9"/>
<path d="M102.232 92.0999C92.9242 103.574 78.715 110.906 62.7771 110.906C34.7386 110.906 12 88.1677 12 60.1101C12 32.0526 34.7386 9.33301 62.7771 9.33301C78.677 9.33301 92.8672 16.6466 102.194 28.0824C94.9188 21.9845 85.5537 18.2993 75.3527 18.2993C52.2532 18.2993 33.5418 37.0296 33.5418 60.1101C33.5418 83.1906 52.2532 101.921 75.3527 101.921C85.5727 101.921 94.9568 98.2357 102.232 92.0999Z" fill="#02222D"/>
</svg>
