<svg width="152" height="152" viewBox="0 0 152 152" fill="none" xmlns="http://www.w3.org/2000/svg">
<path d="M127.184 101.116C110.245 120.173 81.996 119.355 66.2835 99.2154C66.2835 99.1913 66.2354 99.1673 66.2354 99.1432C66.2354 99.0951 66.2594 99.071 66.2835 99.047C66.2835 99.047 66.3316 99.0229 66.3557 99.0229C66.3797 99.0229 66.4038 99.047 66.4279 99.047C81.3222 109.827 95.6632 109.273 109.475 97.3867C116.212 89.9997 119.268 81.3133 118.618 71.3035C116.236 45.485 88.7814 33.6465 67.3903 48.6131C67.3903 48.6131 67.3663 48.6371 67.3422 48.6131C67.3181 48.6131 67.2941 48.6131 67.2941 48.589C67.27 48.589 67.27 48.589 67.27 48.5409C67.27 48.4927 67.27 48.4927 67.2941 48.4687C91.4523 21.038 132.67 35.3308 136.713 70.5816C137.627 82.1795 134.475 92.3337 127.208 101.116H127.184Z" fill="#408AC9"/>
<path d="M129.495 116.66C117.704 131.194 99.7059 140.482 79.5179 140.482C44.0024 140.482 15.2002 111.68 15.2002 76.14C15.2002 40.6004 44.0024 11.8223 79.5179 11.8223C99.6578 11.8223 117.632 21.0861 129.446 35.5714C120.231 27.8475 108.368 23.1795 95.4469 23.1795C66.1875 23.1795 42.4865 46.9046 42.4865 76.14C42.4865 105.375 66.1875 129.1 95.4469 129.1C108.392 129.1 120.279 124.432 129.495 116.66Z" fill="#02222D"/>
</svg>
