<svg width="180" height="180" viewBox="0 0 180 180" fill="none" xmlns="http://www.w3.org/2000/svg">
<path d="M150.613 119.743C130.553 142.311 97.1004 141.342 78.4935 117.492C78.4935 117.464 78.4365 117.435 78.4365 117.407C78.4365 117.35 78.465 117.321 78.4935 117.293C78.4935 117.293 78.5505 117.264 78.579 117.264C78.6075 117.264 78.636 117.293 78.6645 117.293C96.3026 130.058 113.285 129.403 129.641 115.327C137.62 106.579 141.238 96.2923 140.469 84.4386C137.648 53.8641 105.136 39.8448 79.8043 57.5684C79.8043 57.5684 79.7758 57.5969 79.7473 57.5684C79.7188 57.5684 79.6903 57.5684 79.6903 57.5399C79.6618 57.5399 79.6618 57.5399 79.6618 57.4829C79.6618 57.4259 79.6618 57.4259 79.6903 57.3974C108.299 24.9137 157.11 41.8394 161.897 83.5838C162.98 97.3181 159.247 109.343 150.641 119.743H150.613Z" fill="#408AC9"/>
<path d="M153.349 138.15C139.386 155.361 118.073 166.36 94.1657 166.36C52.1079 166.36 18 132.252 18 90.1657C18 48.0794 52.1079 14 94.1657 14C118.016 14 139.301 24.9704 153.292 42.124C142.378 32.9773 128.331 27.4494 113.029 27.4494C78.3797 27.4494 50.3127 55.5449 50.3127 90.1657C50.3127 124.786 78.3797 152.882 113.029 152.882C128.359 152.882 142.435 147.354 153.349 138.15Z" fill="#02222D"/>
</svg>
