<svg width="167" height="167" viewBox="0 0 167 167" fill="none" xmlns="http://www.w3.org/2000/svg">
<path d="M139.235 110.594C120.624 131.532 89.5874 130.633 72.3244 108.506C72.3244 108.479 72.2715 108.453 72.2715 108.427C72.2715 108.374 72.2979 108.347 72.3244 108.321C72.3244 108.321 72.3772 108.294 72.4037 108.294C72.4301 108.294 72.4565 108.321 72.483 108.321C88.8472 120.164 104.603 119.556 119.778 106.497C127.18 98.3807 130.538 88.8371 129.824 77.8395C127.207 49.4731 97.0425 36.4663 73.5404 52.9098C73.5404 52.9098 73.514 52.9363 73.4876 52.9098C73.4611 52.9098 73.4347 52.9098 73.4347 52.8834C73.4083 52.8834 73.4083 52.8834 73.4083 52.8305C73.4083 52.7777 73.4083 52.7777 73.4347 52.7512C99.977 22.6136 145.263 38.3169 149.704 77.0464C150.709 89.7888 147.245 100.945 139.262 110.594H139.235Z" fill="#408AC9"/>
<path d="M141.774 127.672C128.82 143.64 109.045 153.844 86.865 153.844C47.8447 153.844 16.2002 122.2 16.2002 83.1531C16.2002 44.1064 47.8447 12.4883 86.865 12.4883C108.992 12.4883 128.74 22.6663 141.721 38.5811C131.596 30.095 118.562 24.9663 104.366 24.9663C72.2192 24.9663 46.1792 51.0327 46.1792 83.1531C46.1792 115.273 72.2192 141.34 104.366 141.34C118.589 141.34 131.648 136.211 141.774 127.672Z" fill="#02222D"/>
</svg>
