<svg width="53" height="55" viewBox="0 0 53 55" fill="none" xmlns="http://www.w3.org/2000/svg">
    <rect width="53" height="54.8993" rx="26.5" fill="#02222D"/>
    <path d="M40.3764 34.2213C35.7814 39.3906 28.1189 39.1687 23.8568 33.7057C23.8568 33.6992 23.8438 33.6926 23.8438 33.6861C23.8438 33.673 23.8503 33.6665 23.8568 33.66C23.8568 33.66 23.8699 33.6535 23.8764 33.6535C23.8829 33.6535 23.8894 33.66 23.896 33.66C27.9361 36.584 31.8261 36.4339 35.5726 33.2096C37.4001 31.2059 38.229 28.8497 38.0528 26.1345C37.4066 19.1311 29.9595 15.9199 24.157 19.9796C24.157 19.9796 24.1505 19.9861 24.144 19.9796C24.1375 19.9796 24.1309 19.9796 24.1309 19.9731C24.1244 19.9731 24.1244 19.9731 24.1244 19.96C24.1244 19.947 24.1244 19.947 24.1309 19.9404C30.6839 12.4998 41.8645 16.3768 42.961 25.9387C43.2091 29.0846 42.354 31.839 40.3829 34.2213H40.3764Z"
          fill="white"/>
    <path d="M41.0028 38.4377C37.8046 42.3799 32.9225 44.8993 27.4464 44.8993C17.8127 44.8993 10 37.0866 10 27.4464C10 17.8062 17.8127 10 27.4464 10C32.9094 10 37.785 12.5129 40.9897 16.442C38.4899 14.3469 35.2721 13.0807 31.7672 13.0807C23.8305 13.0807 17.4015 19.5162 17.4015 27.4464C17.4015 35.3766 23.8305 41.8121 31.7672 41.8121C35.2787 41.8121 38.503 40.5459 41.0028 38.4377Z"
          fill="#408AC9"/>
</svg>