<svg width="241" height="66" viewBox="0 0 241 66" fill="none" xmlns="http://www.w3.org/2000/svg">
<path d="M63.8854 1.40918H0.591797V65.3012H63.8854V1.40918Z" fill="#02222D"/>
<path d="M53.6624 7.77306C52.2079 7.77306 51.1064 8.74718 50.5576 9.9178L42.5881 23.1622C42.0355 24.3871 41.6321 25.7632 41.6321 26.6741C41.6321 27.4881 41.7427 28.2073 42.0382 28.8701L50.6591 49.6596H17.1823C15.9773 49.6596 14.9827 48.4378 14.9827 47.3098V11.4986C14.7294 6.6029 7.75898 6.60554 7.60547 11.6524L7.75775 49.6596C7.75775 53.7917 10.9223 57.1021 14.9827 57.1021H60.6251L49.5001 28.366C49.193 27.2962 49.0562 26.3259 49.8046 25.0506L57.1649 12.9683C57.2686 12.7163 57.4187 11.651 57.4187 11.3448C57.2729 9.15083 55.5698 7.67616 53.6624 7.77306ZM35.5916 7.79015C33.8012 7.80226 32.013 9.05075 32.013 11.4986V37.1244C32.013 40.8456 27.0553 40.5394 27.0553 37.1244V11.4986C27.0553 6.6029 19.8811 6.6029 19.8811 11.4986V37.3295C19.8811 43.2369 24.2508 47.1645 29.4665 47.1645C34.8241 47.1645 39.1787 43.2369 39.1787 37.3295V11.4986C39.1787 9.00229 37.3819 7.77804 35.5916 7.79015Z" fill="#718389"/>
<path d="M76.2861 8.91699V25.8213C76.2861 30.0464 75.8601 32.3954 72.4521 32.3954C71.815 32.3954 71.389 32.3954 70.752 32.1628V39.4385C72.0261 39.9114 72.8781 39.9114 73.945 39.9114C83.5243 39.9114 83.9503 32.6318 83.9503 28.4028V16.1966H89.4844V39.4385H97.1448V8.91699H76.2861Z" fill="#718389"/>
<path d="M99.6992 8.91699L110.13 30.9883L106.3 39.4385H114.602L126.948 8.91699H118.647L114.176 21.8287L108.852 8.91699H99.6992Z" fill="#718389"/>
<path d="M129.289 39.4385H136.953V26.2903L144.828 39.4385H154.619L143.765 23.7087L154.408 8.91699H145.254L136.953 21.8287V8.91699H129.289V39.4385Z" fill="#718389"/>
<path d="M167.182 40.3798C177.398 40.3798 182.08 32.3948 182.08 24.1772C182.08 16.196 177.398 8.21094 167.182 8.21094C157.176 8.21094 152.494 16.196 152.494 24.1772C152.494 32.3948 157.176 40.3798 167.182 40.3798ZM167.182 33.1003C163.774 33.1003 160.369 30.0458 160.369 24.1772C160.369 18.3085 163.774 15.4905 167.182 15.4905C170.801 15.4905 174.205 18.3085 174.205 24.1772C174.205 30.0458 170.801 33.1003 167.182 33.1003Z" fill="#718389"/>
<path d="M185.914 8.91685V39.4384H193.363L204.006 21.127V39.4384H211.459V8.91685H204.006L193.363 27.2321V8.91685H185.914ZM198.897 7.27332C202.091 7.27332 205.284 6.09882 206.777 2.57532L202.305 0.699219C201.665 3.04822 199.749 3.28079 198.897 3.28079C198.26 3.28079 196.13 3.04822 195.704 0.699219L191.237 2.57532C192.511 6.09882 195.919 7.27332 198.897 7.27332Z" fill="#718389"/>
<path d="M219.548 8.91699V25.8213C219.548 30.0464 219.118 32.3954 215.714 32.3954C215.077 32.3954 214.651 32.3954 214.01 32.1628V39.4385C215.288 39.9114 216.14 39.9114 217.203 39.9114C226.782 39.9114 227.208 32.6318 227.208 28.4028V16.1966H232.742V39.4385H240.406V8.91699H219.548Z" fill="#718389"/>
<path d="M70.8125 56.5674H71.8909V50.9042H78.1888V56.5674H79.2672V45.4658H78.1888V50.0127H71.8909V45.4658H70.8125V56.5674Z" fill="#718389"/>
<path d="M82.0117 56.5674H87.9182V55.6758H83.0902V50.7957H87.7263V49.9041H83.0902V46.3612H87.9182V45.4658H82.0117V56.5674Z" fill="#718389"/>
<path d="M95.0255 56.5679H96.0924V55.0406H96.5414C100.095 55.0406 101.565 52.9165 101.565 50.6915C101.565 48.0867 99.6578 46.3617 96.5414 46.3617H96.0924V45.0283H95.0255V46.3617H94.5918C91.4563 46.3617 89.5527 48.0867 89.5527 50.6915C89.5527 52.9165 91.0226 55.0406 94.5918 55.0406H95.0255V56.5679ZM96.0924 47.2533C99.6578 47.2998 100.441 48.9821 100.441 50.6915C100.441 53.3584 98.6868 54.0522 96.0924 54.1452V47.2533ZM95.0255 54.1452C92.4311 54.0522 90.6772 53.3584 90.6772 50.6915C90.6772 48.9821 91.4563 47.2998 95.0255 47.2533V54.1452Z" fill="#718389"/>
<path d="M105.462 56.5674H106.498V46.3612H109.422V45.4658H102.541V46.3612H105.462V56.5674Z" fill="#718389"/>
<path d="M110.696 56.5674H111.908L114.833 51.6911H115.762V56.5674H116.844V45.4658H114.307C110.98 45.4658 110.5 47.6947 110.5 48.6792C110.5 50.5553 111.955 51.6911 113.666 51.629L110.696 56.5674ZM115.762 50.7957H114.204C113.321 50.7957 111.567 50.691 111.567 48.5707C111.567 46.5124 113.424 46.3612 114.307 46.3612H115.762V50.7957Z" fill="#718389"/>
<path d="M119.604 56.5674H120.682V50.9042H126.98V56.5674H128.058V45.4658H126.98V50.0127H120.682V45.4658H119.604V56.5674Z" fill="#718389"/>
<path d="M129.631 56.5671H130.713L132.225 52.9622H136.858L138.373 56.5671H139.452L134.52 45.1787L129.631 56.5671ZM132.617 52.0862L134.52 47.5432L136.47 52.0862H132.617Z" fill="#718389"/>
<path d="M140.7 56.5674H141.912L144.837 51.6911H145.766V56.5674H146.844V45.4658H144.311C140.984 45.4658 140.504 47.6947 140.504 48.6792C140.504 50.5553 141.958 51.6911 143.666 51.629L140.7 56.5674ZM145.766 50.7957H144.207C143.321 50.7957 141.567 50.691 141.567 48.5707C141.567 46.5124 143.428 46.3612 144.311 46.3612H145.766V50.7957Z" fill="#718389"/>
<path d="M153.25 56.5674H154.328V51.191L159.26 56.5674H160.669L155.345 50.8422L160.58 45.4658H159.26L154.328 50.6445V45.4658H153.25V56.5674Z" fill="#718389"/>
<path d="M167.625 56.916C170.895 56.916 173.578 54.5398 173.578 51.0396C173.578 47.5432 170.895 45.1787 167.625 45.1787C164.401 45.1787 161.719 47.5432 161.719 51.0396C161.719 54.5398 164.401 56.916 167.625 56.916ZM167.625 55.9779C164.943 55.9779 162.843 53.9468 162.843 51.0396C162.843 48.1324 164.943 46.0586 167.625 46.0586C170.312 46.0586 172.453 48.1324 172.453 51.0396C172.453 53.9468 170.312 55.9779 167.625 55.9779Z" fill="#718389"/>
<path d="M175.064 56.5679H176.101L177.118 48.3735L181.167 57.0679L185.169 48.3735L186.252 56.5679H187.223L185.711 45.0283L181.167 54.9476L176.577 45.0283L175.064 56.5679Z" fill="#718389"/>
<path d="M189.248 45.4658V56.5674H190.326V46.3612H196.624V56.5674H197.703V45.4658H189.248Z" fill="#718389"/>
<path d="M199.279 56.5671H200.358L201.87 52.9622H206.506L208.018 56.5671H209.096L204.165 45.1787L199.279 56.5671ZM202.261 52.0862L204.165 47.5432L206.114 52.0862H202.261Z" fill="#718389"/>
<path d="M210.629 56.5674H211.707V50.9042H218.005V56.5674H219.088V45.4658H218.005V50.0127H211.707V45.4658H210.629V56.5674Z" fill="#718389"/>
<path d="M221.828 45.4663V57.0679L229.358 47.7843V56.5679H230.421V45.0283L222.91 54.2499V45.4663H221.828Z" fill="#718389"/>
<path d="M232.85 56.5674H234.063L236.987 51.6911H237.916V56.5674H238.998V45.4658H236.465C233.134 45.4658 232.654 47.6947 232.654 48.6792C232.654 50.5553 234.109 51.6911 235.821 51.629L232.85 56.5674ZM237.916 50.7957H236.358C235.475 50.7957 233.721 50.691 233.721 48.5707C233.721 46.5124 235.579 46.3612 236.465 46.3612H237.916V50.7957Z" fill="#718389"/>
</svg>
