<svg width="251" height="41" viewBox="0 0 251 41" fill="none" xmlns="http://www.w3.org/2000/svg">
<g id="Sberbank_Logo_2020 1" clip-path="url(#clip0_182_1762)">
<path id="Vector" d="M35.1238 8.00293C36.0484 9.21431 36.831 10.5304 37.456 11.9247L19.7276 25.1692L12.3184 20.4622V14.7994L19.7276 19.5064L35.1238 8.00293Z" fill="#718389"/>
<path id="Vector_2" d="M4.75606 20.0625C4.75606 19.8084 4.76217 19.556 4.7744 19.305L0.28422 19.082C0.268937 19.4073 0.259771 19.7357 0.259771 20.0671C0.257861 22.6566 0.760441 25.2209 1.7387 27.613C2.71694 30.0053 4.1516 32.1781 5.96037 34.007L9.14537 30.7807C7.75304 29.3754 6.6485 27.7049 5.89523 25.8655C5.14197 24.0261 4.75483 22.054 4.75606 20.0625Z" fill="#718389"/>
<path id="Vector_3" d="M19.7234 4.89649C19.974 4.89649 20.2231 4.90579 20.4707 4.91817L20.6954 0.36602C20.3735 0.350532 20.0494 0.342788 19.7234 0.342788C17.1671 0.339629 14.6354 0.848238 12.2737 1.83941C9.91191 2.83059 7.76661 4.28481 5.96094 6.11856L9.14594 9.34642C10.5327 7.9349 12.1811 6.81509 13.9964 6.05141C15.8117 5.28774 17.7579 4.89523 19.7234 4.89649Z" fill="#718389"/>
<path id="Vector_4" d="M19.7235 35.2325C19.4729 35.2325 19.2237 35.2325 18.9747 35.2124L18.75 39.763C19.073 39.7795 19.3975 39.7878 19.7235 39.7878C22.2788 39.7905 24.8092 39.2815 27.1697 38.2901C29.5302 37.2986 31.6741 35.8442 33.4784 34.0105L30.2995 30.7842C28.9125 32.195 27.2642 33.3141 25.4493 34.0775C23.6344 34.8409 21.6885 35.2335 19.7235 35.2325Z" fill="#718389"/>
<path id="Vector_5" d="M28.1593 7.54216L31.9433 4.71545C28.4847 1.87707 24.1673 0.331965 19.7168 0.339874V4.89512C22.7305 4.89134 25.6742 5.81434 28.1593 7.54216Z" fill="#718389"/>
<path id="Vector_6" d="M39.1849 20.0629C39.1873 18.8778 39.085 17.6949 38.8792 16.5283L34.6901 19.657C34.6901 19.7919 34.6901 19.9266 34.6901 20.0629C34.6912 22.1822 34.2528 24.2781 33.4036 26.2147C32.5542 28.1513 31.3127 29.8854 29.7598 31.3046L32.7813 34.689C34.8002 32.8418 36.4136 30.5852 37.5168 28.0656C38.62 25.5459 39.1883 22.8194 39.1849 20.0629Z" fill="#718389"/>
<path id="Vector_7" d="M19.7229 35.2321C17.6316 35.2328 15.5634 34.7884 13.6522 33.9276C11.7412 33.0669 10.0298 31.8089 8.62884 30.2354L5.29102 33.2959C7.11346 35.3424 9.33998 36.9777 11.8262 38.0961C14.3124 39.2143 17.0027 39.7905 19.7229 39.7872V35.2321Z" fill="#718389"/>
<path id="Vector_8" d="M9.68641 8.82083L6.66646 5.43652C4.6469 7.28337 3.03294 9.53979 1.92923 12.0595C0.825539 14.5791 0.256757 17.3058 0.259778 20.0626H4.75607C4.75514 17.9434 5.19356 15.8475 6.04289 13.9109C6.89222 11.9743 8.13354 10.2402 9.68641 8.82083Z" fill="#718389"/>
<g id="Clip path group">
<mask id="mask0_182_1762" style="mask-type:luminance" maskUnits="userSpaceOnUse" x="49" y="7" width="204" height="27">
<g id="clip0">
<path id="Vector_9" d="M252.771 7.20117H49.6641V33.2757H252.771V7.20117Z" fill="white"/>
</g>
</mask>
<g mask="url(#mask0_182_1762)">
<g id="Group">
<path id="Vector_10" d="M112.572 11.6186L118.141 7.50781H99.5039V32.2101H118.141V28.0993H104.822V21.7718H116.184V17.661H104.822V11.6186H112.572Z" fill="#718389"/>
<path id="Vector_11" d="M86.965 17.1304H80.4945V11.6164H90.8211L96.3865 7.49316H75.1797V32.1954H86.2806C92.5042 32.1954 96.076 29.369 96.076 24.4399C96.076 19.7243 92.8408 17.1304 86.965 17.1304ZM86.0412 28.0833H80.4945V21.2387H86.0412C89.4074 21.2387 90.9856 22.3857 90.9856 24.6611C90.9856 26.9363 89.3063 28.0833 86.0412 28.0833Z" fill="#718389"/>
<path id="Vector_12" d="M131.842 7.50293H121.697V32.2051H127.015V25.2074H131.842C138.315 25.2074 142.319 21.7948 142.319 16.342C142.319 10.8893 138.315 7.50293 131.842 7.50293ZM131.73 21.0935H127.015V11.6168H131.73C135.135 11.6168 137.013 13.3007 137.013 16.357C137.013 19.4134 135.135 21.0935 131.73 21.0935Z" fill="#718389"/>
<path id="Vector_13" d="M67.1996 26.3769C65.826 27.1223 64.287 27.5082 62.7251 27.499C58.0502 27.499 54.6588 24.1549 54.6588 19.55C54.6588 14.945 58.0502 11.5937 62.7251 11.5937C64.411 11.565 66.0619 12.0772 67.4366 13.0556L71.1561 10.3109L70.9046 10.1318C68.7348 8.22036 65.8357 7.20801 62.5173 7.20801C58.918 7.20801 55.6543 8.42136 53.3241 10.6288C52.1458 11.7654 51.2141 13.1331 50.5866 14.6467C49.9592 16.1602 49.6496 17.787 49.6775 19.4257C49.6525 21.081 49.9607 22.7245 50.5835 24.2579C51.2062 25.7913 52.1309 27.1832 53.3023 28.3506C55.6433 30.6457 58.8998 31.9102 62.4735 31.9102C66.2077 31.9102 69.4715 30.6054 71.6813 28.23L68.3519 25.7448L67.1996 26.3769Z" fill="#718389"/>
<path id="Vector_14" d="M163.403 17.1304H156.936V11.6164H170.835V7.49316H151.617V32.1954H162.704C168.927 32.1954 172.499 29.369 172.499 24.4399C172.514 19.7243 169.279 17.1304 163.403 17.1304ZM162.48 28.0833H156.936V21.2387H162.48C165.846 21.2387 167.423 22.3857 167.423 24.6611C167.423 26.9363 165.759 28.0833 162.48 28.0833Z" fill="#718389"/>
<path id="Vector_15" d="M232.953 32.1612H227.562V7.45898H232.953V17.8341H235.888L243.811 7.45898H249.921L240.522 19.2101L251.435 32.1612H244.282L236.261 22.4461H232.953V32.1612Z" fill="#718389"/>
<path id="Vector_16" d="M192.084 27.4649H180.68L178.747 32.2618H173.01L183.706 7.55957H189.442L199.964 32.2618H194.017L192.084 27.4649ZM190.298 22.9891L186.416 13.3952L182.512 22.9891H190.298Z" fill="#718389"/>
<path id="Vector_17" d="M207.223 7.55957V17.8748H218.378V7.55957H223.936V32.2618H218.378V22.5282H207.223V32.2618H201.664V7.55957H207.223Z" fill="#718389"/>
</g>
</g>
</g>
</g>
<defs>
<clipPath id="clip0_182_1762">
<rect width="253.26" height="39.798" fill="white" transform="translate(0.259766 0.339844)"/>
</clipPath>
</defs>
</svg>
