<svg width="223" height="48" viewBox="0 0 223 48" fill="none" xmlns="http://www.w3.org/2000/svg">
<g id="Logotip_Letual 1" clip-path="url(#clip0_182_1827)">
<path id="Vector" d="M21.2363 9.375C11.4285 9.375 3.41467 19.3409 0.753191 32.8365C0.723783 32.97 0.694392 33.3111 0.679688 33.4446C0.929661 33.4446 1.76779 33.5336 2.06188 32.7475C7.17898 21.8917 13.443 15.1737 21.2217 15.1737C29.1178 15.1737 35.7201 23.182 39.705 33.4297C40.5283 32.6289 41.7929 31.3683 41.7929 30.1523C38.5727 18.1694 30.456 9.375 21.2363 9.375Z" fill="#718389"/>
<path id="Vector_2" d="M177.514 9.375C167.706 9.375 159.692 19.3409 157.031 32.8365C157.001 32.97 156.972 33.3111 156.957 33.4446C157.207 33.4446 158.046 33.5336 158.339 32.7475C163.456 21.8917 169.721 15.1737 177.514 15.1737C185.41 15.1737 192.013 23.182 195.983 33.4297C196.806 32.6289 198.085 31.3683 198.085 30.1523C194.836 18.1694 186.733 9.375 177.514 9.375Z" fill="#718389"/>
<path id="Vector_3" d="M45.1754 9.375C44.102 9.375 42.9551 9.95337 42.9551 11.3178C42.9551 11.9703 44.2785 14.2541 45.2342 16.5084C46.1901 14.2097 47.4546 12.1038 47.4546 11.3178C47.4546 9.95337 46.3811 9.375 45.1754 9.375Z" fill="#718389"/>
<path id="Vector_4" d="M63.1725 9.95312C55.9675 9.95312 51.7179 11.7476 49.2181 13.3937L51.9678 14.773C54.2617 13.2603 56.9673 11.8069 62.2461 11.8069C72.7597 11.8069 74.5978 18.1543 74.9213 20.6606L74.8919 20.5864C74.7889 20.6161 74.686 20.6458 74.5978 20.6754C73.4362 21.0314 71.9804 21.4763 69.5689 21.4763C68.5102 21.4763 67.8191 21.2241 66.9516 20.8831C65.8634 20.4678 64.4959 19.9635 62.202 19.9635C60.2611 19.9635 58.5848 20.364 57.335 20.7347V23.2855C58.5112 22.9297 60.2316 22.4106 62.202 22.4106C64.0696 22.4106 65.0546 22.7814 66.0987 23.1817C67.0691 23.5525 68.0691 23.9232 69.5689 23.9232C72.0981 23.9232 73.7449 23.4783 74.9801 23.1076C74.9654 23.5525 74.9654 23.9232 74.9507 24.0419C74.7154 26.222 73.0833 32.1541 62.2461 32.1541C56.335 32.1541 54.0265 31.0121 51.7326 29.3364L49.1152 30.938C51.9237 32.688 55.1881 34.0078 63.1725 34.0078C73.642 34.0078 80.8619 29.3215 80.8619 22.5737C80.8619 15.8111 73.6567 9.95312 63.1725 9.95312Z" fill="#718389"/>
<path id="Vector_5" d="M82.2461 17.5766H89.0983V33.445H93.9654V17.5766H100.597V15.3965H82.2461V17.5766Z" fill="#718389"/>
<path id="Vector_6" d="M127.856 15.3965L117.754 29.5743L108.549 15.3965H103.344L115.078 33.3709L110.034 40.4597H113.313L131.12 15.3965H127.856Z" fill="#718389"/>
<path id="Vector_7" d="M142.945 15.084C136.504 15.084 132.048 16.4483 131.901 19.5331H131.887V20.1708H136.989C136.989 18.4653 137.93 17.264 143.253 17.264C148.738 17.264 149.267 18.3911 149.267 20.1708V22.7067H141.489C134.298 22.7067 130.695 25.1389 130.695 28.4312C130.695 31.2786 133.695 33.4142 139.577 33.4142H154.134V19.9779C154.148 16.2703 151.414 15.084 142.945 15.084ZM149.267 31.2638H140.798C137.121 31.2638 135.886 30.0477 135.886 28.2236C135.886 26.4143 137.401 24.9313 141.238 24.9313H149.267V31.2638Z" fill="#718389"/>
<path id="Vector_8" d="M212.935 22.7226H205.613V15.3965H200.672V33.4301H214.347C219.846 33.4301 222.743 31.1315 222.743 27.9133C222.743 24.2205 218.303 22.7226 212.935 22.7226ZM213.185 31.2649H205.613V24.9324H212.788C216.391 24.9324 217.802 26.1782 217.802 28.0022C217.802 30.0933 216.641 31.2649 213.185 31.2649Z" fill="#718389"/>
</g>
<defs>
<clipPath id="clip0_182_1827">
<rect width="222.064" height="47.6625" fill="white" transform="translate(0.679688 0.0498047)"/>
</clipPath>
</defs>
</svg>
