<svg width="127" height="28" viewBox="0 0 127 28" fill="none" xmlns="http://www.w3.org/2000/svg">
<g id="OZON_2019 1" clip-path="url(#clip0_182_1657)">
<path id="Vector" fill-rule="evenodd" clip-rule="evenodd" d="M15.2681 0.0745201C12.413 -0.226232 9.53479 0.364705 7.02912 1.76611C4.52345 3.16751 2.51333 5.31058 1.27506 7.90075C0.0367844 10.4909 -0.368856 13.401 0.113891 16.2311C0.596639 19.0612 1.94408 21.6722 3.971 23.7054C5.99792 25.7386 8.60482 27.0941 11.4334 27.5856C14.2619 28.0771 17.1733 27.6805 19.7673 26.4502C22.3613 25.22 24.5105 23.2165 25.9197 20.7152C27.3288 18.2139 27.9287 15.3375 27.6367 12.4814C27.3155 9.30673 25.9102 6.33969 23.6573 4.07989C21.4045 1.82009 18.4418 0.405574 15.2681 0.0745201ZM14.8178 21.2484C13.2823 21.4544 11.7207 21.1741 10.3527 20.4468C8.98469 19.7195 7.87895 18.5818 7.1909 17.1936C6.50285 15.8054 6.26708 14.2365 6.51673 12.7075C6.76638 11.1784 7.48889 9.76593 8.58272 8.66868C9.67655 7.57142 11.0867 6.84449 12.615 6.59006C14.1433 6.33563 15.7129 6.56649 17.1033 7.25019C18.4936 7.93389 19.6347 9.03606 20.3663 10.4018C21.0979 11.7675 21.3831 13.3282 21.1819 14.8644C20.9708 16.4802 20.2328 17.9814 19.0823 19.1355C17.9319 20.2896 16.433 21.0322 14.8178 21.2484ZM35.0693 0.624276C34.5874 0.62543 34.1117 0.73402 33.677 0.942143C33.2423 1.15027 32.8594 1.45269 32.5563 1.8274C32.2532 2.20212 32.0374 2.6397 31.9247 3.10831C31.8119 3.57691 31.8051 4.06476 31.9046 4.53634C32.2096 6.06411 33.6366 7.10799 35.1911 7.10799H44.2124L30.1732 25.6869C30.0694 25.824 30.0058 25.9874 29.9896 26.1587C29.9734 26.3299 30.0053 26.5023 30.0816 26.6565C30.1579 26.8107 30.2756 26.9406 30.4216 27.0316C30.5675 27.1226 30.736 27.1712 30.908 27.1719H52.9297C54.4832 27.1719 55.9113 26.1282 56.2162 24.6002C56.3158 24.1287 56.309 23.6409 56.1964 23.1724C56.0837 22.7038 55.8681 22.2663 55.5651 21.8915C55.2621 21.5168 54.8794 21.2143 54.4448 21.006C54.0102 20.7978 53.5347 20.689 53.0528 20.6876H42.0611L56.0895 2.12318C56.1943 1.98469 56.2585 1.81973 56.2748 1.64679C56.2911 1.47386 56.2589 1.2998 56.1818 1.14414C56.1047 0.988484 55.9858 0.857388 55.8383 0.765562C55.6909 0.673735 55.5208 0.62481 55.3471 0.624276H35.0693ZM123.067 0.699064C122.338 0.87243 121.69 1.28942 121.23 1.88109C120.77 2.47276 120.526 3.20368 120.537 3.95299V14.7482L103.045 0.828172C102.908 0.719284 102.743 0.651331 102.569 0.632132C102.395 0.612933 102.219 0.643267 102.061 0.719645C101.904 0.796022 101.771 0.91534 101.678 1.06387C101.585 1.2124 101.536 1.38412 101.537 1.55926V23.8489C101.525 24.5982 101.769 25.3292 102.229 25.9209C102.689 26.5125 103.337 26.9295 104.066 27.1028C104.539 27.207 105.03 27.2036 105.502 27.0928C105.974 26.982 106.415 26.7666 106.793 26.4626C107.17 26.1587 107.475 25.7738 107.684 25.3364C107.893 24.899 108.001 24.4203 108 23.9355V13.0469L125.493 26.9672C125.63 27.076 125.795 27.1439 125.969 27.1631C126.143 27.1823 126.319 27.1519 126.477 27.0756C126.634 26.9993 126.767 26.88 126.86 26.7315C126.952 26.5831 127.001 26.4114 127.001 26.2364V3.86535C127.001 3.3807 126.893 2.90212 126.684 2.46489C126.475 2.02766 126.17 1.64293 125.793 1.33906C125.415 1.0352 124.974 0.819945 124.503 0.709179C124.031 0.598413 123.54 0.594956 123.067 0.699064ZM77.5218 6.48738C84.9206 6.48738 90.4488 10.3973 90.4488 13.8948C90.4488 17.3922 84.9206 21.3022 77.5218 21.3022C70.1231 21.3022 64.5948 17.3922 64.5948 13.8948C64.5948 10.3973 70.1231 6.48738 77.5218 6.48738ZM77.5218 0.00393083C66.8125 0.00393083 58.131 6.22313 58.131 13.8948C58.131 21.5664 66.8125 27.7856 77.5218 27.7856C88.2312 27.7856 96.9123 21.5664 96.9123 13.8948C96.9123 6.22313 88.2309 0.00393083 77.5218 0.00393083Z" fill="#718389"/>
</g>
<defs>
<clipPath id="clip0_182_1657">
<rect width="127" height="27.7996" fill="white" transform="translate(0 -0.000976562)"/>
</clipPath>
</defs>
</svg>
