<svg width="237" height="47" viewBox="0 0 237 47" fill="none" xmlns="http://www.w3.org/2000/svg">
<path d="M22.3936 0H25.1914L46.8913 4.03512C47.2304 4.09626 47.4 4.29878 47.4 4.64268V14.8795C47.4 15.254 47.2882 15.5941 47.0647 15.8998L23.8619 47H23.3647L0 15.6132V4.11537L22.3936 0ZM22.2896 8.96439C22.3471 8.97608 22.4066 8.9752 22.4638 8.96181C22.521 8.94841 22.5745 8.92282 22.6208 8.88682C22.667 8.85082 22.7047 8.80526 22.7314 8.75333C22.758 8.7014 22.773 8.64433 22.7751 8.5861L22.8907 2.28122C22.8934 2.22126 22.8824 2.16147 22.8586 2.10627C22.8349 2.05107 22.7989 2.00186 22.7535 1.96226C22.708 1.92266 22.6541 1.89368 22.5958 1.87746C22.5376 1.86124 22.4764 1.85819 22.4167 1.86854L5.86142 4.74585C5.77305 4.76586 5.69401 4.81471 5.63698 4.88456C5.57995 4.95442 5.54823 5.04124 5.54689 5.13111C5.54556 5.22097 5.5747 5.30868 5.62963 5.38017C5.68457 5.45166 5.76212 5.50279 5.84985 5.52537L22.2896 8.96439ZM24.9948 1.91439C24.9362 1.90427 24.876 1.90709 24.8186 1.92267C24.7612 1.93825 24.708 1.96619 24.6627 2.00451C24.6174 2.04283 24.5813 2.09057 24.5567 2.14435C24.5322 2.19812 24.5199 2.2566 24.5208 2.31561L24.6133 8.54024C24.6138 8.59945 24.6275 8.65782 24.6535 8.71116C24.6794 8.7645 24.7169 8.81148 24.7633 8.84873C24.8098 8.88599 24.8639 8.9126 24.9219 8.92665C24.9799 8.9407 25.0404 8.94184 25.0989 8.93L41.527 5.55976C41.621 5.54251 41.7057 5.49285 41.7663 5.41958C41.8269 5.34631 41.8593 5.25416 41.8579 5.15943C41.8566 5.0647 41.8214 4.97352 41.7587 4.90202C41.696 4.83052 41.6099 4.78332 41.5155 4.76878L24.9948 1.91439ZM17.8964 9.84707L2.02317 6.40805C1.6378 6.32398 1.44512 6.47683 1.44512 6.86658V13.1371C1.44437 13.2378 1.4667 13.3374 1.51047 13.4285C1.55424 13.5196 1.61836 13.5999 1.69813 13.6636C1.7779 13.7273 1.87132 13.7728 1.97155 13.7968C2.07179 13.8207 2.17632 13.8225 2.27751 13.802L17.8964 10.489C18.906 10.275 18.906 10.0611 17.8964 9.84707ZM45.2381 13.802C45.2897 13.812 45.3428 13.8108 45.3938 13.7982C45.4448 13.7857 45.4924 13.7622 45.5332 13.7293C45.574 13.6965 45.6071 13.6552 45.63 13.6083C45.6529 13.5615 45.6652 13.5101 45.6659 13.458V6.80927C45.6652 6.75717 45.6529 6.70586 45.63 6.65898C45.6071 6.6121 45.574 6.57079 45.5332 6.53797C45.4924 6.50516 45.4448 6.48165 45.3938 6.4691C45.3428 6.45655 45.2897 6.45528 45.2381 6.46537L29.3186 9.78976C29.2419 9.80957 29.1739 9.85409 29.1254 9.91632C29.0769 9.97856 29.0505 10.055 29.0505 10.1337C29.0505 10.2123 29.0769 10.2888 29.1254 10.351C29.1739 10.4132 29.2419 10.4577 29.3186 10.4776L45.2381 13.802ZM22.4861 18.4332C22.5362 18.4416 22.5876 18.439 22.6366 18.4255C22.6856 18.412 22.731 18.388 22.7697 18.3552C22.8083 18.3224 22.8391 18.2815 22.86 18.2356C22.881 18.1896 22.8914 18.1397 22.8907 18.0893L22.7751 11.6583C22.7745 11.6077 22.7625 11.5578 22.7402 11.5123C22.7178 11.4668 22.6857 11.4267 22.6459 11.395C22.6061 11.3632 22.5598 11.3406 22.5102 11.3286C22.4606 11.3167 22.4089 11.3157 22.3589 11.3259L5.46834 14.8337C5.38885 14.8496 5.31749 14.8926 5.26666 14.9552C5.21583 15.0179 5.18875 15.0962 5.19013 15.1766C5.1915 15.257 5.22124 15.3344 5.27418 15.3953C5.32712 15.4562 5.39991 15.4968 5.4799 15.51L22.4861 18.4332ZM25.1104 11.3144C25.0535 11.3025 24.9945 11.3033 24.9379 11.3168C24.8813 11.3302 24.8284 11.356 24.783 11.3922C24.7377 11.4284 24.701 11.4741 24.6757 11.5261C24.6503 11.578 24.6369 11.635 24.6364 11.6927L24.4977 17.9861C24.495 18.0446 24.5057 18.1029 24.5288 18.1567C24.552 18.2106 24.5871 18.2585 24.6315 18.2971C24.676 18.3356 24.7286 18.3637 24.7855 18.3794C24.8423 18.395 24.9021 18.3977 24.9601 18.3873L41.4692 15.5788C41.5607 15.5645 41.6442 15.5186 41.705 15.4492C41.7657 15.3799 41.7997 15.2914 41.8011 15.1996C41.8025 15.1077 41.7711 15.0183 41.7125 14.9472C41.6539 14.8761 41.5718 14.8277 41.4808 14.8107L25.1104 11.3144ZM22.8329 20.6112C22.8317 20.5237 22.8 20.4393 22.743 20.3724C22.6861 20.3055 22.6076 20.2603 22.5208 20.2444L4.0001 16.8741C3.92542 16.862 3.8488 16.8722 3.77998 16.9034C3.71115 16.9346 3.65323 16.9853 3.61357 17.0492C3.57392 17.1131 3.55432 17.1873 3.55727 17.2622C3.56022 17.3372 3.58559 17.4096 3.63015 17.4702L22.1393 42.3115C22.1859 42.3773 22.2525 42.4266 22.3293 42.4524C22.4062 42.4781 22.4893 42.4789 22.5666 42.4546C22.6439 42.4303 22.7114 42.3822 22.7593 42.3173C22.8072 42.2524 22.833 42.1741 22.8329 42.0937V20.6112ZM24.5208 41.7956C24.5192 41.8832 24.5457 41.9691 24.5965 42.0407C24.6473 42.1124 24.7198 42.1662 24.8035 42.1943C24.8872 42.2224 24.9778 42.2233 25.062 42.197C25.1463 42.1707 25.22 42.1184 25.2723 42.0478L43.5502 17.5963C43.6 17.5302 43.6286 17.4507 43.6324 17.3682C43.6362 17.2857 43.6149 17.204 43.5713 17.1336C43.5277 17.0632 43.4639 17.0075 43.388 16.9735C43.3121 16.9395 43.2276 16.9288 43.1456 16.9429L24.937 20.1871C24.841 20.2032 24.7537 20.2521 24.6904 20.3254C24.627 20.3987 24.5915 20.4917 24.5902 20.5883L24.5208 41.7956Z" fill="#02222D"/>
<path d="M70.6268 16.3808C70.679 16.4053 70.7236 16.4438 70.7561 16.4921C70.7886 16.5405 70.8078 16.597 70.8118 16.6559C70.8272 16.9004 70.7733 17.103 70.65 17.2635C70.4958 17.4469 70.3956 17.5844 70.3494 17.6761C69.7174 18.9371 68.8619 19.3804 67.7828 19.0059C53.7016 14.0881 57.7132 39.1242 68.4765 31.4552C68.642 31.3379 68.8452 31.2847 69.0476 31.3059C69.2499 31.327 69.4375 31.4209 69.5748 31.5698L71.1471 33.2664C71.2147 33.3392 71.264 33.4267 71.2912 33.5219C71.3183 33.6171 71.3225 33.7173 71.3034 33.8144C71.2842 33.9114 71.2423 34.0027 71.181 34.0808C71.1197 34.1588 71.0408 34.2215 70.9505 34.2637C49.2159 44.5234 50.083 6.44199 70.6268 16.3808Z" fill="#718389"/>
<path d="M79.1928 32.3846H86.7074C86.8607 32.3846 87.0078 32.445 87.1162 32.5525C87.2246 32.6599 87.2855 32.8057 87.2855 32.9577V35.2504C87.2855 35.4024 87.2246 35.5482 87.1162 35.6557C87.0078 35.7632 86.8607 35.8236 86.7074 35.8236H75.4355C75.2822 35.8236 75.1351 35.7632 75.0267 35.6557C74.9183 35.5482 74.8574 35.4024 74.8574 35.2504V15.7626C74.8574 15.6106 74.9183 15.4648 75.0267 15.3573C75.1351 15.2498 75.2822 15.1895 75.4355 15.1895H86.1294C86.2827 15.1895 86.4297 15.2498 86.5381 15.3573C86.6465 15.4648 86.7074 15.6106 86.7074 15.7626V18.0553C86.7074 18.2073 86.6465 18.3531 86.5381 18.4606C86.4297 18.5681 86.2827 18.6285 86.1294 18.6285H79.1928C79.0395 18.6285 78.8925 18.6889 78.784 18.7964C78.6756 18.9038 78.6147 19.0496 78.6147 19.2016V23.2138C78.6147 23.3659 78.6756 23.5116 78.784 23.6191C78.8925 23.7266 79.0395 23.787 79.1928 23.787H85.2623C85.4156 23.787 85.5626 23.8474 85.671 23.9549C85.7794 24.0624 85.8403 24.2082 85.8403 24.3602V26.6529C85.8403 26.8049 85.7794 26.9507 85.671 27.0582C85.5626 27.1657 85.4156 27.226 85.2623 27.226H79.1928C79.0395 27.226 78.8925 27.2864 78.784 27.3939C78.6756 27.5014 78.6147 27.6472 78.6147 27.7992V31.8114C78.6147 31.9634 78.6756 32.1092 78.784 32.2167C78.8925 32.3242 79.0395 32.3846 79.1928 32.3846Z" fill="#718389"/>
<path d="M94.5112 27.1908L94.465 35.2725C94.4573 35.6393 94.2723 35.8227 93.9101 35.8227H91.332C90.9466 35.8227 90.7539 35.6317 90.7539 35.2496V15.7732C90.7539 15.3911 90.9466 15.2001 91.332 15.2001C96.1991 15.1771 108.477 13.5379 104.257 23.4766C104.111 23.8053 104.142 24.1148 104.35 24.4052C110.327 32.8079 99.3322 40.5915 95.4361 32.8308C95.1586 32.2958 95.3205 32.0895 95.9217 32.2118C97.5402 32.5404 99.1857 32.4831 100.858 32.0398C101.37 31.9085 101.829 31.6271 102.177 31.2325C102.524 30.838 102.744 30.3485 102.806 29.8283C102.869 29.3081 102.771 28.7813 102.527 28.3168C102.282 27.8524 101.902 27.4719 101.436 27.2252C99.4632 26.1629 97.309 25.9489 94.9737 26.5832C94.6654 26.6673 94.5112 26.8698 94.5112 27.1908ZM94.5112 19.0632V22.4335C94.5112 22.5581 94.5612 22.6777 94.6501 22.7658C94.7389 22.8539 94.8595 22.9035 94.9852 22.9035H99.2281C99.4771 22.9035 99.7237 22.8511 99.9538 22.7492C100.184 22.6472 100.393 22.4978 100.569 22.3094C100.745 22.121 100.885 21.8972 100.98 21.651C101.075 21.4048 101.124 21.1409 101.124 20.8744V20.6222C101.124 20.0842 100.924 19.5682 100.569 19.1877C100.213 18.8072 99.7309 18.5934 99.2281 18.5932H94.9852C94.8595 18.5932 94.7389 18.6427 94.6501 18.7309C94.5612 18.819 94.5112 18.9386 94.5112 19.0632Z" fill="#718389"/>
<path d="M113.009 19.087V23.3285C113.009 23.4501 113.058 23.5667 113.145 23.6527C113.231 23.7387 113.349 23.787 113.472 23.787H119.772C119.895 23.787 120.013 23.8353 120.099 23.9213C120.186 24.0073 120.235 24.1239 120.235 24.2456V26.7675C120.235 26.8891 120.186 27.0057 120.099 27.0917C120.013 27.1777 119.895 27.226 119.772 27.226H113.472C113.349 27.226 113.231 27.2743 113.145 27.3603C113.058 27.4463 113.009 27.563 113.009 27.6846V31.926C113.009 32.0476 113.058 32.1643 113.145 32.2503C113.231 32.3363 113.349 32.3846 113.472 32.3846H121.218C121.34 32.3846 121.458 32.4329 121.545 32.5189C121.631 32.6049 121.68 32.7215 121.68 32.8431V35.3651C121.68 35.4867 121.631 35.6033 121.545 35.6893C121.458 35.7753 121.34 35.8236 121.218 35.8236H109.714C109.592 35.8236 109.474 35.7753 109.387 35.6893C109.301 35.6033 109.252 35.4867 109.252 35.3651V15.648C109.252 15.5264 109.301 15.4097 109.387 15.3238C109.474 15.2378 109.592 15.1895 109.714 15.1895H120.64C120.762 15.1895 120.88 15.2378 120.967 15.3238C121.053 15.4097 121.102 15.5264 121.102 15.648V18.1699C121.102 18.2916 121.053 18.4082 120.967 18.4942C120.88 18.5802 120.762 18.6285 120.64 18.6285H113.472C113.349 18.6285 113.231 18.6768 113.145 18.7628C113.058 18.8488 113.009 18.9654 113.009 19.087Z" fill="#718389"/>
<path d="M130.143 26.1592C130.062 26.086 129.961 26.0377 129.853 26.0201C129.745 26.0025 129.634 26.0164 129.534 26.0601C129.433 26.1037 129.348 26.1753 129.288 26.2662C129.228 26.357 129.195 26.4632 129.195 26.5718V35.2497C129.195 35.6318 129.002 35.8228 128.617 35.8228H126.016C125.63 35.8228 125.438 35.6318 125.438 35.2497V15.7733C125.438 15.3912 125.63 15.2001 126.016 15.2001C131.507 15.1543 140.212 13.4921 140.131 22.0897C140.085 26.5757 137.819 28.7652 133.334 28.6582C133.059 28.6512 132.796 28.5452 132.594 28.3601L130.143 26.1592ZM129.195 18.834V24.9784C129.195 25.0423 129.22 25.1035 129.266 25.1487C129.311 25.1938 129.373 25.2192 129.438 25.2192H133.6C133.968 25.2192 134.334 25.1385 134.675 24.9818C135.015 24.8251 135.325 24.5954 135.586 24.3059C135.847 24.0164 136.054 23.6726 136.195 23.2943C136.336 22.916 136.409 22.5106 136.409 22.1011V21.7114C136.409 21.3019 136.336 20.8964 136.195 20.5181C136.054 20.1398 135.847 19.7961 135.586 19.5066C135.325 19.217 135.015 18.9874 134.675 18.8307C134.334 18.674 133.968 18.5933 133.6 18.5933H129.438C129.373 18.5933 129.311 18.6187 129.266 18.6638C129.22 18.709 129.195 18.7702 129.195 18.834Z" fill="#718389"/>
<path d="M151.218 30.9512H145.761C145.352 30.9512 145.086 31.1461 144.963 31.5358L143.842 35.2156C143.718 35.6206 143.445 35.8232 143.021 35.8232H140.801C140.231 35.8232 140.034 35.5557 140.211 35.0207L146.293 16.3468C146.416 15.9647 146.663 15.6972 147.032 15.5444C149.429 14.5356 150.882 15.0171 151.391 16.9888C152.963 23.0414 155.322 29.0827 157.206 35.0436C157.368 35.5633 157.175 35.8232 156.628 35.8232H154.027C153.595 35.8232 153.318 35.6206 153.194 35.2156L152.061 31.5702C151.93 31.1575 151.649 30.9512 151.218 30.9512ZM146.408 26.9734C146.388 27.031 146.382 27.0925 146.391 27.1528C146.399 27.2131 146.421 27.2707 146.456 27.3208C146.491 27.371 146.537 27.4124 146.591 27.4416C146.645 27.4708 146.705 27.4872 146.767 27.4893L150.2 27.5236C150.262 27.5246 150.324 27.5109 150.379 27.4838C150.435 27.4567 150.483 27.417 150.52 27.3678C150.558 27.3186 150.583 27.2614 150.593 27.2008C150.604 27.1402 150.6 27.078 150.582 27.0193L148.928 21.8951C148.905 21.815 148.856 21.7445 148.789 21.6939C148.723 21.6433 148.641 21.6153 148.557 21.614C148.473 21.6127 148.391 21.6382 148.322 21.6868C148.254 21.7353 148.203 21.8043 148.177 21.8836L146.408 26.9734Z" fill="#718389"/>
<path d="M167.531 21.7348L163.172 35.2387C163.049 35.6285 162.779 35.8234 162.363 35.8234H160.166C160.069 35.8223 159.974 35.7988 159.887 35.7546C159.801 35.7104 159.726 35.6468 159.669 35.5689C159.611 35.4909 159.573 35.4008 159.557 35.3057C159.541 35.2105 159.548 35.113 159.577 35.0209L165.623 16.6107C165.793 16.0898 166.126 15.6358 166.572 15.3138C167.019 14.9918 167.557 14.8184 168.109 14.8184C168.661 14.8184 169.199 14.9918 169.646 15.3138C170.092 15.6358 170.424 16.0898 170.594 16.6107L176.606 34.9865C176.637 35.0824 176.645 35.1842 176.629 35.2835C176.612 35.3829 176.573 35.4771 176.513 35.5586C176.454 35.64 176.375 35.7064 176.285 35.7524C176.195 35.7984 176.095 35.8227 175.993 35.8234H173.369C172.938 35.8234 172.656 35.6208 172.525 35.2158L168.259 21.7348C168.235 21.6579 168.187 21.5906 168.121 21.5428C168.056 21.495 167.976 21.4693 167.895 21.4693C167.814 21.4693 167.734 21.495 167.669 21.5428C167.603 21.5906 167.555 21.6579 167.531 21.7348Z" fill="#718389"/>
<path d="M184.617 24.9101C184.589 24.8313 184.534 24.7646 184.462 24.7209C184.39 24.6773 184.305 24.6593 184.222 24.67C184.138 24.6807 184.061 24.7195 184.002 24.7798C183.944 24.8401 183.908 24.9184 183.901 25.0018L183.022 34.952C182.991 35.2501 182.837 35.4602 182.56 35.5825C181.226 36.148 180.267 36.106 179.681 35.4564C179.303 35.0361 179.168 34.3215 179.276 33.3127C179.885 27.581 180.348 22.1627 180.664 17.0576C180.696 16.5303 180.91 16.0299 181.27 15.6404C181.629 15.2508 182.113 14.9957 182.64 14.9178C183.167 14.8399 183.705 14.9439 184.164 15.2124C184.623 15.4809 184.975 15.8976 185.161 16.3927L190.224 29.782C190.486 30.4698 190.745 30.4698 190.999 29.782L196.086 16.3698C196.271 15.8915 196.614 15.4895 197.059 15.2291C197.504 14.9688 198.025 14.8654 198.537 14.9358C199.049 15.0062 199.522 15.2463 199.879 15.617C200.235 15.9876 200.455 16.4671 200.502 16.9774L202.063 34.9062C202.072 35.0233 202.058 35.1411 202.02 35.2522C201.982 35.3633 201.921 35.4651 201.842 35.5514C201.762 35.6376 201.666 35.7063 201.559 35.7531C201.452 35.7999 201.336 35.8238 201.219 35.8232H198.895C198.533 35.8232 198.333 35.6436 198.294 35.2844L197.323 25.231C197.246 24.4209 197.065 24.3942 196.78 25.1508L193.311 34.4132C193.113 34.9454 192.755 35.4043 192.285 35.7277C191.815 36.0511 191.257 36.2232 190.685 36.2207C190.113 36.2182 189.555 36.0412 189.088 35.7137C188.621 35.3862 188.267 34.9242 188.074 34.3903L184.617 24.9101Z" fill="#718389"/>
<path d="M215.092 30.9507H209.531C209.115 30.9507 208.853 31.1494 208.745 31.5468L207.75 35.0776C207.612 35.5743 207.28 35.8227 206.756 35.8227H204.652C204.105 35.8227 203.916 35.5628 204.086 35.0432L210.039 16.5985C210.212 16.0668 210.549 15.603 211.004 15.2739C211.459 14.9449 212.008 14.7676 212.571 14.7676C213.134 14.7676 213.683 14.9449 214.138 15.2739C214.593 15.603 214.931 16.0668 215.103 16.5985L221.034 35.0661C221.196 35.5705 221.011 35.8227 220.479 35.8227H217.901C217.469 35.8227 217.192 35.6202 217.069 35.2151L215.936 31.5698C215.805 31.1571 215.523 30.9507 215.092 30.9507ZM212.722 21.6768C212.697 21.5999 212.649 21.5326 212.583 21.4848C212.518 21.4371 212.439 21.4113 212.357 21.4113C212.276 21.4113 212.197 21.4371 212.131 21.4848C212.066 21.5326 212.017 21.5999 211.993 21.6768L210.386 27.0302C210.37 27.0858 210.368 27.1443 210.378 27.2011C210.388 27.258 210.412 27.3117 210.446 27.3582C210.481 27.4046 210.526 27.4427 210.578 27.4693C210.629 27.4959 210.686 27.5104 210.745 27.5117H213.936C213.995 27.5122 214.053 27.4989 214.106 27.4731C214.16 27.4472 214.206 27.4094 214.242 27.3627C214.278 27.316 214.302 27.2616 214.313 27.2039C214.324 27.1462 214.322 27.0867 214.305 27.0302L212.722 21.6768Z" fill="#718389"/>
<path d="M237 27.8679V31.5935C234.573 36.9928 227.659 35.8694 223.22 35.8235C223.145 35.8225 223.072 35.803 223.006 35.7668C222.941 35.7307 222.886 35.6791 222.846 35.6165C222.806 35.554 222.782 35.4826 222.777 35.4086C222.771 35.3347 222.784 35.2606 222.815 35.1931L223.809 33.0265C223.994 32.6367 224.306 32.4342 224.746 32.4189C227.127 32.3501 231.925 33.2213 233.151 30.6077C233.32 30.244 233.394 29.8439 233.367 29.4444C233.34 29.0449 233.212 28.6588 232.996 28.3218C232.779 27.9848 232.481 27.7078 232.128 27.5162C231.775 27.3247 231.379 27.2249 230.977 27.226H225.289C224.811 27.226 224.572 26.9891 224.572 26.5152V24.3601C224.572 23.978 224.765 23.787 225.15 23.787H229.856C230.258 23.7866 230.646 23.6352 230.942 23.3628C232.153 22.247 232.43 20.9096 231.775 19.3506C231.682 19.1362 231.529 18.9534 231.333 18.825C231.138 18.6967 230.91 18.6283 230.677 18.6284H224.572C224.187 18.6284 223.994 18.4374 223.994 18.0552V15.8313C223.994 15.3881 224.218 15.1703 224.665 15.1779C230.214 15.2811 239.197 14.6391 235.185 23.9704C235.047 24.299 235.07 24.62 235.255 24.9333L237 27.8679Z" fill="#718389"/>
</svg>
