<svg width="222" height="110" viewBox="0 0 222 110" fill="none" xmlns="http://www.w3.org/2000/svg">
<path d="M69.4316 70.6221H83.2335V75.1317H76.6679V106.818H69.4316V70.6221Z" fill="#718389"/>
<path d="M91.4159 93.2297L92.656 75.1317H93.0714L94.3115 93.2297H91.4159ZM83.4023 106.818H90.4872L91.1578 97.2053H94.5697L95.2431 106.818H102.325L98.5512 70.6221H87.1762L83.4023 106.818Z" fill="#718389"/>
<path d="M112.688 94.1494V100.973C112.688 101.893 113.4 102.16 113.816 102.16C114.498 102.16 114.973 101.596 114.973 100.973V92.5473C114.973 91.4199 114.765 90.1738 112.065 90.1738H109.128V86.1982H112.184C114.231 86.1982 114.973 85.7235 114.973 83.4983V76.3185C114.973 75.6954 114.498 75.1317 113.816 75.1317C113.4 75.1317 112.688 75.3691 112.688 76.3185V82.2226H105.449V77.0899C105.449 74.568 105.746 70.6221 110.819 70.6221H116.812C121.886 70.6221 122.212 74.568 122.212 77.0899V82.8753C122.212 86.8212 119.453 87.8893 117.287 87.8003V88.1563C122.153 88.0376 122.212 91.7759 122.212 93.0517V100.35C122.212 102.902 121.886 106.818 116.812 106.818H110.819C105.746 106.818 105.449 102.902 105.449 100.35V94.1494H112.688Z" fill="#718389"/>
<path d="M126.959 70.6221H143.722V106.818H136.483V75.1317H134.198V106.818H126.959V70.6221Z" fill="#718389"/>
<path d="M155.708 90.5298V75.1317H156.657C157.429 75.1317 157.992 75.7844 157.992 76.9415V88.72C157.992 89.8771 157.429 90.5298 156.657 90.5298H155.708ZM148.469 106.818H155.708V94.5054H159.862C164.905 94.5054 165.232 90.5892 165.232 88.0376V77.0899C165.232 74.568 164.905 70.6221 159.862 70.6221H148.469V106.818Z" fill="#718389"/>
<path d="M179.504 100.973C179.504 101.596 179.029 102.16 178.347 102.16C177.932 102.16 177.22 101.893 177.22 100.973V76.3185C177.22 75.3691 177.932 75.1317 178.347 75.1317C179.029 75.1317 179.504 75.6954 179.504 76.3185V100.973ZM169.98 100.35C169.98 102.902 170.307 106.818 175.351 106.818H181.373C186.417 106.818 186.743 102.902 186.743 100.35V77.0899C186.743 74.568 186.417 70.6221 181.373 70.6221H175.351C170.307 70.6221 169.98 74.568 169.98 77.0899V100.35Z" fill="#718389"/>
<path d="M210.298 70.6221H219.733V106.818H212.494V84.1214H212.227L208.488 106.818H202.703L198.994 84.1214H198.727V106.818H191.488V70.6221H200.893L205.611 96.0779L210.298 70.6221Z" fill="#718389"/>
<path d="M60.0507 21.1359C57.8344 11.4342 52.2805 3.54236 51.515 2.2666C50.3045 4.0764 45.875 11.0485 43.6231 18.7624C41.1636 27.396 40.8016 35.0506 41.6501 42.5568C42.4927 50.0926 45.6762 57.8362 45.6762 57.8362C47.3673 61.8711 49.901 66.2325 51.5506 68.3686C53.9686 65.2237 59.5256 55.8484 61.2582 43.6249C62.2225 36.801 62.264 30.8376 60.0507 21.1359ZM51.515 65.9358C50.4262 63.8886 48.735 60.002 48.5748 53.9496C48.5333 48.1345 50.8682 43.1205 51.5506 42.0821C52.1588 43.1205 54.1703 47.4818 54.4107 53.4452C54.5739 59.2603 52.6395 63.8589 51.515 65.9358ZM59.4069 37.6021C59.3238 41.3107 58.8817 45.227 58.318 47.5708C58.5198 43.5359 58.0362 37.8691 57.1105 33.4188C56.1849 28.9981 53.5651 21.581 51.4735 18.1691C49.542 21.4326 47.1626 27.8411 45.9165 33.3891C44.6645 38.9372 44.6289 45.672 44.6289 47.6895C44.2966 45.9984 43.4659 39.9163 43.7002 33.8342C43.8961 28.8201 45.0709 23.6281 45.7148 21.2546C48.1713 13.3331 50.9513 8.25969 51.4735 7.45862C51.9956 8.25969 55.4966 14.5198 57.3123 21.0766C59.1191 27.6334 59.484 33.9232 59.4069 37.6021Z" fill="#02222D"/>
<path d="M55.2739 70.6238H38.425V81.9276C38.4398 81.9276 38.4517 81.898 38.4665 81.898C42.4362 77.9224 48.8743 77.9224 52.847 81.898C56.8166 85.8439 56.8166 92.2821 52.847 96.2577C52.8292 96.2873 52.8114 96.2873 52.7936 96.317C52.7728 96.317 52.752 96.3467 52.7342 96.3764C48.7734 100.293 43.5992 102.251 38.425 102.251C33.227 102.251 28.029 100.293 24.0653 96.317C17.0753 89.3448 16.2476 78.5157 21.5761 70.6238C22.2941 69.5558 23.1218 68.547 24.0653 67.5976C28.029 63.622 33.227 61.6639 38.425 61.6639V34.4873C18.452 34.4873 2.26172 50.6568 2.26172 70.6238C2.26172 90.5909 18.452 106.79 38.425 106.79C48.8387 106.79 58.22 102.369 64.8183 95.3379V70.6238H55.2739Z" fill="#02222D"/>
</svg>
