<svg width="107" height="104" viewBox="0 0 107 104" fill="none" xmlns="http://www.w3.org/2000/svg">
<path fill-rule="evenodd" clip-rule="evenodd" d="M53.1908 8.71L73.1608 59.43H76.5908L53.1908 0L29.8008 59.43H33.2208L53.1908 8.71Z" fill="#02222D"/>
<path fill-rule="evenodd" clip-rule="evenodd" d="M7.08 89.8904H5.74L1.12 101.16H0V103.5H1.24V102.28H11.59V103.5H12.83V101.16H11.71L7.09 89.8904H7.08ZM2.46 101.16L6.41 91.4804L10.36 101.16H2.46ZM19.76 89.6704C19.02 89.6704 18.32 89.7804 17.66 89.9804C17 90.1904 16.4 90.4804 15.85 90.8604C15.31 91.2404 14.83 91.7004 14.44 92.2304C14.04 92.7604 13.74 93.3504 13.52 94.0104C13.3 94.6604 13.19 95.3604 13.19 96.1104C13.19 96.8604 13.3 97.5504 13.52 98.2004C13.74 98.8504 14.05 99.4404 14.45 99.9604C14.85 100.48 15.32 100.94 15.87 101.31C16.42 101.69 17.02 101.98 17.67 102.18C18.33 102.38 19.02 102.48 19.75 102.49C20.49 102.49 21.19 102.38 21.85 102.17C22.51 101.96 23.11 101.67 23.65 101.28C24.19 100.9 24.67 100.43 25.06 99.9004C25.46 99.3604 25.77 98.7704 25.98 98.1104C26.2 97.4504 26.31 96.7504 26.31 96.0104C26.31 95.2704 26.2 94.5804 25.98 93.9404C25.77 93.3004 25.46 92.7104 25.06 92.1904C24.66 91.6704 24.19 91.2204 23.65 90.8404C23.11 90.4704 22.5 90.1804 21.84 89.9804C21.18 89.7804 20.48 89.6804 19.74 89.6704H19.76ZM19.78 101.37C19.03 101.37 18.33 101.24 17.69 100.99C17.05 100.74 16.48 100.38 15.99 99.9104C15.5 99.4404 15.13 98.8904 14.85 98.2504C14.58 97.6104 14.44 96.9004 14.43 96.1204C14.43 95.3504 14.57 94.6404 14.84 93.9904C15.11 93.3404 15.48 92.7804 15.97 92.3004C16.45 91.8204 17.02 91.4504 17.66 91.1904C18.31 90.9304 19.01 90.7904 19.77 90.7904C20.52 90.7904 21.22 90.9204 21.86 91.1704C22.5 91.4204 23.06 91.7804 23.55 92.2404C24.03 92.7004 24.41 93.2504 24.67 93.8904C24.94 94.5304 25.08 95.2304 25.08 96.0104C25.08 96.7904 24.94 97.5004 24.68 98.1504C24.41 98.8004 24.04 99.3704 23.56 99.8504C23.08 100.33 22.52 100.7 21.88 100.97C21.24 101.23 20.54 101.37 19.78 101.37ZM27.84 102.27H29.08V97.3004H31.76C32.38 97.3004 32.93 97.2304 33.41 97.0904C33.88 96.9604 34.29 96.7704 34.62 96.5304C34.95 96.2904 35.23 96.0104 35.43 95.7004C35.64 95.3804 35.79 95.0504 35.89 94.6904C35.98 94.3304 36.03 93.9704 36.03 93.6004C36.03 93.3204 36 93.0104 35.94 92.6704C35.87 92.3404 35.75 92.0104 35.58 91.6804C35.41 91.3504 35.16 91.0604 34.84 90.7804C34.52 90.5104 34.11 90.2904 33.61 90.1304C33.11 89.9704 32.49 89.8804 31.77 89.8804H27.85V102.27H27.84ZM29.08 91.0004H31.78C32.33 91.0004 32.8 91.0804 33.18 91.2204C33.57 91.3604 33.87 91.5604 34.11 91.8004C34.35 92.0404 34.52 92.3204 34.63 92.6304C34.74 92.9404 34.79 93.2604 34.79 93.5904C34.79 93.9204 34.74 94.2304 34.63 94.5404C34.52 94.8504 34.35 95.1204 34.11 95.3704C33.87 95.6204 33.56 95.8104 33.18 95.9604C32.79 96.1004 32.33 96.1804 31.78 96.1804H29.08V91.0104V91.0004ZM43.33 89.6604C42.59 89.6604 41.89 89.7704 41.23 89.9704C40.57 90.1804 39.97 90.4704 39.42 90.8504C38.88 91.2304 38.4 91.6904 38.01 92.2204C37.61 92.7504 37.31 93.3404 37.09 94.0004C36.87 94.6504 36.76 95.3504 36.76 96.1004C36.76 96.8504 36.87 97.5404 37.09 98.1904C37.31 98.8404 37.62 99.4304 38.02 99.9504C38.42 100.47 38.89 100.93 39.44 101.3C39.99 101.68 40.59 101.97 41.24 102.17C41.9 102.37 42.59 102.47 43.32 102.48C44.06 102.48 44.76 102.37 45.42 102.16C46.08 101.95 46.68 101.66 47.22 101.27C47.76 100.89 48.24 100.42 48.63 99.8904C49.03 99.3504 49.34 98.7604 49.55 98.1004C49.77 97.4404 49.88 96.7404 49.88 96.0004C49.88 95.2604 49.77 94.5704 49.55 93.9304C49.34 93.2904 49.03 92.7004 48.63 92.1804C48.23 91.6604 47.76 91.2104 47.22 90.8304C46.68 90.4604 46.07 90.1704 45.41 89.9704C44.75 89.7704 44.05 89.6704 43.31 89.6604H43.33ZM43.35 101.36C42.6 101.36 41.9 101.23 41.26 100.98C40.62 100.73 40.05 100.37 39.56 99.9004C39.07 99.4304 38.7 98.8804 38.42 98.2404C38.15 97.6004 38.01 96.8904 38 96.1104C38 95.3404 38.14 94.6304 38.41 93.9804C38.68 93.3304 39.05 92.7704 39.54 92.2904C40.02 91.8104 40.59 91.4404 41.23 91.1804C41.88 90.9204 42.58 90.7804 43.34 90.7804C44.09 90.7804 44.79 90.9104 45.43 91.1604C46.07 91.4104 46.63 91.7704 47.12 92.2304C47.6 92.6904 47.98 93.2404 48.24 93.8804C48.51 94.5204 48.65 95.2204 48.65 96.0004C48.65 96.7804 48.51 97.4904 48.25 98.1404C47.98 98.7904 47.61 99.3604 47.13 99.8404C46.65 100.32 46.09 100.69 45.45 100.96C44.81 101.22 44.11 101.36 43.35 101.36ZM51.41 102.26H52.65V90.9904H57.76V89.8704H51.41V102.26ZM64.69 89.6504C63.95 89.6504 63.25 89.7604 62.59 89.9604C61.93 90.1704 61.33 90.4604 60.79 90.8404C60.25 91.2204 59.77 91.6804 59.38 92.2104C58.98 92.7404 58.68 93.3304 58.46 93.9904C58.24 94.6404 58.13 95.3404 58.13 96.0904C58.13 96.8404 58.24 97.5304 58.46 98.1804C58.68 98.8304 58.99 99.4204 59.39 99.9404C59.79 100.46 60.26 100.92 60.81 101.29C61.36 101.67 61.96 101.96 62.61 102.16C63.27 102.36 63.96 102.46 64.69 102.47C65.43 102.47 66.13 102.36 66.79 102.15C67.45 101.94 68.05 101.65 68.59 101.26C69.13 100.88 69.61 100.41 70 99.8804C70.4 99.3404 70.71 98.7504 70.92 98.0904C71.14 97.4304 71.25 96.7304 71.25 95.9904C71.25 95.2504 71.14 94.5604 70.92 93.9204C70.71 93.2804 70.4 92.6904 70 92.1704C69.6 91.6504 69.13 91.2004 68.59 90.8204C68.05 90.4504 67.44 90.1604 66.78 89.9604C66.12 89.7604 65.42 89.6604 64.68 89.6504H64.69ZM64.71 101.35C63.96 101.35 63.26 101.22 62.62 100.97C61.98 100.72 61.41 100.36 60.92 99.8904C60.43 99.4204 60.05 98.8704 59.78 98.2304C59.51 97.5904 59.37 96.8804 59.36 96.1004C59.36 95.3304 59.5 94.6204 59.77 93.9704C60.04 93.3204 60.41 92.7604 60.9 92.2804C61.38 91.8004 61.95 91.4304 62.59 91.1704C63.24 90.9104 63.94 90.7704 64.7 90.7704C65.45 90.7704 66.15 90.9004 66.79 91.1504C67.43 91.4004 67.99 91.7604 68.48 92.2204C68.96 92.6804 69.34 93.2304 69.6 93.8704C69.87 94.5104 70.01 95.2104 70.01 95.9904C70.01 96.7704 69.87 97.4804 69.61 98.1304C69.34 98.7804 68.97 99.3504 68.49 99.8304C68.01 100.31 67.45 100.68 66.81 100.95C66.17 101.21 65.47 101.35 64.71 101.35ZM72.77 89.8604V102.25H76.85C77.43 102.25 77.97 102.16 78.45 101.99C78.93 101.82 79.35 101.57 79.7 101.25C80.05 100.93 80.32 100.55 80.51 100.1C80.7 99.6604 80.79 99.1604 80.8 98.6204C80.8 98.5104 80.8 98.3504 80.77 98.1304C80.75 97.9204 80.7 97.6704 80.62 97.4004C80.54 97.1304 80.42 96.8504 80.25 96.5704C80.08 96.2904 79.85 96.0304 79.57 95.7904C79.28 95.5504 78.91 95.3604 78.47 95.2104C78.03 95.0604 77.49 94.9904 76.86 94.9804H74.01V90.9804H79.5V89.8604H72.77ZM74.01 96.1104H76.87C77.3 96.1104 77.67 96.1704 77.98 96.2804C78.29 96.3904 78.54 96.5404 78.75 96.7204C78.95 96.9004 79.12 97.1004 79.23 97.3304C79.35 97.5504 79.43 97.7704 79.48 98.0004C79.53 98.2304 79.55 98.4404 79.55 98.6304C79.55 98.8204 79.53 99.0304 79.48 99.2604C79.43 99.4804 79.35 99.7104 79.23 99.9304C79.11 100.15 78.95 100.35 78.75 100.54C78.55 100.72 78.29 100.87 77.98 100.98C77.67 101.09 77.3 101.15 76.87 101.15H74.01V96.1304V96.1104ZM91.09 89.8604H89.8L86.32 97.6804L82.28 89.8604H80.87L85.64 99.0204L84.18 102.25H85.47L91.08 89.8604H91.09ZM97.8 89.8604V102.25H99.04V89.8604H97.8ZM97.25 95.7904L92.65 89.8604H91.18L95.75 95.6704L90.81 102.25H92.35L97.26 95.7904H97.25ZM99.59 95.7904L104.5 102.25H106.04L101.1 95.6704L105.67 89.8604H104.2L99.6 95.7904H99.59Z" fill="#718389"/>
<path fill-rule="evenodd" clip-rule="evenodd" d="M68.7597 59.4303L57.6397 31.0303H48.7197L37.5997 59.4303H29.6797C29.7797 73.1403 40.3397 84.3003 53.1597 84.3003H53.1997C66.0297 84.3003 76.5897 73.1403 76.6797 59.4303H68.7597ZM53.1797 40.9203L60.4197 59.4303H45.9397L53.1797 40.9203ZM53.1797 67.8503H63.5597C63.2697 72.0603 58.7597 75.4803 53.2797 75.4803H53.0697C47.5897 75.4803 43.0797 72.0603 42.7897 67.8503H53.1697H53.1797Z" fill="#718389"/>
<path d="M81.0802 84.2802C81.5702 84.2802 82.0302 84.2002 82.4702 84.0502C82.9102 83.9002 83.3102 83.6902 83.6802 83.4202C84.0402 83.1502 84.3601 82.8302 84.6301 82.4602C84.9002 82.0902 85.1002 81.6902 85.2502 81.2502C85.4002 80.8102 85.4702 80.3402 85.4702 79.8602C85.4702 79.3702 85.3902 78.9102 85.2502 78.4702C85.1002 78.0302 84.8902 77.6202 84.6301 77.2602C84.3601 76.8902 84.0502 76.5702 83.6802 76.3002C83.3102 76.0302 82.9102 75.8202 82.4702 75.6702C82.0302 75.5202 81.5702 75.4502 81.0802 75.4502C80.5902 75.4502 80.1302 75.5302 79.6902 75.6802C79.2502 75.8302 78.8502 76.0402 78.4802 76.3102C78.1102 76.5802 77.7901 76.9002 77.5201 77.2702C77.2501 77.6402 77.0402 78.0402 76.8902 78.4802C76.7402 78.9202 76.6602 79.3802 76.6602 79.8702C76.6602 80.3602 76.7402 80.8202 76.8902 81.2602C77.0402 81.7002 77.2501 82.1002 77.5201 82.4702C77.7901 82.8402 78.1102 83.1602 78.4802 83.4302C78.8502 83.7002 79.2502 83.9102 79.6902 84.0602C80.1302 84.2102 80.6002 84.2902 81.0802 84.2902V84.2802ZM81.0802 83.7502C80.6502 83.7502 80.2402 83.6802 79.8502 83.5502C79.4602 83.4202 79.1002 83.2402 78.7802 83.0002C78.4502 82.7602 78.1802 82.4902 77.9402 82.1602C77.7002 81.8402 77.5202 81.4802 77.3902 81.0902C77.2602 80.7002 77.1902 80.2902 77.1902 79.8602C77.1902 79.4302 77.2602 79.0202 77.3902 78.6302C77.5202 78.2402 77.7002 77.8902 77.9402 77.5602C78.1802 77.2402 78.4602 76.9602 78.7802 76.7202C79.1002 76.4802 79.4602 76.3002 79.8502 76.1702C80.2402 76.0402 80.6502 75.9802 81.0802 75.9702C81.5102 75.9702 81.9202 76.0402 82.3102 76.1702C82.7002 76.3002 83.0502 76.4802 83.3702 76.7202C83.6902 76.9602 83.9701 77.2402 84.2001 77.5602C84.4301 77.8902 84.6202 78.2402 84.7502 78.6302C84.8802 79.0202 84.9401 79.4302 84.9501 79.8602C84.9501 80.2902 84.8802 80.7002 84.7502 81.0902C84.6202 81.4802 84.4401 81.8402 84.2001 82.1602C83.9701 82.4902 83.6902 82.7602 83.3702 83.0002C83.0502 83.2402 82.7002 83.4202 82.3102 83.5502C81.9202 83.6802 81.5102 83.7502 81.0802 83.7502ZM79.5602 82.3302H80.1402V77.9302H81.0201C81.3201 77.9302 81.5602 77.9602 81.7502 78.0202C81.9402 78.0802 82.0901 78.1602 82.2001 78.2602C82.3101 78.3602 82.3802 78.4702 82.4302 78.6002C82.4702 78.7202 82.4902 78.8502 82.4902 78.9702C82.4902 79.0802 82.4802 79.2002 82.4402 79.3202C82.4002 79.4402 82.3302 79.5502 82.2302 79.6502C82.1302 79.7502 81.9802 79.8402 81.7902 79.9002C81.6002 79.9602 81.3402 80.0002 81.0302 80.0002H80.5802L82.3102 82.3202H83.0002L81.5901 80.4602C81.8801 80.4502 82.1402 80.3802 82.3602 80.2502C82.5802 80.1202 82.7501 79.9402 82.8801 79.7202C83.0001 79.5002 83.0702 79.2602 83.0702 79.0002C83.0702 78.8702 83.0601 78.7302 83.0201 78.5802C82.9901 78.4302 82.9302 78.2902 82.8502 78.1502C82.7702 78.0102 82.6502 77.8802 82.5102 77.7702C82.3602 77.6502 82.1702 77.5602 81.9402 77.4902C81.7102 77.4202 81.4402 77.3902 81.1102 77.3902H79.5702V82.3202L79.5602 82.3302Z" fill="#718389"/>
</svg>
