<svg width="198" height="72" viewBox="0 0 198 72" fill="none" xmlns="http://www.w3.org/2000/svg">
<g id="Pasted-20230804-234941 1" clip-path="url(#clip0_182_1662)">
<path id="Vector" d="M7.10055 0H11.3701L11.3438 4.51256C11.3438 4.73589 11.2321 4.8585 11.0088 4.8804C8.25004 5.16284 5.09059 4.23668 4.84755 8.24347C4.7556 9.74985 4.73151 11.2759 4.7753 12.8217C4.77968 13.0319 4.88915 13.137 5.10373 13.137H11.0154C11.265 13.137 11.3876 13.264 11.3832 13.518L11.3044 17.5839C11.3 17.7941 11.1949 17.8992 10.9891 17.8992H5.09059C5.00349 17.8992 4.91995 17.9338 4.85836 17.9954C4.79677 18.0569 4.76216 18.1405 4.76216 18.2276V46.4721C4.76216 46.6692 4.66364 46.7633 4.46658 46.7546L0 46.5969V7.18594C0.783841 3.2317 3.15069 0.836389 7.10055 0Z" fill="#718389"/>
<path id="Vector_2" d="M140.559 0.664062H136.29C136.196 0.664062 136.119 0.740524 136.119 0.834844V46.6173C136.119 46.7116 136.196 46.7881 136.29 46.7881H140.559C140.654 46.7881 140.73 46.7116 140.73 46.6173V0.834844C140.73 0.740524 140.654 0.664062 140.559 0.664062Z" fill="#718389"/>
<path id="Vector_3" d="M125.334 11.3046C127.162 11.3046 128.644 9.82247 128.644 7.99412C128.644 6.16577 127.162 4.68359 125.334 4.68359C123.506 4.68359 122.023 6.16577 122.023 7.99412C122.023 9.82247 123.506 11.3046 125.334 11.3046Z" fill="#718389"/>
<path id="Vector_4" d="M150.806 11.2915C152.631 11.2915 154.11 9.81227 154.11 7.98755C154.11 6.16283 152.631 4.68359 150.806 4.68359C148.981 4.68359 147.502 6.16283 147.502 7.98755C147.502 9.81227 148.981 11.2915 150.806 11.2915Z" fill="#718389"/>
<path id="Vector_5" d="M45.5712 44.7191C43.9554 45.9978 42.7227 46.6371 41.8732 46.6371C35.5762 46.6371 29.2813 46.6371 22.9887 46.6371C16.88 46.6306 14.7781 42.1443 14.7781 36.6662C14.7825 32.2302 14.7803 27.7943 14.7715 23.3584C14.7584 16.2775 17.8587 13.3217 24.8673 13.3086C28.988 13.2998 33.1086 13.2976 37.2292 13.302C44.4612 13.302 48.4482 15.2725 48.4417 22.8657C48.4417 28.0548 48.446 33.2418 48.4548 38.4265C48.4614 40.6664 49.4598 41.0671 51.2793 41.9735C51.4982 42.0874 51.6077 42.2669 51.6077 42.5121L51.542 46.4926C51.5376 46.7116 51.4281 46.8101 51.2136 46.7882C49.335 46.5912 47.6688 45.9037 46.2149 44.7257C46.0048 44.5505 45.7902 44.5484 45.5712 44.7191ZM43.6579 21.4259C43.6572 21.0032 43.5732 20.5849 43.4108 20.1946C43.2483 19.8044 43.0106 19.45 42.7113 19.1517C42.4119 18.8533 42.0566 18.6169 41.6659 18.4558C41.2751 18.2947 40.8564 18.2122 40.4337 18.2129L22.7513 18.2438C22.3287 18.2445 21.9103 18.3285 21.5201 18.491C21.1299 18.6534 20.7755 18.8911 20.4771 19.1905C20.1788 19.4899 19.9423 19.8451 19.7813 20.2359C19.6202 20.6267 19.5377 21.0454 19.5384 21.468L19.5684 38.6774C19.5692 39.1001 19.6531 39.5185 19.8156 39.9087C19.978 40.2989 20.2157 40.6533 20.5151 40.9517C20.8145 41.25 21.1697 41.4865 21.5605 41.6476C21.9512 41.8086 22.3699 41.8911 22.7926 41.8904L40.475 41.8595C40.8977 41.8588 41.316 41.7748 41.7063 41.6124C42.0965 41.4499 42.4509 41.2122 42.7492 40.9129C43.0476 40.6135 43.284 40.2582 43.4451 39.8674C43.6061 39.4767 43.6887 39.058 43.6879 38.6353L43.6579 21.4259Z" fill="#718389"/>
<path id="Vector_6" d="M86.4933 15.3521C90.4476 12.0218 100.55 13.2961 105.627 13.2961C109.03 13.2961 111.368 13.5895 112.643 14.1763C116.275 15.8578 117.241 18.9253 117.247 22.9847C117.251 30.8099 117.249 38.6374 117.241 46.4671C117.241 46.6904 117.129 46.8021 116.906 46.8021H112.846C112.618 46.8021 112.505 46.6882 112.505 46.4605C112.478 38.1886 112.461 29.9298 112.452 21.6841C112.445 19.0436 110.915 18.2291 108.426 18.2291C102.987 18.2291 97.5503 18.2269 92.116 18.2225C89.1405 18.2159 88.5296 20.1208 88.523 22.7942C88.5055 30.6414 88.5033 38.4907 88.5164 46.3423C88.5164 46.6488 88.3632 46.8021 88.0566 46.8021H84.1155C83.8659 46.8021 83.7411 46.6794 83.7411 46.4342C83.7543 38.3988 83.7521 30.3764 83.7346 22.3672C83.728 19.8778 82.7821 18.2422 80.1744 18.2356C74.6219 18.2269 69.0715 18.2247 63.5233 18.2291C61.5133 18.2356 59.7924 19.1027 59.7924 21.2243C59.7705 29.597 59.7639 37.9696 59.7727 46.3423C59.7727 46.6488 59.6216 46.8021 59.3195 46.8021H55.3718C55.1266 46.8021 55.0039 46.6794 55.0039 46.4342C55.0127 38.7447 55.0127 31.0661 55.0039 23.3985C54.9908 16.2651 58.0189 13.3224 65.0866 13.3093C70.4334 13.3005 75.7801 13.3005 81.1269 13.3093C82.4362 13.3093 84.0192 13.9968 85.8759 15.3718C86.0861 15.525 86.2919 15.5185 86.4933 15.3521Z" fill="#718389"/>
<path id="Vector_7" d="M130.989 18.3589C129.097 18.7465 128.276 20.1653 128.27 22.103C128.239 30.1866 128.237 38.2943 128.263 46.4261C128.263 46.6757 128.138 46.8005 127.889 46.8005H123.659C123.44 46.8005 123.328 46.6889 123.324 46.4655C123.319 38.8899 123.319 31.312 123.324 23.732C123.324 18.0568 124.913 14.3784 130.799 13.3012C131.18 13.2311 131.37 13.3909 131.37 13.7807V17.8991C131.37 18.1531 131.243 18.3064 130.989 18.3589Z" fill="#718389"/>
<path id="Vector_8" d="M155.839 18.3135C153.816 18.7864 153.165 20.0082 153.152 22.005C153.087 30.1631 153.045 38.3211 153.028 46.4792C153.028 46.6938 152.92 46.8011 152.706 46.8011H148.476C148.239 46.8011 148.121 46.6828 148.121 46.4464C148.121 39.5626 148.116 32.6898 148.108 25.8279C148.095 19.1805 148.495 14.7468 155.53 13.2886C155.955 13.1966 156.167 13.3696 156.167 13.8075V17.8997C156.167 18.123 156.058 18.2609 155.839 18.3135Z" fill="#718389"/>
<path id="Vector_9" d="M197.054 42.2406V46.6744C195.066 46.7401 193.304 46.1029 191.767 44.7629C191.658 44.6664 191.519 44.6125 191.374 44.6113C191.229 44.6101 191.088 44.6617 190.978 44.7564C189.514 46.0175 188.062 46.635 186.006 46.635C181.264 46.635 176.521 46.635 171.779 46.635C164.665 46.635 160.389 45.295 160.192 37.5836C160.069 32.7097 160.08 27.8403 160.225 22.9752C160.428 16.1308 163.424 13.2932 170.163 13.2998C174.599 13.2998 179.035 13.302 183.471 13.3064C191.34 13.313 193.941 16.5184 193.934 24.151C193.934 28.7095 193.932 33.2637 193.928 37.8135C193.928 40.2569 194.795 41.5509 197.054 42.2406ZM188.999 21.3122C188.998 20.9042 188.917 20.5003 188.761 20.1237C188.604 19.747 188.374 19.4049 188.085 19.1169C187.796 18.8289 187.453 18.6006 187.076 18.4451C186.699 18.2896 186.295 18.21 185.887 18.2107L168.126 18.2417C167.718 18.2424 167.314 18.3235 166.937 18.4803C166.56 18.6371 166.218 18.8665 165.93 19.1555C165.642 19.4445 165.414 19.7875 165.259 20.1647C165.103 20.5419 165.024 20.946 165.024 21.354L165.055 38.7868C165.055 39.1948 165.136 39.5987 165.293 39.9753C165.45 40.352 165.679 40.6941 165.968 40.9821C166.257 41.2701 166.6 41.4984 166.978 41.6539C167.355 41.8093 167.759 41.889 168.167 41.8883L185.928 41.8573C186.336 41.8566 186.74 41.7755 187.117 41.6187C187.493 41.4619 187.835 41.2325 188.123 40.9435C188.411 40.6544 188.64 40.3115 188.795 39.9343C188.951 39.5571 189.03 39.1529 189.03 38.7449L188.999 21.3122Z" fill="#718389"/>
<path id="Vector_10" d="M89.772 60.9423C95.5655 57.75 97.0171 67.5043 92.6556 68.634C86.9016 70.1382 87.4205 63.1362 88.2941 60.0096C89.0889 57.1917 91.828 56.3115 94.462 56.259C94.5205 56.257 94.5786 56.2707 94.6301 56.2987C94.6816 56.3267 94.7247 56.368 94.7548 56.4182C94.785 56.4685 94.8012 56.5259 94.8016 56.5846C94.8021 56.6432 94.7869 56.7009 94.7575 56.7516L94.5211 57.1589C94.3985 57.3778 94.2124 57.5004 93.9628 57.5267C91.9528 57.7435 89.3451 58.3609 89.4436 60.7584C89.4524 60.9949 89.5619 61.0562 89.772 60.9423ZM91.4122 67.6535C91.7148 67.6641 92.0172 67.5952 92.3021 67.4509C92.5871 67.3066 92.849 67.0897 93.0729 66.8125C93.2968 66.5353 93.4783 66.2033 93.6071 65.8354C93.7359 65.4675 93.8094 65.0709 93.8234 64.6683C93.8375 64.2657 93.7918 63.865 93.689 63.489C93.5862 63.113 93.4283 62.7691 93.2243 62.477C93.0202 62.1848 92.7741 61.9502 92.5 61.7863C92.2258 61.6225 91.9289 61.5328 91.6263 61.5222C91.3237 61.5116 91.0213 61.5804 90.7364 61.7247C90.4515 61.869 90.1896 62.086 89.9657 62.3632C89.7418 62.6404 89.5602 62.9724 89.4315 63.3403C89.3027 63.7082 89.2292 64.1048 89.2151 64.5074C89.201 64.91 89.2467 65.3107 89.3495 65.6867C89.4523 66.0627 89.6103 66.4065 89.8143 66.6987C90.0183 66.9908 90.2644 67.2255 90.5386 67.3893C90.8128 67.5532 91.1096 67.6429 91.4122 67.6535Z" fill="#718389"/>
<path id="Vector_11" d="M0 67.8388V56.9417L6.1941 56.8497C6.50501 56.8453 6.62543 56.9942 6.55536 57.2964L6.45027 57.7627C6.38896 58.0255 6.22475 58.1546 5.95763 58.1503L1.72752 58.0911C1.42536 58.0868 1.27867 58.2335 1.28743 58.5312L1.36625 61.0141C1.37501 61.29 1.51951 61.4258 1.79977 61.4214C3.85571 61.3951 6.20723 60.8762 6.98889 63.5364C8.4668 68.5219 3.33023 68.6599 0 67.8388ZM1.29399 63.208L1.32027 66.3083C1.32113 66.3825 1.33659 66.4558 1.36577 66.524C1.39496 66.5922 1.43729 66.654 1.49036 66.7059C1.54342 66.7577 1.60618 66.7986 1.67505 66.8262C1.74392 66.8538 1.81754 66.8675 1.89173 66.8667L3.77032 66.847C4.05571 66.8444 4.33795 66.7996 4.60084 66.7153C4.86374 66.6309 5.10212 66.5087 5.30229 66.3555C5.50247 66.2023 5.6605 66.0212 5.76733 65.8226C5.87415 65.624 5.92766 65.4119 5.92479 65.1983L5.91165 64.213C5.90591 63.7838 5.6732 63.3749 5.26448 63.0757C4.85575 62.7766 4.30431 62.6116 3.73091 62.6168L1.85232 62.6366C1.77813 62.6374 1.70484 62.6529 1.63664 62.6821C1.56843 62.7112 1.50664 62.7536 1.45479 62.8066C1.40295 62.8597 1.36206 62.9225 1.33447 62.9913C1.30688 63.0602 1.29313 63.1338 1.29399 63.208Z" fill="#718389"/>
<path id="Vector_12" d="M196.449 56.8189L196.41 56.8185C196.152 56.8163 195.942 57.0232 195.939 57.2808L195.87 65.1758C195.868 65.4334 196.075 65.644 196.333 65.6463L196.372 65.6466C196.63 65.6488 196.84 65.4419 196.842 65.1843L196.911 57.2893C196.914 57.0317 196.707 56.8211 196.449 56.8189Z" fill="#718389"/>
<path id="Vector_13" d="M10.181 68.3205V71.0268C10.181 71.2983 10.0453 71.434 9.77379 71.434H9.11694C8.84107 71.434 8.70313 71.2961 8.70313 71.0202V60.0311C8.70281 59.9216 8.74395 59.816 8.81828 59.7356C8.89261 59.6552 8.99461 59.6059 9.10381 59.5976C9.55484 59.5538 9.8548 59.7158 10.0037 60.0836C10.0956 60.3201 10.2599 60.3924 10.4963 60.3004C12.191 59.6501 14.7396 58.5532 15.6066 60.931C16.8546 64.3466 15.981 70.2714 10.5292 68.0841C10.2971 67.9921 10.181 68.0709 10.181 68.3205ZM11.0349 67.0462L13.4522 67.1316C13.5798 67.136 13.7071 67.1152 13.8268 67.0704C13.9464 67.0255 14.056 66.9575 14.1493 66.8703C14.2427 66.7831 14.3179 66.6783 14.3707 66.562C14.4235 66.4456 14.4529 66.32 14.4571 66.1923L14.5885 62.5337C14.5962 62.3164 14.5547 62.0996 14.4664 61.8955C14.3781 61.6914 14.2447 61.5041 14.0739 61.3443C13.9032 61.1845 13.6983 61.0553 13.471 60.9641C13.2437 60.8729 12.9985 60.8215 12.7493 60.8127L12.1844 60.793C11.9349 60.784 11.6863 60.818 11.4529 60.8931C11.2194 60.9682 11.0056 61.0828 10.8238 61.2305C10.642 61.3781 10.4957 61.5559 10.3933 61.7536C10.2909 61.9513 10.2344 62.165 10.227 62.3826L10.1022 66.0413C10.0933 66.298 10.1865 66.5479 10.3612 66.7362C10.536 66.9245 10.7782 67.036 11.0349 67.0462Z" fill="#718389"/>
<path id="Vector_14" d="M19.0819 64.5874C18.9505 65.4194 19.1738 66.1069 19.7519 66.6499C19.927 66.8119 20.1307 66.8864 20.3627 66.8733L23.7455 66.7025C23.9338 66.6893 24.0696 66.7682 24.1528 66.9389C24.8096 68.2264 20.2051 68.1672 20.0409 68.141C16.4939 67.6352 16.4873 60.2719 20.2379 59.6019C23.0427 59.1027 24.849 60.4493 24.7833 63.3788C24.7702 63.9306 24.4878 64.2064 23.936 64.2064H19.5285C19.2702 64.2064 19.1213 64.3334 19.0819 64.5874ZM19.0753 63.0635H23.1478C23.1931 63.0635 23.2365 63.0455 23.2685 63.0135C23.3006 62.9815 23.3186 62.938 23.3186 62.8927V62.7942C23.3186 62.2524 23.1151 61.7328 22.7529 61.3497C22.3908 60.9666 21.8996 60.7514 21.3874 60.7514H20.8357C20.3235 60.7514 19.8323 60.9666 19.4702 61.3497C19.108 61.7328 18.9045 62.2524 18.9045 62.7942V62.8927C18.9045 62.938 18.9225 62.9815 18.9546 63.0135C18.9866 63.0455 19.03 63.0635 19.0753 63.0635Z" fill="#718389"/>
<path id="Vector_15" d="M31.0752 64.2056H28.1653C28.0131 64.2056 27.8671 64.2656 27.7589 64.3725C27.6507 64.4795 27.589 64.6249 27.5873 64.777L27.5807 67.7985C27.5807 68.0306 27.4647 68.1467 27.2326 68.1467H26.602C26.2736 68.1467 26.1094 67.9825 26.1094 67.654V60.0149C26.1138 59.7696 26.2298 59.6054 26.4575 59.5222C28.0011 58.9573 27.6136 61.4665 27.5676 62.5043C27.5544 62.7627 27.6749 62.8919 27.9289 62.8919H31.7583C32.021 62.8919 32.1458 62.7605 32.1327 62.4978L32.0407 59.936C32.0276 59.6076 32.1852 59.4434 32.5137 59.4434H33.0194C33.3566 59.4434 33.523 59.612 33.5186 59.9492L33.453 67.9825C33.4486 68.5692 33.2143 68.6831 32.7501 68.324C31.9707 67.7285 31.7692 66.8417 32.1458 65.6638C32.1983 65.4957 32.2106 65.3177 32.1816 65.144C32.1527 64.9704 32.0833 64.8059 31.9791 64.664C31.8749 64.5221 31.7388 64.4067 31.5818 64.327C31.4248 64.2474 31.2512 64.2058 31.0752 64.2056Z" fill="#718389"/>
<path id="Vector_16" d="M35.5949 68.2189L35.3978 69.6771C35.3716 69.861 35.2862 70.0077 35.1417 70.1172C33.8214 71.1024 34.1958 67.3584 34.268 67.0431C34.3206 66.8066 34.4673 66.6818 34.7081 66.6687C36.278 66.5899 36.6721 61.2037 36.8429 59.8834C36.8588 59.7637 36.9181 59.6538 37.0099 59.5741C37.1017 59.4944 37.2197 59.4503 37.3421 59.4499L42.2619 59.4434C42.5465 59.4434 42.6889 59.5857 42.6889 59.8703L42.6954 65.5389C42.6954 65.7929 42.7611 66.0272 42.8925 66.2418C43.6019 67.4066 43.6917 68.6765 43.1618 70.0515C43.1234 70.1551 43.0506 70.2419 42.9554 70.2972C42.8603 70.3525 42.7486 70.3731 42.6393 70.3553C42.5299 70.3376 42.4294 70.2827 42.3548 70.1999C42.2801 70.1171 42.2357 70.0113 42.2291 69.9004L42.1568 68.2517C42.1437 67.9627 41.9926 67.8182 41.7036 67.8182H36.0547C35.7832 67.8182 35.6299 67.9518 35.5949 68.2189ZM37.283 66.5111L41.1715 66.8198C41.2071 66.8216 41.242 66.8097 41.2689 66.7864C41.2958 66.7632 41.3127 66.7304 41.3161 66.695L41.3292 66.5768C41.4495 65.0815 41.4797 63.6404 41.4132 62.5693C41.3467 61.4982 41.1889 60.8843 40.9745 60.8622L38.4325 60.6585C38.3259 60.6487 38.2085 60.7854 38.0871 61.0607C37.9656 61.3361 37.8425 61.7447 37.7248 62.2633C37.607 62.7818 37.497 63.4001 37.4009 64.0828C37.3048 64.7654 37.2245 65.4991 37.1648 66.2418L37.1582 66.36C37.1564 66.3781 37.1582 66.3964 37.1635 66.4139C37.1688 66.4313 37.1775 66.4475 37.1891 66.4615C37.2007 66.4756 37.215 66.4872 37.2311 66.4957C37.2472 66.5042 37.2648 66.5094 37.283 66.5111Z" fill="#718389"/>
<path id="Vector_17" d="M46.676 62.8663C49.0538 63.1487 52.3315 62.5444 51.1229 66.5643C50.5317 68.5414 47.2475 68.2721 45.382 68.0816C45.1324 68.0554 45.0054 67.9152 45.0011 67.6613L44.9551 60.0615C44.9551 59.9958 45.0646 59.8316 45.2835 59.5689C45.4236 59.3937 45.6491 59.3937 45.9601 59.5689C46.1965 59.7002 46.3126 59.9017 46.3082 60.1732L46.2753 62.413C46.271 62.6845 46.4045 62.8356 46.676 62.8663ZM46.1374 64.7711L46.1505 66.3081C46.1514 66.3797 46.1664 66.4505 46.1945 66.5163C46.2227 66.5821 46.2636 66.6417 46.3149 66.6917C46.3661 66.7418 46.4267 66.7812 46.4932 66.8078C46.5596 66.8344 46.6307 66.8476 46.7023 66.8468L48.7517 66.8271C49.1052 66.8234 49.4429 66.6899 49.6904 66.4559C49.938 66.2218 50.0752 65.9064 50.0719 65.579V65.4214C50.0703 65.2592 50.0342 65.0989 49.9656 64.9497C49.8971 64.8005 49.7974 64.6653 49.6724 64.5518C49.5473 64.4383 49.3993 64.3488 49.2369 64.2884C49.0744 64.228 48.9006 64.1978 48.7254 64.1997L46.676 64.2194C46.6044 64.2202 46.5337 64.2352 46.4679 64.2634C46.4021 64.2916 46.3424 64.3324 46.2924 64.3837C46.2424 64.4349 46.203 64.4955 46.1764 64.562C46.1498 64.6285 46.1365 64.6995 46.1374 64.7711Z" fill="#718389"/>
<path id="Vector_18" d="M53.0796 59.4594L52.8825 59.4577C52.5343 59.4546 52.2495 59.7345 52.2465 60.0827L52.1816 67.518C52.1785 67.8662 52.4584 68.151 52.8066 68.154L53.0037 68.1557C53.3519 68.1588 53.6367 67.8789 53.6397 67.5307L53.7046 60.0954C53.7076 59.7472 53.4278 59.4624 53.0796 59.4594Z" fill="#718389"/>
<path id="Vector_19" d="M65.8951 66.9735L69.2516 66.7896C69.5012 66.7765 69.626 66.8947 69.626 67.1443C69.626 67.2275 69.626 67.3085 69.626 67.3873C69.626 67.615 69.5187 67.7639 69.3041 67.834C60.6271 70.6584 60.6468 57.0682 69.2647 59.8073C69.5055 59.8817 69.626 60.0481 69.626 60.3065V60.5692C69.626 60.8889 69.4705 61.0115 69.1596 60.9371C67.9028 60.6305 66.6614 60.648 65.4353 60.9896C65.2163 61.0509 65.0652 61.1867 64.982 61.3969C64.2551 63.1966 64.3361 64.9307 65.2251 66.5991C65.3696 66.8662 65.5929 66.991 65.8951 66.9735Z" fill="#718389"/>
<path id="Vector_20" d="M76.9628 63.714C79.6691 68.4433 74.5062 68.3382 71.4847 68.0755C71.2395 68.0536 71.1169 67.9178 71.1169 67.6682L71.084 59.8648C71.0832 59.8082 71.0937 59.752 71.1151 59.6995C71.1365 59.6469 71.1683 59.5991 71.2087 59.5587C71.249 59.5184 71.2971 59.4863 71.3501 59.4645C71.4031 59.4426 71.4601 59.4313 71.5176 59.4313C73.6983 59.4313 77.7314 58.6694 77.5146 62.282C77.5015 62.4922 77.427 62.6762 77.2913 62.8338L77.0154 63.1491C76.8621 63.3243 76.8446 63.5125 76.9628 63.714ZM72.4174 61.0932V62.7484C72.4174 62.8338 72.4513 62.9156 72.5117 62.976C72.5721 63.0364 72.6539 63.0703 72.7393 63.0703H74.6179C75.0234 63.0699 75.4124 62.9617 75.6993 62.7696C75.9863 62.5775 76.1478 62.3171 76.1483 62.0456V61.796C76.1486 61.6613 76.1093 61.5279 76.0325 61.4035C75.9557 61.2791 75.843 61.1661 75.7009 61.0709C75.5587 60.9757 75.3899 60.9003 75.2041 60.8489C75.0182 60.7975 74.8191 60.7711 74.6179 60.7713H72.7393C72.697 60.7713 72.6552 60.7796 72.6161 60.7958C72.5771 60.812 72.5416 60.8357 72.5117 60.8656C72.4818 60.8955 72.4581 60.9309 72.4419 60.97C72.4258 61.009 72.4174 61.0509 72.4174 61.0932ZM72.4109 64.5547V66.4728C72.41 66.5207 72.4187 66.5684 72.4365 66.613C72.4542 66.6576 72.4807 66.6982 72.5143 66.7325C72.548 66.7667 72.5881 66.7939 72.6324 66.8125C72.6766 66.831 72.7241 66.8406 72.7721 66.8406H74.8346C75.2359 66.8408 75.6208 66.711 75.9051 66.4796C76.1895 66.2482 76.3501 65.934 76.352 65.6057V65.4481C76.3529 65.2846 76.3143 65.1225 76.2385 64.9712C76.1626 64.8198 76.051 64.6823 75.91 64.5663C75.769 64.4503 75.6015 64.3583 75.4169 64.2954C75.2324 64.2326 75.0345 64.2002 74.8346 64.2H72.7721C72.6775 64.2 72.5865 64.2372 72.519 64.3035C72.4514 64.3699 72.4126 64.4601 72.4109 64.5547Z" fill="#718389"/>
<path id="Vector_21" d="M86.3478 65.0055C86.3374 65.8538 85.9905 66.6633 85.3833 67.2558C84.7761 67.8483 83.9584 68.1754 83.1101 68.165L82.3219 68.1554C81.9019 68.1503 81.4869 68.0625 81.1008 67.897C80.7147 67.7315 80.365 67.4916 80.0716 67.191C79.7782 66.8903 79.5469 66.5348 79.3909 66.1448C79.2349 65.7547 79.1572 65.3378 79.1623 64.9177L79.1898 62.6715C79.2002 61.8232 79.5471 61.0137 80.1543 60.4212C80.7615 59.8287 81.5792 59.5016 82.4275 59.512L83.2156 59.5215C83.6357 59.5267 84.0506 59.6145 84.4367 59.78C84.8229 59.9455 85.1726 60.1854 85.466 60.486C85.7594 60.7867 85.9907 61.1422 86.1467 61.5322C86.3027 61.9223 86.3804 62.3392 86.3752 62.7593L86.3478 65.0055ZM84.8882 62.5013C84.8878 62.2728 84.8423 62.0465 84.7545 61.8355C84.6666 61.6244 84.5381 61.4328 84.3762 61.2714C84.2142 61.1101 84.0221 60.9822 83.8108 60.8951C83.5994 60.808 83.373 60.7634 83.1444 60.7638L82.3562 60.7652C81.8946 60.766 81.4522 60.9501 81.1263 61.2771C80.8005 61.6041 80.6179 62.0472 80.6187 62.5088L80.6231 65.0968C80.6235 65.3254 80.6689 65.5517 80.7568 65.7627C80.8446 65.9737 80.9732 66.1654 81.1351 66.3267C81.297 66.4881 81.4892 66.616 81.7005 66.7031C81.9118 66.7902 82.1383 66.8348 82.3669 66.8344L83.1551 66.833C83.6167 66.8322 84.0591 66.648 84.385 66.321C84.7108 65.994 84.8934 65.551 84.8926 65.0893L84.8882 62.5013Z" fill="#718389"/>
<path id="Vector_22" d="M103.776 65.0185C103.761 65.8685 103.409 66.6778 102.798 67.2683C102.186 67.8589 101.365 68.1823 100.515 68.1675L99.7139 68.1535C99.2931 68.1462 98.8777 68.056 98.4917 67.8882C98.1057 67.7203 97.7565 67.4781 97.4641 67.1753C97.1717 66.8724 96.9418 66.515 96.7875 66.1233C96.6332 65.7317 96.5576 65.3135 96.5649 64.8926L96.6042 62.6465C96.619 61.7965 96.9709 60.9872 97.5824 60.3967C98.194 59.8062 99.015 59.4827 99.865 59.4976L100.666 59.5115C101.087 59.5188 101.502 59.609 101.888 59.7769C102.275 59.9447 102.624 60.187 102.916 60.4898C103.209 60.7926 103.438 61.15 103.593 61.5417C103.747 61.9333 103.823 62.3515 103.815 62.7724L103.776 65.0185ZM102.399 62.5375C102.398 62.3063 102.352 62.0775 102.263 61.8643C102.174 61.651 102.043 61.4574 101.879 61.2945C101.715 61.1316 101.521 61.0026 101.307 60.9149C101.093 60.8272 100.864 60.7825 100.633 60.7833L99.7788 60.7862C99.312 60.7879 98.8649 60.9749 98.5359 61.3062C98.2069 61.6374 98.023 62.0858 98.0247 62.5527L98.0335 65.075C98.0343 65.3062 98.0806 65.5349 98.1698 65.7482C98.259 65.9615 98.3894 66.1551 98.5534 66.318C98.7175 66.4809 98.912 66.6098 99.1259 66.6976C99.3397 66.7853 99.5688 66.83 99.8 66.8292L100.654 66.8262C101.121 66.8246 101.568 66.6376 101.897 66.3063C102.226 65.975 102.41 65.5266 102.408 65.0598L102.399 62.5375Z" fill="#718389"/>
<path id="Vector_23" d="M112.007 67.8182H106.22C105.927 67.8182 105.819 67.9605 105.898 68.2452C106.113 69.0596 105.92 69.7187 105.32 70.2223C104.852 70.6164 104.615 70.5069 104.611 69.8938L104.598 67.1811C104.598 66.9139 104.731 66.7585 104.998 66.7147C106.719 66.4191 107.015 61.3942 107.199 59.9491C107.216 59.8115 107.283 59.685 107.387 59.5932C107.491 59.5013 107.625 59.4504 107.764 59.4499L112.789 59.4434C112.881 59.4434 112.969 59.4793 113.035 59.5434C113.1 59.6075 113.137 59.6943 113.137 59.7849L113.143 65.6572C113.143 65.898 113.207 66.1191 113.334 66.3206C114.004 67.4153 114.094 68.5823 113.603 69.8216C113.515 70.0449 113.351 70.1544 113.11 70.15C112.165 70.1369 112.578 68.7641 112.454 68.186C112.405 67.9408 112.257 67.8182 112.007 67.8182ZM107.573 66.5439L111.416 66.8329C111.458 66.8348 111.5 66.82 111.532 66.7919C111.564 66.7637 111.583 66.7242 111.587 66.6818L111.593 66.5965C111.709 65.0576 111.719 63.5738 111.62 62.4713C111.522 61.3689 111.323 60.7381 111.068 60.7177L108.828 60.5469C108.701 60.5376 108.565 60.6787 108.426 60.9619C108.287 61.2451 108.149 61.6649 108.019 62.1974C107.889 62.7299 107.77 63.3646 107.669 64.0653C107.568 64.766 107.486 65.519 107.429 66.2812L107.422 66.3666C107.42 66.3881 107.423 66.4099 107.429 66.4305C107.436 66.4511 107.447 66.4702 107.461 66.4867C107.475 66.5031 107.492 66.5167 107.511 66.5265C107.531 66.5363 107.552 66.5423 107.573 66.5439Z" fill="#718389"/>
<path id="Vector_24" d="M121.196 62.3752V59.9186C121.196 59.542 121.38 59.38 121.748 59.4325L122.26 59.4982C122.531 59.5376 122.667 59.6952 122.667 59.9711V67.7351C122.667 68.011 122.529 68.1489 122.253 68.1489H121.583C121.299 68.1489 121.161 68.0066 121.17 67.722L121.242 64.6479C121.251 64.3545 121.108 64.2078 120.815 64.2078H117.084C116.865 64.2078 116.755 64.3173 116.755 64.5362V67.6234C116.755 67.8424 116.655 67.9956 116.453 68.0832C115.652 68.4248 115.278 68.0569 115.278 67.2687C115.273 64.7902 115.275 62.3752 115.284 60.0237C115.284 59.8923 115.328 59.7651 115.408 59.6626C115.488 59.5602 115.599 59.4883 115.724 59.4588C117.182 59.1106 116.775 61.8563 116.775 62.546C116.771 62.7781 116.885 62.8941 117.117 62.8941H120.677C121.023 62.8941 121.196 62.7211 121.196 62.3752Z" fill="#718389"/>
<path id="Vector_25" d="M125.99 62.8863C127.048 62.9322 128.276 62.6826 129.202 63.2016C131.114 64.2854 130.792 67.4514 128.46 68.0623C127.685 68.2681 126.319 68.2703 124.361 68.0688C124.107 68.0425 123.98 67.9024 123.98 67.6484V59.7925C123.981 59.6928 124.012 59.5954 124.069 59.5132C124.125 59.431 124.205 59.3679 124.298 59.3323C124.391 59.2966 124.492 59.2902 124.587 59.3137C124.683 59.3372 124.769 59.3897 124.834 59.4641C125.395 60.0859 125.531 60.8697 125.242 61.8156C125.204 61.936 125.195 62.0633 125.215 62.1879C125.234 62.3124 125.282 62.4308 125.354 62.534C125.426 62.6373 125.521 62.7227 125.632 62.7838C125.742 62.8448 125.865 62.8799 125.99 62.8863ZM125.294 64.5415L125.281 66.4595C125.28 66.507 125.289 66.5541 125.306 66.5983C125.323 66.6425 125.349 66.6828 125.382 66.7169C125.415 66.7511 125.454 66.7784 125.498 66.7974C125.541 66.8163 125.588 66.8265 125.636 66.8274L127.83 66.8471C127.991 66.8489 128.151 66.8234 128.301 66.7719C128.451 66.7204 128.587 66.644 128.702 66.547C128.818 66.45 128.91 66.3343 128.973 66.2066C129.036 66.0789 129.069 65.9416 129.071 65.8027V65.2772C129.074 64.9969 128.948 64.7267 128.72 64.5259C128.492 64.3251 128.181 64.2103 127.856 64.2065L125.662 64.1868C125.615 64.186 125.567 64.1945 125.523 64.2118C125.479 64.2292 125.439 64.255 125.405 64.288C125.37 64.3209 125.343 64.3603 125.324 64.4038C125.305 64.4473 125.295 64.4941 125.294 64.5415Z" fill="#718389"/>
<path id="Vector_26" d="M132.054 59.4504L132.014 59.4503C131.662 59.4497 131.376 59.7345 131.376 60.0864L131.363 67.6533C131.362 68.0051 131.647 68.2909 131.999 68.2915L132.038 68.2916C132.39 68.2922 132.676 68.0074 132.676 67.6556L132.69 60.0887C132.69 59.7368 132.405 59.451 132.054 59.4504Z" fill="#718389"/>
<path id="Vector_27" d="M136.316 64.6554C136.146 67.736 139.305 66.8165 141.098 66.6325C141.4 66.6019 141.551 66.7376 141.551 67.0398V67.2828C141.551 67.4843 141.453 67.6112 141.256 67.6638C137.124 68.7673 134.274 67.9659 134.766 63.0593C135.298 57.7454 143.036 58.5927 141.959 63.8606C141.911 64.0927 141.768 64.2088 141.532 64.2088H136.789C136.492 64.2088 136.334 64.3576 136.316 64.6554ZM136.303 63.0855L140.441 63.033C140.461 63.033 140.48 63.0291 140.498 63.0214C140.516 63.0137 140.532 63.0025 140.546 62.9884C140.56 62.9743 140.57 62.9575 140.577 62.9392C140.584 62.9209 140.587 62.9014 140.586 62.8819V62.8097C140.577 62.2586 140.352 61.7335 139.961 61.3493C139.569 60.9652 139.043 60.7534 138.497 60.7603H138.195C137.924 60.7637 137.655 60.8211 137.406 60.9293C137.157 61.0376 136.931 61.1944 136.742 61.3909C136.553 61.5874 136.404 61.8197 136.304 62.0744C136.204 62.3292 136.154 62.6013 136.159 62.8754V62.9476C136.16 62.9848 136.176 63.0199 136.203 63.0456C136.23 63.0713 136.266 63.0856 136.303 63.0855Z" fill="#718389"/>
<path id="Vector_28" d="M154.792 64.9101C154.791 65.3354 154.706 65.7563 154.543 66.1489C154.379 66.5415 154.14 66.8981 153.839 67.1983C153.538 67.4985 153.18 67.7364 152.787 67.8984C152.394 68.0605 151.973 68.1435 151.548 68.1428L150.746 68.1413C150.321 68.1406 149.9 68.0561 149.508 67.8927C149.115 67.7292 148.758 67.4901 148.458 67.1889C148.158 66.8876 147.92 66.5302 147.758 66.1371C147.596 65.7439 147.513 65.3227 147.514 64.8974L147.517 62.7561C147.518 62.3308 147.603 61.9099 147.766 61.5173C147.93 61.1247 148.169 60.7681 148.47 60.4679C148.771 60.1677 149.129 59.9298 149.522 59.7678C149.915 59.6057 150.336 59.5227 150.761 59.5234L151.563 59.5249C151.988 59.5256 152.409 59.6101 152.801 59.7735C153.194 59.937 153.551 60.1761 153.851 60.4774C154.151 60.7786 154.389 61.136 154.551 61.5291C154.713 61.9223 154.796 62.3436 154.795 62.7688L154.792 64.9101ZM153.331 62.5676C153.328 62.327 153.277 62.0894 153.182 61.8683C153.087 61.6473 152.949 61.4472 152.777 61.2794C152.604 61.1116 152.4 60.9794 152.177 60.8904C151.953 60.8015 151.714 60.7574 151.473 60.7608L150.738 60.7711C150.252 60.7779 149.788 60.9774 149.449 61.3259C149.111 61.6743 148.924 62.1431 148.931 62.6291L148.964 65.0329C148.968 65.2735 149.019 65.5112 149.114 65.7322C149.209 65.9532 149.347 66.1534 149.519 66.3212C149.692 66.4889 149.896 66.6211 150.119 66.7101C150.343 66.7991 150.582 66.8431 150.822 66.8398L151.558 66.8295C152.044 66.8227 152.507 66.6231 152.846 66.2746C153.185 65.9262 153.372 65.4574 153.365 64.9714L153.331 62.5676Z" fill="#718389"/>
<path id="Vector_29" d="M160.225 61.0986C160.205 62.9641 160.671 66.1695 160.047 67.8379C159.973 68.0437 159.826 68.1466 159.607 68.1466H159.371C159.095 68.1466 158.957 68.0087 158.957 67.7328V61.2497C158.957 61.119 158.905 60.9937 158.813 60.9014C158.72 60.809 158.595 60.7571 158.464 60.7571H156.579C156.168 60.7571 156.023 60.5622 156.146 60.1725L156.251 59.8309C156.334 59.5725 156.509 59.4434 156.776 59.4434H162.379C162.664 59.4434 162.819 59.5835 162.846 59.8637L162.892 60.3301C162.927 60.6629 162.78 60.8162 162.451 60.7899L160.691 60.6717C160.385 60.6498 160.229 60.7921 160.225 61.0986Z" fill="#718389"/>
<path id="Vector_30" d="M174.065 66.1575V59.878C174.065 59.5627 174.223 59.4204 174.538 59.451L174.932 59.497C175.225 59.5233 175.374 59.6831 175.379 59.9765C175.385 61.1917 175.037 66.2231 175.891 66.8274C176.07 66.9544 176.171 67.1252 176.193 67.3398C176.303 68.2857 176.197 69.2031 175.878 70.092C175.738 70.473 175.538 70.508 175.28 70.1971C174.86 69.6847 174.733 69.0848 174.899 68.3973C174.969 68.1214 174.864 67.9835 174.584 67.9835L169.309 67.9769C168.963 67.9769 168.793 67.804 168.797 67.458L168.909 60.4035C168.913 60.1889 168.968 59.9875 169.073 59.7992C169.344 59.3175 169.682 59.3131 170.084 59.786C170.225 59.948 170.292 60.1341 170.288 60.3443L170.242 66.2363C170.242 66.5253 170.387 66.6698 170.676 66.6698H173.553C173.894 66.6698 174.065 66.499 174.065 66.1575Z" fill="#718389"/>
<path id="Vector_31" d="M179.096 64.832L179.615 66.4281C179.716 66.7215 179.919 66.8682 180.226 66.8682C180.298 66.8682 184.423 66.3624 184.41 67.1703C184.405 67.3499 184.322 67.4769 184.16 67.5513C182.242 68.4446 180.412 68.3768 178.669 67.3477C178.468 67.2251 178.325 67.0521 178.242 66.8288C174.997 58.1452 185.559 57.1665 184.883 63.6102C184.865 63.774 184.788 63.9255 184.665 64.0357C184.543 64.146 184.384 64.2073 184.219 64.208H179.543C179.105 64.208 178.956 64.416 179.096 64.832ZM179.477 63.0782L183.142 63.0256C183.182 63.0256 183.222 63.0176 183.259 63.002C183.296 62.9864 183.33 62.9636 183.358 62.9348C183.386 62.9061 183.408 62.872 183.423 62.8345C183.438 62.7971 183.445 62.7571 183.444 62.7169V62.6249C183.436 62.1209 183.228 61.6408 182.866 61.2899C182.504 60.939 182.017 60.7459 181.513 60.7529L181.053 60.7595C180.803 60.7629 180.556 60.8156 180.326 60.9145C180.097 61.0134 179.888 61.1566 179.714 61.3359C179.54 61.5153 179.402 61.7272 179.31 61.9596C179.217 62.1921 179.171 62.4405 179.175 62.6906V62.7826C179.176 62.8616 179.209 62.9368 179.266 62.992C179.322 63.0473 179.398 63.0782 179.477 63.0782Z" fill="#718389"/>
<path id="Vector_32" d="M192.293 62.4846V59.9689C192.293 59.693 192.431 59.5353 192.707 59.4959L193.173 59.4303C193.484 59.3908 193.639 59.5266 193.639 59.8375L193.593 67.8248C193.593 68.0394 193.486 68.1467 193.271 68.1467H192.707C192.431 68.1467 192.293 68.0087 192.293 67.7328V64.534C192.293 64.315 192.183 64.2055 191.964 64.2055H188.109C187.833 64.2055 187.695 64.3435 187.695 64.6194V67.7328C187.695 68.0087 187.557 68.1467 187.281 68.1467H186.841C186.539 68.1467 186.388 67.9956 186.388 67.6934C186.379 65.2499 186.377 62.813 186.381 60.3827C186.381 59.7324 186.683 59.2201 187.379 59.4697C187.59 59.5485 187.695 59.6996 187.695 59.9229V62.3992C187.695 62.7276 187.859 62.8918 188.187 62.8918H191.879C192.155 62.8918 192.293 62.7561 192.293 62.4846Z" fill="#718389"/>
<path id="Vector_33" d="M55.6546 68.8573L55.2671 67.8195C55.1795 67.5743 55.2452 67.3838 55.4642 67.248L56.029 66.8868C56.3181 66.7072 56.5283 66.7751 56.6596 67.0904C57.0866 68.0954 56.8238 70.7359 55.2343 70.8213C54.9058 70.8388 54.827 70.7075 54.9978 70.4272L55.5955 69.4551C55.7138 69.2668 55.7335 69.0675 55.6546 68.8573Z" fill="#718389"/>
<path id="Vector_34" d="M197.054 67.6946V68.5157C196.511 68.9667 196.016 68.8397 195.57 68.1347C195.276 67.6705 195.392 67.3596 195.918 67.202C196.47 67.0399 196.848 67.2041 197.054 67.6946Z" fill="#718389"/>
</g>
<defs>
<clipPath id="clip0_182_1662">
<rect width="197.055" height="71.5967" fill="white"/>
</clipPath>
</defs>
</svg>
