<svg width="193" height="104" viewBox="0 0 193 104" fill="none" xmlns="http://www.w3.org/2000/svg">
<path fill-rule="evenodd" clip-rule="evenodd" d="M81.76 10.1699H8.5V55.9599H26.82C23.94 52.1299 22.24 47.3799 22.24 42.2299C22.24 29.5899 32.49 19.3399 45.14 19.3399C57.79 19.3399 68.03 29.5899 68.03 42.2299C68.03 47.3799 66.33 52.1399 63.45 55.9599H81.76V10.1699Z" fill="#02222D"/>
<path fill-rule="evenodd" clip-rule="evenodd" d="M36.2605 37.6396H35.9805V92.5896H90.9305V92.3096C64.6905 84.5796 44.0005 63.8896 36.2605 37.6396Z" fill="#718389"/>
<path fill-rule="evenodd" clip-rule="evenodd" d="M152.47 52.5103C152.38 52.7403 152.26 53.0703 152.13 53.5103C152 53.9503 151.93 54.3104 151.93 54.5904C151.93 54.8604 151.99 55.0604 152.11 55.2004C152.23 55.3404 152.43 55.4604 152.7 55.5604C152.85 55.6004 153.03 55.6304 153.23 55.6604C153.43 55.6904 153.6 55.7104 153.76 55.7304V56.2904H148.96V55.7304C149.26 55.6903 149.56 55.6003 149.86 55.4403C150.15 55.2903 150.41 55.1104 150.62 54.9004C150.79 54.7104 150.93 54.5003 151.05 54.2803C151.16 54.0604 151.24 53.9004 151.28 53.7803L157.49 37.6104H158L164.42 55.7204H166.33V56.2803H158.57V55.7204H161.08L159.01 49.9604H153.51L152.49 52.5004L152.47 52.5103ZM156.37 42.3204L153.63 49.4004H158.79L156.37 42.3204ZM184.25 38.1804H182.08V55.7204H184.25V56.2803H176.78V55.7204H178.95V38.1804H175.78C175.53 38.1804 175.19 38.2104 174.75 38.2704C174.31 38.3304 173.93 38.5104 173.61 38.8104C173.34 39.0604 173.17 39.3404 173.08 39.6604C173 39.9804 172.93 40.2904 172.9 40.5704C172.86 40.8704 172.83 41.2104 172.81 41.5804C172.79 41.9504 172.78 42.3904 172.77 42.8904C172.77 43.3904 172.75 43.9903 172.74 44.6703C172.73 45.3503 172.71 46.1504 172.7 47.0604L172.59 51.4203C172.57 52.1203 172.55 52.7504 172.52 53.3204C172.49 53.8804 172.38 54.3804 172.19 54.8204C172.04 55.1804 171.87 55.4604 171.68 55.6504C171.49 55.8404 171.27 55.9604 171 56.1104C170.72 56.2504 170.31 56.2904 169.78 56.2904C168.85 56.2904 168.09 56.0804 167.5 55.6604C167.23 55.4704 166.99 55.2104 166.77 54.8703C166.55 54.5403 166.44 54.1004 166.44 53.5704C166.44 52.9604 166.61 52.4503 166.96 52.0504C167.3 51.6504 167.79 51.4504 168.41 51.4504C168.94 51.4504 169.37 51.6004 169.68 51.9104C169.99 52.2104 170.15 52.5804 170.15 53.0004C170.15 53.5004 170.03 53.9304 169.79 54.3104C169.7 54.4404 169.61 54.5704 169.54 54.6804C169.47 54.7904 169.43 54.9004 169.43 54.9904C169.43 55.0804 169.48 55.2104 169.57 55.3604C169.66 55.5104 169.87 55.5904 170.19 55.5904C170.46 55.5904 170.72 55.5103 170.98 55.3503C171.24 55.1903 171.53 54.8704 171.66 54.5004C171.79 54.1304 171.9 53.7204 171.93 53.2504C171.96 52.7804 171.98 52.1704 172 51.4304L172.11 47.0704C172.13 46.1204 172.15 45.3503 172.17 44.7603C172.19 44.1703 172.2 43.7104 172.2 43.3604V41.0504C172.2 40.7704 172.18 40.4304 172.16 40.0504C172.13 39.6704 171.99 39.3204 171.75 39.0004C171.6 38.8104 171.43 38.6604 171.24 38.5504C171.05 38.4404 170.86 38.3503 170.67 38.2803C170.48 38.2103 170.18 38.1804 169.76 38.1804H169.08V37.6203H184.29V38.1804H184.25ZM122.35 38.2004H119.95L125.58 50.0604L129.1 41.0904C129.19 40.8804 129.29 40.5904 129.37 40.2204C129.45 39.8504 129.5 39.5504 129.5 39.3204C129.5 38.9404 129.37 38.6604 129.11 38.4804C128.85 38.3004 128.55 38.2104 128.21 38.2104H127.81V37.6404H132.67V38.2104C132.23 38.2104 131.87 38.2903 131.57 38.4403C131.28 38.5903 131.03 38.7704 130.83 38.9704C130.63 39.1704 130.47 39.3704 130.36 39.5904C130.25 39.8004 130.17 39.9604 130.13 40.0804L126.1 50.5103C125.87 51.0803 125.62 51.5904 125.4 52.0404C125.18 52.4904 124.98 52.8604 124.7 53.3104C124.41 53.7904 124.25 54.0504 123.95 54.4403C123.61 54.8904 123.42 55.0803 123.02 55.4403C122.67 55.7503 122.33 55.9704 122 56.1104C121.67 56.2404 121.28 56.3104 120.84 56.3104C120.25 56.3104 119.74 56.2204 119.3 56.0404C118.86 55.8604 118.48 55.6304 118.16 55.3703C117.66 54.9503 117.35 54.5204 117.2 54.0704C117.06 53.6203 116.99 53.2204 116.99 52.8604C116.99 52.6104 117.03 52.3603 117.1 52.1203C117.18 51.8703 117.29 51.6504 117.44 51.4504C117.59 51.2504 117.79 51.0804 118.04 50.9504C118.29 50.8204 118.58 50.7504 118.93 50.7504C119.54 50.7504 120 50.9203 120.3 51.2603C120.6 51.6003 120.76 51.9504 120.76 52.2904C120.76 52.5004 120.72 52.7103 120.65 52.9203C120.57 53.1303 120.48 53.3104 120.36 53.4604C120.13 53.7703 119.87 54.0004 119.59 54.1604C119.3 54.3204 119.16 54.5304 119.16 54.7704C119.16 54.9604 119.28 55.1704 119.52 55.4004C119.76 55.6304 120.14 55.7404 120.68 55.7404C121.1 55.7404 121.51 55.6404 121.89 55.4304C122.28 55.2204 122.61 54.9704 122.88 54.6903C123.09 54.4604 123.28 54.2003 123.45 53.9203C123.62 53.6303 123.74 53.4403 123.79 53.3503L116.47 38.2304H114.5V37.6604H122.36V38.2304L122.35 38.2004ZM113.89 42.5504C113.86 42.2503 113.79 41.9104 113.68 41.5504C113.56 41.1904 113.39 40.8203 113.17 40.4403C112.94 40.0603 112.64 39.6904 112.26 39.3304C111.52 38.6304 110.65 38.1704 109.66 37.9504C108.67 37.7304 107.69 37.6203 106.72 37.6203H98.5996V38.1804H100.77V55.7204H98.5996V56.2803H106.08V55.7204H103.91V48.8703H106.68C107.8 48.8703 108.88 48.7404 109.91 48.4904C110.94 48.2304 111.78 47.7804 112.43 47.1404C112.56 47.0104 112.72 46.8304 112.89 46.6104C113.06 46.3904 113.23 46.1204 113.39 45.8104C113.55 45.5004 113.68 45.1304 113.79 44.7104C113.89 44.2903 113.95 43.8204 113.95 43.2904C113.95 43.1004 113.94 42.8504 113.91 42.5504H113.89ZM109.41 47.0904C109.23 47.3004 109.03 47.4804 108.76 47.6604C108.53 47.7904 108.27 47.9004 107.99 47.9904C107.7 48.0704 107.43 48.1403 107.15 48.1903C106.87 48.2403 106.62 48.2704 106.38 48.2904C106.14 48.3104 105.97 48.3204 105.85 48.3204H103.91V38.1903H105.85C106.38 38.1903 106.94 38.2404 107.52 38.3304C108.03 38.4104 108.5 38.6203 108.94 38.9403C108.97 38.9703 109.01 38.9903 109.04 39.0103C109.07 39.0303 109.1 39.0504 109.13 39.0704C109.28 39.2004 109.42 39.3404 109.53 39.4804C110.29 40.3604 110.78 41.7104 110.78 43.2204C110.78 44.8104 110.24 46.2204 109.41 47.0904ZM146.59 37.6203H145.9C145.75 38.2103 145.42 38.5004 144.9 38.5004C144.69 38.5004 144.47 38.4603 144.25 38.3703C144.02 38.2903 143.7 38.1703 143.28 38.0103C142.9 37.8803 142.55 37.7804 142.21 37.7104C141.88 37.6404 141.49 37.6104 141.06 37.6104C140.63 37.6104 140.02 37.6104 139.44 37.7204C138.86 37.8204 138.23 37.9304 137.55 38.2504C136.95 38.5304 136.56 38.7404 135.98 39.2504C135.4 39.7604 134.86 40.4204 134.34 41.2104C133.77 42.1403 133.37 43.0904 133.13 44.0704C132.89 45.0504 132.77 46.0804 132.77 47.1604C132.77 48.4304 132.91 49.5504 133.2 50.5204C133.49 51.4904 133.85 52.3303 134.28 53.0504C134.68 53.6704 135.12 54.2104 135.6 54.6604C136.08 55.1104 136.59 55.4204 137.14 55.6804C137.71 55.9504 138.21 56.1203 138.76 56.1903C139.32 56.2603 139.91 56.2803 140.46 56.2803C141.09 56.2803 141.67 56.2104 142.21 56.0704C142.75 55.9304 143.26 55.7304 143.74 55.4604C144.03 55.3104 144.29 55.1703 144.52 55.0303C144.76 54.9004 144.78 54.8304 145.03 54.8304C145.22 54.8304 145.37 54.8804 145.47 54.9704C145.58 55.0604 145.66 55.1704 145.73 55.3004C145.8 55.4303 145.84 55.5504 145.87 55.6903C145.9 55.8203 145.91 56.2104 145.91 56.2704H146.55V50.0604H146.03C146.03 50.2004 146.05 50.3404 146.05 50.4804C146.05 51.4704 145.78 52.3704 145.34 53.0704C145.32 53.1104 145.29 53.1503 145.27 53.1903C144.78 53.9303 144.12 54.5303 143.31 55.0103C142.5 55.4803 141.69 55.7204 140.89 55.7204C140.38 55.7204 139.87 55.6104 139.35 55.3804C138.84 55.1504 138.45 54.9004 138.04 54.5404C137.79 54.3204 137.53 54.0304 137.33 53.7704C137.1 53.4504 136.91 53.1104 136.63 52.3104C136.58 52.1604 136.53 52.0003 136.5 51.8503C136.19 50.5503 136.01 48.8703 136.01 47.0303C136.01 43.4503 136.72 41.1103 137.52 40.1003C137.56 40.0403 137.68 39.9003 137.73 39.8503C137.86 39.6803 138.06 39.4803 138.27 39.2803C138.48 39.0803 138.69 38.9203 138.99 38.7603C139.34 38.5703 139.62 38.4404 140.03 38.3304C140.43 38.2204 140.9 38.1804 141.38 38.1804C142.14 38.1804 142.82 38.3404 143.43 38.6604C144.04 38.9804 144.52 39.3904 144.88 39.8804C145.05 40.1304 145.2 40.4203 145.33 40.7603C145.46 41.1003 145.58 41.4504 145.67 41.8204C145.77 42.1904 145.84 42.5403 145.9 42.8703C145.95 43.2003 145.99 43.4704 146.01 43.6804H146.57V37.6203H146.59Z" fill="#02222D"/>
</svg>
