<svg width="171" height="37" viewBox="0 0 171 37" fill="none" xmlns="http://www.w3.org/2000/svg">
<g id="Frame 1077236348">
<g id="Group">
<path id="Vector" d="M18.8008 24.6045L36.4453 36.501" stroke="#718389" stroke-width="0.449943"/>
<path id="Vector_2" d="M36.4453 36.5005C54.2068 36.5793 60.9515 13.4095 46.1843 3.85267C43.3257 2.0019 40.1266 1.05102 36.587 1.00003C36.5756 0.999729 36.5643 1.00172 36.5536 1.00588C36.543 1.01004 36.5333 1.01629 36.5251 1.02426C36.517 1.03223 36.5105 1.04175 36.506 1.05227C36.5016 1.06279 36.4993 1.0741 36.4993 1.08552L36.4633 12.901" stroke="#718389" stroke-width="0.449943"/>
<path id="Vector_3" d="M36.4621 12.9012L18.9121 1.09473" stroke="#718389" stroke-width="0.449943"/>
<path id="Vector_4" d="M18.9129 1.09452C18.8184 1.04953 18.7209 1.02853 18.6204 1.03153C13.0831 1.21301 8.61971 3.29399 5.23014 7.27449C-0.697858 14.2329 -0.351402 24.5883 5.99279 31.126C9.34337 34.58 13.5578 36.3918 18.6362 36.5613C18.7022 36.5643 18.7352 36.532 18.7352 36.4645V24.7188C18.7352 24.6918 18.7457 24.6708 18.7667 24.6558C18.7862 24.6408 18.7974 24.6235 18.8004 24.604" stroke="#718389" stroke-width="0.449943"/>
<path id="Vector_5" d="M18.9127 1.09473C18.7988 1.61216 18.741 2.13709 18.7395 2.66953C18.7335 9.9391 18.7328 17.2094 18.7373 24.4805C18.7373 24.5105 18.7485 24.536 18.771 24.557C18.7875 24.5705 18.7973 24.5862 18.8003 24.6042" stroke="#718389" stroke-width="0.449943"/>
<path id="Vector_6" d="M36.4453 36.5009L36.4633 12.9014" stroke="#718389" stroke-width="0.449943"/>
<path id="Vector_7" d="M87.9076 16.8916C87.9057 15.7627 87.4553 14.6809 86.6557 13.884C85.8561 13.0872 84.7726 12.6406 83.6438 12.6426L81.3311 12.6466C80.7721 12.6476 80.2188 12.7586 79.7028 12.9735C79.1867 13.1883 78.718 13.5026 78.3235 13.8985C77.9289 14.2945 77.6162 14.7643 77.4032 15.2811C77.1902 15.7978 77.0811 16.3515 77.082 16.9105L77.0885 20.6315C77.0905 21.7604 77.5409 22.8423 78.3405 23.6391C79.1401 24.4359 80.2235 24.8825 81.3524 24.8805L83.6651 24.8765C84.2241 24.8755 84.7774 24.7645 85.2934 24.5497C85.8095 24.3349 86.2781 24.0205 86.6727 23.6246C87.0673 23.2286 87.38 22.7589 87.593 22.2421C87.806 21.7253 87.9151 21.1716 87.9141 20.6126L87.9076 16.8916Z" stroke="#718389" stroke-width="0.449943"/>
<path id="Vector_8" d="M71.9409 17.1351C71.9409 17.153 71.9338 17.1702 71.9211 17.1828C71.9085 17.1955 71.8913 17.2026 71.8734 17.2026L68.8026 17.1689C68.7847 17.1689 68.7675 17.1618 68.7548 17.1491C68.7422 17.1364 68.7351 17.1193 68.7351 17.1014V12.8832C68.7351 12.8653 68.728 12.8481 68.7153 12.8354C68.7026 12.8228 68.6855 12.8157 68.6676 12.8157L65.0343 12.7842C65.0164 12.7842 64.9992 12.7913 64.9866 12.8039C64.9739 12.8166 64.9668 12.8338 64.9668 12.8517V24.6379C64.9668 24.6558 64.9739 24.673 64.9866 24.6856C64.9992 24.6983 65.0164 24.7054 65.0343 24.7054L68.6676 24.7099C68.6855 24.7099 68.7026 24.7028 68.7153 24.6901C68.728 24.6775 68.7351 24.6603 68.7351 24.6424V20.5659C68.7351 20.548 68.7422 20.5309 68.7548 20.5182C68.7675 20.5056 68.7847 20.4984 68.8026 20.4984H71.8734C71.8913 20.4984 71.9085 20.5056 71.9211 20.5182C71.9338 20.5309 71.9409 20.548 71.9409 20.5659V24.6019C71.9409 24.6198 71.948 24.637 71.9607 24.6496C71.9733 24.6623 71.9905 24.6694 72.0084 24.6694L75.7542 24.6559C75.7721 24.6559 75.7892 24.6488 75.8019 24.6362C75.8146 24.6235 75.8217 24.6063 75.8217 24.5884V12.9259C75.8217 12.908 75.8146 12.8908 75.8019 12.8782C75.7892 12.8655 75.7721 12.8584 75.7542 12.8584L72.0084 12.8247C71.9905 12.8247 71.9733 12.8318 71.9607 12.8444C71.948 12.8571 71.9409 12.8743 71.9409 12.8922V17.1351Z" stroke="#718389" stroke-width="0.449943"/>
<path id="Vector_9" d="M107.318 17.1243C107.318 17.1422 107.311 17.1593 107.298 17.172C107.286 17.1847 107.268 17.1918 107.251 17.1918L104.18 17.1805C104.162 17.1805 104.145 17.1734 104.132 17.1607C104.119 17.1481 104.112 17.1309 104.112 17.113V12.9218C104.112 12.9039 104.105 12.8867 104.092 12.8741C104.08 12.8614 104.063 12.8543 104.045 12.8543L100.366 12.8408C100.348 12.8408 100.331 12.8479 100.319 12.8606C100.306 12.8732 100.299 12.8904 100.299 12.9083L100.254 24.6271C100.254 24.645 100.261 24.6621 100.274 24.6748C100.286 24.6875 100.304 24.6946 100.321 24.6946L104.045 24.6676C104.063 24.6676 104.08 24.6605 104.092 24.6478C104.105 24.6351 104.112 24.618 104.112 24.6001V20.5663C104.112 20.5484 104.119 20.5313 104.132 20.5186C104.145 20.506 104.162 20.4988 104.18 20.4988H107.251C107.268 20.4988 107.286 20.506 107.298 20.5186C107.311 20.5313 107.318 20.5484 107.318 20.5663V24.5843C107.318 24.6022 107.325 24.6194 107.338 24.6321C107.35 24.6447 107.368 24.6518 107.386 24.6518L111.131 24.6878C111.14 24.6878 111.149 24.6861 111.157 24.6827C111.165 24.6793 111.173 24.6743 111.179 24.668C111.185 24.6618 111.19 24.6543 111.194 24.6462C111.197 24.638 111.199 24.6292 111.199 24.6203V12.9173C111.199 12.9084 111.197 12.8997 111.194 12.8915C111.19 12.8833 111.185 12.8759 111.179 12.8696C111.173 12.8633 111.165 12.8583 111.157 12.855C111.149 12.8516 111.14 12.8498 111.131 12.8498H107.386C107.368 12.8498 107.35 12.8569 107.338 12.8696C107.325 12.8822 107.318 12.8994 107.318 12.9173V17.1243Z" stroke="#718389" stroke-width="0.449943"/>
<path id="Vector_10" d="M120.349 12.8495C120.334 12.8494 120.319 12.8531 120.306 12.8602C120.293 12.8673 120.282 12.8775 120.274 12.89L116.589 18.5818C116.579 18.5979 116.564 18.6103 116.546 18.6171C116.528 18.6238 116.509 18.6246 116.491 18.6192C116.472 18.6139 116.456 18.6027 116.445 18.5875C116.433 18.5722 116.427 18.5536 116.427 18.5345L116.434 12.9012C116.434 12.8895 116.432 12.8779 116.427 12.8671C116.423 12.8563 116.416 12.8466 116.408 12.8384C116.399 12.8302 116.389 12.8238 116.378 12.8195C116.367 12.8153 116.356 12.8132 116.344 12.8135L112.916 12.8608C112.893 12.8613 112.871 12.8708 112.855 12.8872C112.839 12.9036 112.83 12.9256 112.83 12.9485V24.5615C112.83 24.5844 112.839 24.6064 112.855 24.6228C112.871 24.6392 112.893 24.6487 112.916 24.6493L116.139 24.6988C116.154 24.6988 116.169 24.6951 116.182 24.688C116.195 24.681 116.206 24.6707 116.214 24.6583L119.926 19.0092C119.936 18.9939 119.952 18.9824 119.969 18.9764C119.987 18.9703 120.006 18.9701 120.024 18.9756C120.041 18.9811 120.057 18.9921 120.068 19.0071C120.079 19.022 120.085 19.0401 120.085 19.0587L120.011 24.5773C120.011 24.589 120.013 24.6006 120.017 24.6115C120.021 24.6224 120.028 24.6324 120.036 24.6408C120.044 24.6492 120.054 24.6558 120.065 24.6604C120.076 24.6649 120.087 24.6673 120.099 24.6673L123.597 24.6583C123.62 24.6583 123.643 24.649 123.659 24.6326C123.676 24.6161 123.685 24.5938 123.685 24.5705V12.9372C123.685 12.914 123.676 12.8917 123.659 12.8752C123.643 12.8587 123.62 12.8495 123.597 12.8495H120.349Z" stroke="#718389" stroke-width="0.449943"/>
<path id="Vector_11" d="M129.195 20.5708C129.195 20.5511 129.203 20.5323 129.217 20.5183C129.231 20.5044 129.25 20.4966 129.269 20.4966L130.039 20.5033C130.052 20.5035 130.066 20.5074 130.077 20.5145C130.089 20.5216 130.098 20.5318 130.104 20.5438L132.115 24.6271C132.122 24.6395 132.131 24.6498 132.143 24.657C132.155 24.6642 132.169 24.6678 132.183 24.6676L136.433 24.6698C136.445 24.6699 136.458 24.6665 136.469 24.6601C136.481 24.6538 136.49 24.6445 136.497 24.6334C136.503 24.6222 136.507 24.6096 136.507 24.5966C136.507 24.5837 136.504 24.5709 136.498 24.5596L133.344 18.7396C133.338 18.7291 133.336 18.7176 133.336 18.7058C133.336 18.6941 133.338 18.6825 133.344 18.6721L136.199 12.9623C136.204 12.9511 136.207 12.9385 136.207 12.9259C136.206 12.9133 136.203 12.901 136.196 12.8902C136.189 12.8793 136.18 12.8704 136.169 12.8641C136.158 12.8578 136.146 12.8545 136.133 12.8543L132.138 12.8408C132.123 12.841 132.109 12.8453 132.097 12.8533C132.085 12.8613 132.076 12.8726 132.07 12.8858L130.111 17.2503C130.105 17.2631 130.095 17.2739 130.083 17.2815C130.071 17.2891 130.058 17.2931 130.043 17.293H129.269C129.25 17.293 129.231 17.2852 129.217 17.2713C129.203 17.2573 129.195 17.2385 129.195 17.2188V12.9241C129.195 12.9044 129.187 12.8855 129.173 12.8716C129.16 12.8576 129.141 12.8498 129.121 12.8498H125.389C125.369 12.8498 125.35 12.8576 125.336 12.8716C125.322 12.8855 125.314 12.9044 125.314 12.9241V24.5843C125.314 24.604 125.322 24.6229 125.336 24.6368C125.35 24.6507 125.369 24.6586 125.389 24.6586L129.121 24.6653C129.141 24.6653 129.16 24.6575 129.173 24.6436C129.187 24.6296 129.195 24.6108 129.195 24.5911V20.5708Z" stroke="#718389" stroke-width="0.449943"/>
<path id="Vector_12" d="M140.95 16.0105C140.95 15.9926 140.957 15.9754 140.97 15.9627C140.983 15.9501 141 15.943 141.018 15.943H145.562C145.58 15.943 145.597 15.9359 145.61 15.9232C145.623 15.9105 145.63 15.8934 145.63 15.8755L145.612 12.9171C145.612 12.9082 145.61 12.8995 145.607 12.8913C145.603 12.8831 145.598 12.8756 145.592 12.8694C145.586 12.8631 145.578 12.8581 145.57 12.8547C145.562 12.8514 145.553 12.8496 145.544 12.8496H137.254C137.245 12.8496 137.236 12.8514 137.228 12.8547C137.22 12.8581 137.213 12.8631 137.206 12.8694C137.2 12.8756 137.195 12.8831 137.192 12.8913C137.188 12.8995 137.187 12.9082 137.187 12.9171L137.164 24.5909C137.164 24.5997 137.166 24.6085 137.169 24.6167C137.173 24.6249 137.178 24.6323 137.184 24.6386C137.19 24.6449 137.198 24.6498 137.206 24.6532C137.214 24.6566 137.223 24.6584 137.232 24.6584L145.945 24.6629C145.963 24.6629 145.98 24.6557 145.992 24.6431C146.005 24.6304 146.012 24.6133 146.012 24.5954V21.6347C146.012 21.6168 146.005 21.5997 145.992 21.587C145.98 21.5744 145.963 21.5673 145.945 21.5673H141.018C141 21.5673 140.983 21.5601 140.97 21.5475C140.957 21.5348 140.95 21.5177 140.95 21.4998V20.2107C140.95 20.2016 140.952 20.1927 140.956 20.1843C140.959 20.176 140.964 20.1684 140.971 20.1621C140.977 20.1558 140.985 20.1509 140.994 20.1477C141.002 20.1444 141.011 20.1429 141.02 20.1432L145.211 20.2152C145.22 20.2155 145.229 20.214 145.238 20.2107C145.246 20.2074 145.254 20.2025 145.26 20.1962C145.267 20.1899 145.272 20.1824 145.276 20.174C145.279 20.1657 145.281 20.1567 145.281 20.1477V17.4165C145.281 17.3986 145.274 17.3815 145.261 17.3688C145.249 17.3562 145.231 17.349 145.214 17.349H141.018C141 17.349 140.983 17.3419 140.97 17.3293C140.957 17.3166 140.95 17.2994 140.95 17.2815V16.0105Z" stroke="#718389" stroke-width="0.449943"/>
<path id="Vector_13" d="M163.674 16.1232V12.9848C163.674 12.8963 163.63 12.8521 163.541 12.8521L159.96 12.8408C159.877 12.8408 159.836 12.8821 159.836 12.9646L159.888 24.5416C159.888 24.6226 159.928 24.6631 160.009 24.6631C161.81 24.6616 163.611 24.6586 165.411 24.6541C168.342 24.6451 170.043 23.2975 170 20.2581C169.948 16.5034 166.833 16.2536 163.836 16.2829C163.728 16.2844 163.674 16.2311 163.674 16.1232Z" stroke="#718389" stroke-width="0.449943"/>
<path id="Vector_14" d="M93.1665 21.7807C95.612 21.8775 98.2419 21.7515 99.1868 19.0788C99.4207 18.4197 99.3172 17.585 99.3307 16.8539C99.3645 15.1643 98.5703 13.8347 97.0068 13.2003C96.4549 12.9784 95.5085 12.8621 94.1676 12.8516C92.5539 12.8411 90.9371 12.8426 89.3173 12.8561C89.2438 12.8561 89.207 12.8929 89.207 12.9664V24.5209C89.207 24.6049 89.2498 24.6476 89.3353 24.6491L92.9281 24.6964C92.997 24.6964 93.0315 24.6626 93.0315 24.5951V21.9112C93.0315 21.8197 93.0765 21.7762 93.1665 21.7807Z" stroke="#718389" stroke-width="0.449943"/>
<path id="Vector_15" d="M152.601 15.943H154.45C154.562 15.943 154.619 15.9992 154.619 16.1117V24.5549C154.619 24.6344 154.658 24.6741 154.738 24.6741L158.333 24.6539C158.406 24.6539 158.443 24.6179 158.443 24.5459V12.9621C158.443 12.8871 158.406 12.8496 158.331 12.8496H148.884C148.807 12.8496 148.769 12.8879 148.769 12.9643C148.769 14.9426 148.768 16.9216 148.765 18.9013C148.762 20.4986 148.497 21.6572 146.646 21.565C146.562 21.5605 146.52 21.6002 146.52 21.6842V24.5459C146.52 24.6389 146.565 24.6846 146.657 24.6831C147.651 24.6674 148.81 24.7349 149.667 24.4739C152.873 23.4953 152.551 19.1128 152.457 16.0892C152.454 15.9917 152.502 15.943 152.601 15.943Z" stroke="#718389" stroke-width="0.449943"/>
<path id="Vector_16" d="M84.0403 16.8605C84.0403 16.487 83.892 16.1287 83.6278 15.8646C83.3637 15.6005 83.0055 15.4521 82.632 15.4521H82.3575C81.984 15.4521 81.6258 15.6005 81.3617 15.8646C81.0976 16.1287 80.9492 16.487 80.9492 16.8605V20.6625C80.9492 21.036 81.0976 21.3942 81.3617 21.6583C81.6258 21.9224 81.984 22.0708 82.3575 22.0708H82.632C83.0055 22.0708 83.3637 21.9224 83.6278 21.6583C83.892 21.3942 84.0403 21.036 84.0403 20.6625V16.8605Z" stroke="#718389" stroke-width="0.449943"/>
<path id="Vector_17" d="M163.724 19.2763L163.711 21.652C163.711 21.6626 163.713 21.6732 163.717 21.683C163.721 21.6928 163.727 21.7017 163.735 21.7093C163.742 21.7168 163.751 21.7228 163.761 21.7268C163.771 21.7309 163.781 21.733 163.792 21.733L164.942 21.7397C165.113 21.7407 165.282 21.7095 165.441 21.6479C165.599 21.5863 165.743 21.4956 165.865 21.3809C165.986 21.2662 166.083 21.1298 166.149 20.9794C166.215 20.8291 166.25 20.6678 166.251 20.5046V20.4507C166.253 20.1213 166.117 19.8048 165.874 19.5707C165.631 19.3365 165.3 19.2039 164.955 19.2021L163.805 19.1953C163.784 19.1953 163.763 19.2038 163.748 19.219C163.733 19.2342 163.724 19.2548 163.724 19.2763Z" stroke="#718389" stroke-width="0.449943"/>
<path id="Vector_18" d="M93.0859 15.8283L93.0904 18.8024C93.0904 18.818 93.0966 18.8328 93.1076 18.8438C93.1185 18.8548 93.1334 18.8609 93.1489 18.8609L94.3165 18.8587C94.4882 18.8584 94.6581 18.8239 94.8166 18.7571C94.975 18.6904 95.119 18.5927 95.2401 18.4697C95.3613 18.3466 95.4573 18.2006 95.5227 18.04C95.5882 17.8794 95.6217 17.7073 95.6214 17.5336V17.0882C95.6208 16.7373 95.4825 16.4011 95.2369 16.1534C94.9914 15.9058 94.6587 15.767 94.312 15.7676L93.1444 15.7698C93.1289 15.7698 93.114 15.776 93.1031 15.787C93.0921 15.7979 93.0859 15.8128 93.0859 15.8283Z" stroke="#718389" stroke-width="0.449943"/>
</g>
<path id="Vector_19" d="M18.9129 1.09452C18.7989 1.61196 18.7412 2.13689 18.7397 2.66932C18.7337 9.9389 18.7329 17.2092 18.7374 24.4803C18.7374 24.5103 18.7487 24.5358 18.7712 24.5568C18.7877 24.5703 18.7974 24.586 18.8004 24.604C18.7974 24.6235 18.7862 24.6408 18.7667 24.6558C18.7457 24.6708 18.7352 24.6918 18.7352 24.7188V36.4645C18.7352 36.532 18.7022 36.5643 18.6362 36.5613C13.5578 36.3918 9.34337 34.58 5.99279 31.126C-0.351402 24.5883 -0.697858 14.2329 5.23014 7.27449C8.61971 3.29399 13.0831 1.21301 18.6204 1.03153C18.7209 1.02853 18.8184 1.04953 18.9129 1.09452Z" fill="#718389"/>
<path id="Vector_20" d="M36.4453 36.5005L36.4633 12.901L36.4993 1.08552C36.4993 1.0741 36.5016 1.06279 36.506 1.05227C36.5105 1.04175 36.517 1.03223 36.5251 1.02426C36.5333 1.01629 36.543 1.01004 36.5536 1.00588C36.5643 1.00172 36.5756 0.999729 36.587 1.00003C40.1266 1.05102 43.3257 2.0019 46.1843 3.85267C60.9515 13.4095 54.2068 36.5793 36.4453 36.5005Z" fill="#718389"/>
<path id="Vector_21" d="M18.9127 1.09473L36.4628 12.9012L36.4448 36.5007L18.8003 24.6042C18.7973 24.5862 18.7875 24.5705 18.771 24.557C18.7485 24.536 18.7373 24.5105 18.7373 24.4805C18.7328 17.2094 18.7335 9.9391 18.7395 2.66953C18.741 2.13709 18.7988 1.61216 18.9127 1.09473Z" fill="#02222D"/>
<path id="Vector_22" d="M87.9141 20.6126C87.9151 21.1716 87.806 21.7253 87.593 22.2421C87.38 22.7589 87.0673 23.2286 86.6727 23.6246C86.2781 24.0205 85.8095 24.3349 85.2934 24.5497C84.7774 24.7645 84.2241 24.8755 83.6651 24.8765L81.3524 24.8805C80.2235 24.8825 79.1401 24.4359 78.3405 23.6391C77.5409 22.8423 77.0905 21.7604 77.0885 20.6315L77.082 16.9105C77.0811 16.3515 77.1902 15.7978 77.4032 15.2811C77.6162 14.7643 77.9289 14.2945 78.3235 13.8985C78.718 13.5026 79.1867 13.1883 79.7028 12.9735C80.2188 12.7586 80.7721 12.6476 81.3311 12.6466L83.6438 12.6426C84.7726 12.6406 85.8561 13.0872 86.6557 13.884C87.4553 14.6809 87.9057 15.7627 87.9076 16.8916L87.9141 20.6126ZM84.0391 16.8606C84.0391 16.487 83.8908 16.1288 83.6267 15.8647C83.3626 15.6006 83.0043 15.4522 82.6308 15.4522H82.3564C81.9828 15.4522 81.6246 15.6006 81.3605 15.8647C81.0964 16.1288 80.948 16.487 80.948 16.8606V20.6626C80.948 21.0361 81.0964 21.3943 81.3605 21.6584C81.6246 21.9225 81.9828 22.0709 82.3564 22.0709H82.6308C83.0043 22.0709 83.3626 21.9225 83.6267 21.6584C83.8908 21.3943 84.0391 21.0361 84.0391 20.6626V16.8606Z" fill="#718389"/>
<path id="Vector_23" d="M71.9409 17.1351V12.8922C71.9409 12.8743 71.948 12.8571 71.9607 12.8444C71.9733 12.8318 71.9905 12.8247 72.0084 12.8247L75.7542 12.8584C75.7721 12.8584 75.7892 12.8655 75.8019 12.8782C75.8146 12.8908 75.8217 12.908 75.8217 12.9259V24.5884C75.8217 24.6063 75.8146 24.6235 75.8019 24.6362C75.7892 24.6488 75.7721 24.6559 75.7542 24.6559L72.0084 24.6694C71.9905 24.6694 71.9733 24.6623 71.9607 24.6496C71.948 24.637 71.9409 24.6198 71.9409 24.6019V20.5659C71.9409 20.548 71.9338 20.5309 71.9211 20.5182C71.9085 20.5056 71.8913 20.4984 71.8734 20.4984H68.8026C68.7847 20.4984 68.7675 20.5056 68.7548 20.5182C68.7422 20.5309 68.7351 20.548 68.7351 20.5659V24.6424C68.7351 24.6603 68.728 24.6775 68.7153 24.6901C68.7026 24.7028 68.6855 24.7099 68.6676 24.7099L65.0343 24.7054C65.0164 24.7054 64.9992 24.6983 64.9866 24.6856C64.9739 24.673 64.9668 24.6558 64.9668 24.6379V12.8517C64.9668 12.8338 64.9739 12.8166 64.9866 12.8039C64.9992 12.7913 65.0164 12.7842 65.0343 12.7842L68.6676 12.8157C68.6855 12.8157 68.7026 12.8228 68.7153 12.8354C68.728 12.8481 68.7351 12.8653 68.7351 12.8832V17.1014C68.7351 17.1193 68.7422 17.1364 68.7548 17.1491C68.7675 17.1618 68.7847 17.1689 68.8026 17.1689L71.8734 17.2026C71.8913 17.2026 71.9085 17.1955 71.9211 17.1828C71.9338 17.1702 71.9409 17.153 71.9409 17.1351Z" fill="#718389"/>
<path id="Vector_24" d="M107.318 17.1243V12.9173C107.318 12.8994 107.325 12.8822 107.338 12.8696C107.35 12.8569 107.368 12.8498 107.386 12.8498H111.131C111.14 12.8498 111.149 12.8516 111.157 12.855C111.165 12.8583 111.173 12.8633 111.179 12.8696C111.185 12.8759 111.19 12.8833 111.194 12.8915C111.197 12.8997 111.199 12.9084 111.199 12.9173V24.6203C111.199 24.6292 111.197 24.638 111.194 24.6462C111.19 24.6543 111.185 24.6618 111.179 24.668C111.173 24.6743 111.165 24.6793 111.157 24.6827C111.149 24.6861 111.14 24.6878 111.131 24.6878L107.386 24.6518C107.368 24.6518 107.35 24.6447 107.338 24.6321C107.325 24.6194 107.318 24.6022 107.318 24.5843V20.5663C107.318 20.5484 107.311 20.5313 107.298 20.5186C107.286 20.506 107.268 20.4988 107.251 20.4988H104.18C104.162 20.4988 104.145 20.506 104.132 20.5186C104.119 20.5313 104.112 20.5484 104.112 20.5663V24.6001C104.112 24.618 104.105 24.6351 104.092 24.6478C104.08 24.6605 104.063 24.6676 104.045 24.6676L100.321 24.6946C100.304 24.6946 100.286 24.6875 100.274 24.6748C100.261 24.6621 100.254 24.645 100.254 24.6271L100.299 12.9083C100.299 12.8904 100.306 12.8732 100.319 12.8606C100.331 12.8479 100.348 12.8408 100.366 12.8408L104.045 12.8543C104.063 12.8543 104.08 12.8614 104.092 12.8741C104.105 12.8867 104.112 12.9039 104.112 12.9218V17.113C104.112 17.1309 104.119 17.1481 104.132 17.1607C104.145 17.1734 104.162 17.1805 104.18 17.1805L107.251 17.1918C107.268 17.1918 107.286 17.1847 107.298 17.172C107.311 17.1593 107.318 17.1422 107.318 17.1243Z" fill="#718389"/>
<path id="Vector_25" d="M120.349 12.8495H123.597C123.62 12.8495 123.643 12.8587 123.659 12.8752C123.676 12.8917 123.685 12.914 123.685 12.9372V24.5705C123.685 24.5938 123.676 24.6161 123.659 24.6326C123.643 24.649 123.62 24.6582 123.597 24.6582L120.099 24.6673C120.087 24.6673 120.076 24.6649 120.065 24.6604C120.054 24.6558 120.044 24.6492 120.036 24.6408C120.028 24.6324 120.021 24.6224 120.017 24.6115C120.013 24.6006 120.011 24.589 120.011 24.5773L120.085 19.0587C120.085 19.0401 120.079 19.022 120.068 19.0071C120.057 18.9921 120.041 18.9811 120.024 18.9756C120.006 18.9701 119.987 18.9703 119.969 18.9764C119.952 18.9824 119.936 18.9939 119.926 19.0092L116.214 24.6582C116.206 24.6707 116.195 24.681 116.182 24.688C116.169 24.6951 116.154 24.6988 116.139 24.6988L112.916 24.6493C112.893 24.6487 112.871 24.6392 112.855 24.6228C112.839 24.6064 112.83 24.5844 112.83 24.5615V12.9485C112.83 12.9256 112.839 12.9036 112.855 12.8872C112.871 12.8708 112.893 12.8613 112.916 12.8608L116.344 12.8135C116.356 12.8132 116.367 12.8153 116.378 12.8195C116.389 12.8238 116.399 12.8302 116.408 12.8384C116.416 12.8466 116.423 12.8563 116.427 12.8671C116.432 12.8779 116.434 12.8895 116.434 12.9012L116.427 18.5345C116.427 18.5536 116.433 18.5722 116.445 18.5875C116.456 18.6027 116.472 18.6139 116.491 18.6192C116.509 18.6246 116.528 18.6238 116.546 18.6171C116.564 18.6103 116.579 18.5979 116.589 18.5818L120.274 12.89C120.282 12.8775 120.293 12.8673 120.306 12.8602C120.319 12.8531 120.334 12.8494 120.349 12.8495Z" fill="#718389"/>
<path id="Vector_26" d="M129.195 20.5708V24.5911C129.195 24.6108 129.187 24.6296 129.173 24.6436C129.16 24.6575 129.141 24.6653 129.121 24.6653L125.389 24.6586C125.369 24.6586 125.35 24.6507 125.336 24.6368C125.322 24.6229 125.314 24.604 125.314 24.5843V12.9241C125.314 12.9044 125.322 12.8855 125.336 12.8716C125.35 12.8576 125.369 12.8498 125.389 12.8498H129.121C129.141 12.8498 129.16 12.8576 129.173 12.8716C129.187 12.8855 129.195 12.9044 129.195 12.9241V17.2188C129.195 17.2385 129.203 17.2573 129.217 17.2713C129.231 17.2852 129.25 17.293 129.269 17.293H130.043C130.058 17.2931 130.071 17.2891 130.083 17.2815C130.095 17.2739 130.105 17.2631 130.111 17.2503L132.07 12.8858C132.076 12.8726 132.085 12.8613 132.097 12.8533C132.109 12.8453 132.123 12.841 132.138 12.8408L136.133 12.8543C136.146 12.8545 136.158 12.8578 136.169 12.8641C136.18 12.8704 136.189 12.8793 136.196 12.8902C136.203 12.901 136.206 12.9133 136.207 12.9259C136.207 12.9385 136.204 12.9511 136.199 12.9623L133.344 18.6721C133.338 18.6825 133.336 18.6941 133.336 18.7058C133.336 18.7176 133.338 18.7291 133.344 18.7396L136.498 24.5596C136.504 24.5709 136.507 24.5837 136.507 24.5966C136.507 24.6096 136.503 24.6222 136.497 24.6334C136.49 24.6445 136.481 24.6538 136.469 24.6601C136.458 24.6665 136.445 24.6699 136.433 24.6698L132.183 24.6676C132.169 24.6678 132.155 24.6642 132.143 24.657C132.131 24.6498 132.122 24.6395 132.115 24.6271L130.104 20.5438C130.098 20.5318 130.089 20.5216 130.077 20.5145C130.066 20.5074 130.052 20.5035 130.039 20.5033L129.269 20.4966C129.25 20.4966 129.231 20.5044 129.217 20.5183C129.203 20.5323 129.195 20.5511 129.195 20.5708Z" fill="#718389"/>
<path id="Vector_27" d="M140.95 16.0105V17.2815C140.95 17.2994 140.957 17.3166 140.97 17.3293C140.983 17.3419 141 17.349 141.018 17.349H145.214C145.231 17.349 145.249 17.3562 145.261 17.3688C145.274 17.3815 145.281 17.3986 145.281 17.4165V20.1477C145.281 20.1567 145.279 20.1657 145.276 20.174C145.272 20.1824 145.267 20.1899 145.26 20.1962C145.254 20.2025 145.246 20.2074 145.238 20.2107C145.229 20.214 145.22 20.2155 145.211 20.2152L141.02 20.1432C141.011 20.1429 141.002 20.1444 140.994 20.1477C140.985 20.1509 140.977 20.1558 140.971 20.1621C140.964 20.1684 140.959 20.176 140.956 20.1843C140.952 20.1927 140.95 20.2016 140.95 20.2107V21.4998C140.95 21.5177 140.957 21.5348 140.97 21.5475C140.983 21.5601 141 21.5673 141.018 21.5673H145.945C145.963 21.5673 145.98 21.5744 145.992 21.587C146.005 21.5997 146.012 21.6168 146.012 21.6347V24.5954C146.012 24.6133 146.005 24.6304 145.992 24.6431C145.98 24.6557 145.963 24.6629 145.945 24.6629L137.232 24.6584C137.223 24.6584 137.214 24.6566 137.206 24.6532C137.198 24.6498 137.19 24.6449 137.184 24.6386C137.178 24.6323 137.173 24.6249 137.169 24.6167C137.166 24.6085 137.164 24.5997 137.164 24.5909L137.187 12.9171C137.187 12.9082 137.188 12.8995 137.192 12.8913C137.195 12.8831 137.2 12.8756 137.206 12.8694C137.213 12.8631 137.22 12.8581 137.228 12.8547C137.236 12.8514 137.245 12.8496 137.254 12.8496H145.544C145.553 12.8496 145.562 12.8514 145.57 12.8547C145.578 12.8581 145.586 12.8631 145.592 12.8694C145.598 12.8756 145.603 12.8831 145.607 12.8913C145.61 12.8995 145.612 12.9082 145.612 12.9171L145.63 15.8755C145.63 15.8934 145.623 15.9105 145.61 15.9232C145.597 15.9359 145.58 15.943 145.562 15.943H141.018C141 15.943 140.983 15.9501 140.97 15.9627C140.957 15.9754 140.95 15.9926 140.95 16.0105Z" fill="#718389"/>
<path id="Vector_28" d="M163.836 16.2829C166.833 16.2536 169.948 16.5034 170 20.2581C170.043 23.2975 168.342 24.6451 165.411 24.6541C163.611 24.6586 161.81 24.6616 160.009 24.6631C159.928 24.6631 159.888 24.6226 159.888 24.5416L159.836 12.9646C159.836 12.8821 159.877 12.8408 159.96 12.8408L163.541 12.8521C163.63 12.8521 163.674 12.8963 163.674 12.9848V16.1232C163.674 16.2311 163.728 16.2844 163.836 16.2829ZM163.726 19.2773L163.712 21.653C163.712 21.6636 163.714 21.6741 163.718 21.6839C163.722 21.6938 163.728 21.7027 163.736 21.7102C163.743 21.7177 163.752 21.7237 163.762 21.7278C163.772 21.7318 163.783 21.7339 163.793 21.7339L164.943 21.7407C165.114 21.7416 165.283 21.7104 165.442 21.6488C165.6 21.5873 165.744 21.4965 165.866 21.3818C165.988 21.2672 166.084 21.1307 166.15 20.9804C166.217 20.83 166.251 20.6687 166.252 20.5056V20.4516C166.254 20.1223 166.118 19.8058 165.875 19.5716C165.632 19.3375 165.302 19.2049 164.956 19.203L163.807 19.1963C163.785 19.1963 163.765 19.2048 163.749 19.22C163.734 19.2352 163.726 19.2558 163.726 19.2773Z" fill="#718389"/>
<path id="Vector_29" d="M93.0315 21.9112V24.5951C93.0315 24.6626 92.997 24.6964 92.9281 24.6964L89.3353 24.6491C89.2498 24.6476 89.207 24.6049 89.207 24.5209V12.9664C89.207 12.8929 89.2438 12.8561 89.3173 12.8561C90.9371 12.8426 92.5539 12.8411 94.1676 12.8516C95.5085 12.8621 96.4549 12.9784 97.0068 13.2003C98.5703 13.8347 99.3645 15.1643 99.3307 16.8539C99.3172 17.585 99.4207 18.4197 99.1868 19.0788C98.2419 21.7515 95.612 21.8775 93.1665 21.7807C93.0765 21.7762 93.0315 21.8197 93.0315 21.9112ZM93.0855 15.828L93.09 18.8021C93.09 18.8176 93.0962 18.8325 93.1072 18.8435C93.1181 18.8544 93.133 18.8606 93.1485 18.8606L94.3161 18.8584C94.4878 18.8581 94.6577 18.8236 94.8162 18.7568C94.9746 18.6901 95.1186 18.5924 95.2397 18.4693C95.3609 18.3463 95.4569 18.2003 95.5223 18.0397C95.5878 17.8791 95.6213 17.707 95.621 17.5333V17.0878C95.6204 16.737 95.4821 16.4008 95.2365 16.1531C94.991 15.9055 94.6583 15.7667 94.3116 15.7672L93.144 15.7695C93.1285 15.7695 93.1136 15.7757 93.1027 15.7866C93.0917 15.7976 93.0855 15.8125 93.0855 15.828Z" fill="#718389"/>
<path id="Vector_30" d="M152.457 16.0892C152.551 19.1128 152.873 23.4953 149.667 24.4739C148.81 24.7349 147.651 24.6674 146.657 24.6831C146.565 24.6846 146.52 24.6389 146.52 24.5459V21.6842C146.52 21.6002 146.562 21.5605 146.646 21.565C148.497 21.6572 148.762 20.4986 148.765 18.9013C148.768 16.9216 148.769 14.9426 148.769 12.9643C148.769 12.8879 148.807 12.8496 148.884 12.8496H158.331C158.406 12.8496 158.443 12.8871 158.443 12.9621V24.5459C158.443 24.6179 158.406 24.6539 158.333 24.6539L154.738 24.6741C154.658 24.6741 154.619 24.6344 154.619 24.5549V16.1117C154.619 15.9992 154.562 15.943 154.45 15.943H152.601C152.502 15.943 152.454 15.9917 152.457 16.0892Z" fill="#718389"/>
</g>
</svg>
