<svg width="242" height="52" viewBox="0 0 242 52" fill="none" xmlns="http://www.w3.org/2000/svg">
<g id="Gazprombank 1" clip-path="url(#clip0_182_1743)">
<g id="g931">
<path id="path883" fill-rule="evenodd" clip-rule="evenodd" d="M0 25.5396C0 39.6381 11.4402 51.0783 25.5386 51.0783C39.6371 51.0783 51.0773 39.6381 51.0773 25.5396C51.0773 11.4411 39.6371 0.000976562 25.5386 0.000976562C11.4402 0.000976562 0 11.4411 0 25.5396ZM0.901922 25.5396C0.901922 11.9158 11.9623 0.855429 25.5861 0.855429C39.2099 0.855429 50.2703 11.9158 50.2703 25.5396C50.2703 39.1159 39.2099 50.1763 25.5861 50.1763C11.9623 50.2238 0.901922 39.1634 0.901922 25.5396Z" fill="#718389"/>
<path id="path885" fill-rule="evenodd" clip-rule="evenodd" d="M7.9745 18.5602C14.5253 14.288 21.7407 11.7721 33.9878 13.9082C34.6524 13.5284 35.0322 13.1487 35.222 12.3417C32.184 11.2499 28.8611 10.8701 24.5889 10.9176C20.7438 11.0126 13.8133 12.4366 10.1106 14.6202L11.2499 13.1962C13.8607 11.6771 20.6014 9.6834 25.6332 9.54099C29.1934 9.49353 31.0447 9.6834 35.2695 10.8227C34.8898 10.1106 34.0353 9.73087 32.7536 9.16124C28.6712 7.30992 20.9812 7.16751 14.7152 9.92075C15.5222 9.39859 16.2817 8.92389 17.326 8.44919C19.4147 7.4998 22.785 6.59788 27.0098 6.64535C30.3801 6.69282 34.4151 7.87956 36.8835 10.3005C37.3107 10.7752 37.5481 11.2974 37.643 11.7246C39.5892 12.7215 40.7285 13.6234 41.3456 14.7152C41.583 15.2848 41.7254 15.9019 41.583 16.5665C42.39 17.0412 42.7697 17.4684 43.1969 17.9906C43.4818 18.4178 43.7191 18.94 43.7666 19.4147C43.8615 20.0318 43.909 20.6964 43.2919 21.5033C43.9565 21.8356 44.4786 22.7375 44.5736 23.1648C44.8584 24.6363 43.9565 26.0604 42.6748 27.1997C41.2507 28.4814 38.0702 29.9529 35.5069 30.6175C30.3801 31.8992 25.8705 32.4688 22.2628 33.1334C23.8768 33.5131 26.0604 34.0353 29.6681 34.0353C37.3107 34.0353 44.0514 30.4276 44.0514 30.4276C44.0514 30.4276 43.909 30.9023 43.7666 31.3295C38.9247 34.2727 31.1871 35.5069 27.9117 35.3645C24.5414 35.222 21.7407 34.6999 18.9874 33.8454C18.133 34.0828 17.326 34.3201 16.519 34.6999C20.6964 36.5987 23.8768 37.0259 27.4845 37.3107C31.1397 37.5955 37.1683 36.6936 42.295 34.8423C42.0577 35.0796 41.9627 35.4594 41.7254 35.6493C39.1146 37.0259 33.5606 38.4025 30.8074 38.4974C28.0541 38.5924 24.6838 38.4974 21.7407 37.9753C19.2248 37.5006 17.1361 36.6936 15 35.7442C14.6202 36.029 14.4304 36.4088 14.3354 36.836C22.5477 41.2032 30.4276 41.2982 39.3994 38.4974L38.5924 39.3044C28.7187 43.2919 21.0286 41.7254 15.0475 38.8772C14.8576 38.7823 14.6202 38.6873 14.4304 38.5924C15 39.5418 19.5571 42.8647 24.6363 43.2919C28.1491 43.5767 32.4213 42.9596 34.9847 41.9627L33.4657 42.7222C32.2315 43.3393 28.9561 44.716 24.399 44.3837C18.3229 43.9565 14.9051 41.2982 13.3386 39.8741C12.6265 39.2095 12.2942 38.45 12.0569 37.5006C10.6803 36.7885 9.82581 36.029 9.11377 34.9372C8.68654 34.2727 8.78148 33.5606 8.87642 32.9435L9.01883 32.3739C8.35425 31.8992 7.68968 31.377 7.40486 30.8548C6.78776 29.763 7.16751 28.8611 7.59474 28.1016C7.21498 27.6744 6.8827 27.2946 6.74029 26.8674C6.59788 26.3452 6.55041 25.8705 6.59788 25.3484C6.69282 24.4464 7.21498 23.592 7.83209 22.88C9.16124 21.3609 11.2499 20.1742 14.8576 18.9874C18.3703 17.8482 19.747 17.6583 22.4053 17.0412C25.4908 16.3291 29.1934 16.0918 32.2789 15C23.6869 13.481 14.7152 14.8576 7.45233 19.8894L7.9745 18.5602ZM37.2632 13.2436C37.1683 13.6708 36.6936 14.1455 36.4088 14.4778C37.3582 14.7152 38.3076 15.0475 39.2095 15.4272C39.0671 14.5728 38.1177 13.7658 37.2632 13.2436ZM10.7752 30.4276C10.2056 30.0953 9.82581 29.9055 9.39859 29.5732C9.16124 30.0953 9.63593 30.7124 10.1106 30.9973C10.3005 30.8074 10.5379 30.6175 10.7752 30.4276ZM39.7791 19.1773C40.3962 19.4621 40.9659 19.6995 41.488 20.0792C41.8678 19.3197 41.6304 18.845 40.8235 18.1805C40.5386 18.5602 40.1589 18.8925 39.7791 19.1773ZM37.9278 20.3166C36.6936 20.8862 34.8423 21.5033 32.2789 22.1679C30.1903 22.6901 25.0161 23.4496 19.4621 24.6363C17.7058 25.0161 12.9588 26.1554 10.6328 28.1016C11.2974 28.6238 11.6771 28.7662 12.4366 29.1459C13.386 28.5288 14.7152 27.9592 16.6614 27.437C20.0792 26.5351 22.5951 26.1554 25.6807 25.6332C28.7187 25.1585 34.4151 23.9718 37.5955 22.8325C38.6399 22.4527 39.5892 21.978 40.3013 21.4084C40.0639 21.2185 38.0228 20.2217 37.9278 20.3166ZM14.0031 33.5606C14.4778 33.2758 15.0475 32.991 15.6646 32.7536C14.7627 32.3739 13.8607 31.9941 12.9588 31.5669C12.5316 31.8042 12.1518 32.0891 11.867 32.3739C12.579 32.7536 13.2436 33.1809 14.0031 33.5606ZM11.06 33.8454C11.06 34.4151 11.3923 34.9372 12.1518 35.5543C12.2468 35.222 12.3892 35.0322 12.6265 34.7474C12.0569 34.4625 11.5822 34.1302 11.06 33.8454ZM15.3798 23.3072C21.5983 21.5033 28.1491 20.9337 34.7948 19.1773C32.184 18.4653 30.8074 18.1805 28.0541 18.5127C24.0667 18.9874 19.6995 19.8419 15.9494 20.9337C14.4778 21.3609 6.74029 23.5445 8.97136 26.63C8.97136 26.6775 10.3005 24.8262 15.3798 23.3072ZM38.7348 16.9463C37.7379 16.4716 36.4563 16.0443 35.0796 15.6646C34.4625 16.1393 33.798 16.5665 32.7536 16.9463C34.4151 17.2311 35.6967 17.7058 37.1208 18.133C37.4056 18.2754 38.5449 17.1836 38.7348 16.9463ZM41.8203 22.9274C41.6304 23.0698 41.4406 23.2597 41.2032 23.4021C39.7791 24.4939 37.5481 25.3484 34.4625 26.2028C28.0541 27.9117 23.4021 28.1965 18.0855 29.4782C17.0412 29.7156 15.9969 30.0953 15 30.4751C15.9969 30.9973 17.0412 31.4245 18.133 31.8517C20.2691 31.2346 21.3135 30.9498 24.4464 30.4276C25.6332 30.2377 29.2883 29.5732 31.9466 29.0035C36.6936 28.0541 43.6716 25.8231 41.8203 22.9274Z" fill="#718389"/>
<g id="g1109">
<path id="path887" fill-rule="evenodd" clip-rule="evenodd" d="M75.5234 36.6463H80.7926L81.4097 32.8012H85.0174L85.6345 36.6463H90.9036L86.4414 14.2881H79.8906L75.5234 36.6463ZM83.261 21.0288L84.2578 27.8644H82.3116L83.261 21.0288Z" fill="#718389"/>
<path id="path889" fill-rule="evenodd" clip-rule="evenodd" d="M95.9368 22.9749C96.7912 22.9749 98.3102 22.4527 98.3102 20.7913C98.3102 18.845 96.5064 18.7026 96.0317 18.7026C95.4146 18.7026 94.3228 18.7976 93.1835 19.3197L93.136 14.4778C94.8924 14.0506 96.1741 13.9082 97.6457 13.9082C101.87 13.9082 103.817 16.8988 103.817 19.7944C103.817 22.6426 102.155 24.3515 100.589 25.0161V25.2534C102.108 25.7281 104.149 27.1997 104.149 30.6175C104.149 34.8423 101.206 37.1683 97.4558 37.1683C95.4146 37.1683 94.1329 36.8835 92.5664 36.029L92.6613 31.377C94.1329 31.9941 95.1298 32.0416 96.1266 32.0416C97.7881 32.0416 98.4526 30.8074 98.4526 29.9055C98.4526 28.6712 97.6457 27.8168 95.8893 27.8168H93.7531V22.9749H95.9368Z" fill="#718389"/>
<path id="polygon891" fill-rule="evenodd" clip-rule="evenodd" d="M120.762 36.6463H115.54V19.6521H111.79V36.6463H106.568V14.2881H120.762V36.6463Z" fill="#718389"/>
<path id="path893" fill-rule="evenodd" clip-rule="evenodd" d="M123.705 36.6463H128.879V29.2885H130.636C135.762 29.2885 137.376 24.6839 137.376 21.7408C137.376 18.8452 135.572 14.2881 130.636 14.2881H123.705V36.6463ZM128.879 19.2249H130.113C131.3 19.2249 132.012 19.937 132.012 21.7883C132.012 24.2092 130.778 24.3516 130.113 24.3516H128.879V19.2249Z" fill="#718389"/>
<path id="path895" fill-rule="evenodd" clip-rule="evenodd" d="M146.966 36.9323C153.137 36.9323 155.178 31.1885 155.178 25.4447C155.178 19.7009 153.09 13.957 146.966 13.957C140.795 13.957 138.754 19.7009 138.754 25.4447C138.754 31.1885 140.843 36.9323 146.966 36.9323ZM146.966 31.5208C145.162 31.5208 144.213 29.3847 144.213 25.4447C144.213 21.5047 145.162 19.3686 146.966 19.3686C148.817 19.3686 149.719 21.5047 149.719 25.4447C149.767 29.3847 148.817 31.5208 146.966 31.5208Z" fill="#718389"/>
<path id="path897" fill-rule="evenodd" clip-rule="evenodd" d="M177.773 36.6463H183.992C185.321 36.6463 190.923 36.0766 190.97 29.3359C190.97 23.6396 186.603 22.6427 183.802 22.6427H182.9V19.6996H189.783V14.2881H177.821V36.6463H177.773ZM182.9 32.1841V27.1049H183.66C184.277 27.1049 185.891 27.1523 185.891 29.4309C185.891 31.8044 184.229 32.1841 183.66 32.1841H182.9Z" fill="#718389"/>
<path id="polygon899" fill-rule="evenodd" clip-rule="evenodd" d="M223.391 36.6463H218.359V27.722H214.704V36.6463H209.625V14.2881H214.704V22.3579H218.359V14.2881H223.391V36.6463Z" fill="#718389"/>
<path id="polygon901" fill-rule="evenodd" clip-rule="evenodd" d="M241.429 14.2881L237.442 24.9213L241.999 36.6463H236.018L233.122 27.6745H231.888V36.6463H226.809V14.2881H231.888V22.3579H232.98L235.923 14.2881H241.429Z" fill="#718389"/>
<path id="polygon903" fill-rule="evenodd" clip-rule="evenodd" d="M65.5078 14.2881H76.141V19.8895H70.7769V36.6463H65.5078V14.2881Z" fill="#718389"/>
<path id="polygon905" fill-rule="evenodd" clip-rule="evenodd" d="M169.134 36.6463V23.0225L166.001 26.915L162.868 23.0225V36.6463H157.693V14.2881H162.108L166.001 19.5572L169.893 14.2881H174.308V36.6463H169.134Z" fill="#718389"/>
<path id="path907" fill-rule="evenodd" clip-rule="evenodd" d="M191.967 36.6931H197.236L197.853 32.8481H201.461L202.125 36.6931H207.394L202.932 14.335H196.381L191.967 36.6931ZM199.704 21.0756L200.701 27.9113H198.755L199.704 21.0756Z" fill="#718389"/>
</g>
</g>
</g>
<defs>
<clipPath id="clip0_182_1743">
<rect width="242" height="51.0773" fill="white"/>
</clipPath>
</defs>
</svg>
