<svg width="180" height="92" viewBox="0 0 180 92" fill="none" xmlns="http://www.w3.org/2000/svg">
<path fill-rule="evenodd" clip-rule="evenodd" d="M4.92969 91.8903H179.36V86.8203H4.92969V91.8903Z" fill="#718389"/>
<path fill-rule="evenodd" clip-rule="evenodd" d="M165.06 14.4402C165.06 14.4402 165.06 14.4402 165.05 14.4502C164.38 15.1502 163.83 15.9002 163 16.1102C160.65 16.6302 159.3 17.9702 157.21 18.8202C157.1 18.6902 156.98 18.5502 156.86 18.4002L156.98 18.1302C156.98 18.1302 157 18.1402 157 18.1502C157.26 17.3402 157.72 16.5802 157.93 15.7102C158.07 15.1302 158.68 14.7202 159.17 14.4302C160.7 13.6202 160.85 11.8402 161.69 10.5902C161.63 11.6402 160.97 12.4802 160.62 13.4702L158.33 15.5602C158.16 16.2902 157.66 17.0402 157.84 17.7702C158.68 17.6802 159.2 16.7202 160.01 16.4902C161.23 16.1102 162.5 16.2002 163.51 15.4702C164.03 15.0602 164.61 14.7402 165.03 14.2302L165.06 14.4402ZM147.22 15.8202C147.09 15.7702 146.95 15.7102 146.82 15.6602C146.12 14.4402 145.5 12.7602 145.05 11.4902C144.7 10.1802 144.73 8.7002 144.85 7.4802C145.14 8.6102 144.79 9.8902 145.14 11.0002C145.64 12.5202 146.34 14.4402 147.22 15.8302V15.8202ZM158.23 22.7402C158.02 22.3902 157.56 22.0902 157.35 21.7202C157.64 21.0802 156.89 20.3502 157.32 19.8002C157.81 19.1602 158.59 18.7502 159.32 18.3802C160.33 17.8902 161.58 17.9402 162.71 17.8602C162.1 18.9602 161.81 20.2402 161.03 21.1702C160.31 22.0102 159.27 22.2502 158.34 22.7102C158.34 22.7102 158.25 22.7402 158.24 22.7402H158.23ZM169.62 12.0702C169.5 12.3302 169.33 12.5402 169.19 12.6802C169.1 12.4502 169.39 12.1602 169.62 12.0702ZM150.84 55.7702C151.01 56.7602 150.9 57.7502 150.64 58.6502C150.61 58.8002 150.41 58.7702 150.29 58.7702C149.91 57.9602 150.09 56.8802 150.06 55.9502C150.23 55.8602 150 55.5702 150.23 55.5402C150.49 55.5102 150.81 55.5102 150.84 55.7702ZM154.46 54.4902C154.23 54.1702 153.94 53.8502 153.82 53.4402C154.02 53.7602 154.34 54.0802 154.46 54.4902ZM145.06 54.2902C145.15 54.0002 145.26 53.6802 145.52 53.4502C145.43 53.7102 145.26 54.0602 145.06 54.2902ZM153.74 53.3602L153.34 52.7502C153.54 52.9202 153.63 53.1302 153.74 53.3602ZM154.55 52.9202C154.96 53.7002 155.59 54.4302 155.76 55.3302C155.18 54.3102 154.66 52.9702 153.82 51.9902C154.05 52.3102 154.34 52.6002 154.54 52.9202H154.55ZM144.54 53.7002C144.63 53.1502 145.06 52.5102 145.47 51.9302C145.27 52.5402 144.86 53.1502 144.54 53.7002ZM154.55 51.2002C154.35 51.2002 154.43 51.0002 154.32 50.9402C154.35 51.0002 154.58 51.0602 154.55 51.2002ZM144.19 52.7402C144.39 51.9302 144.97 51.2902 145.52 50.6502C145.12 51.3202 144.65 52.1302 144.19 52.7402ZM145.46 49.1302C145.03 50.0302 144.39 50.8502 143.87 51.6602C144.1 50.7302 144.85 49.9402 145.46 49.1302ZM143.49 50.7902C143.46 50.4402 143.72 50.0602 143.98 49.7402L145.66 47.5302C145.11 48.6102 144.13 49.6802 143.49 50.7902ZM143.4 49.6302H143.34C143.86 48.5002 144.7 47.5402 145.51 46.5802C144.93 47.5702 144.09 48.6202 143.4 49.6302ZM145.05 45.8502C144.62 46.7202 143.89 47.6202 143.34 48.4102C143.17 48.4102 143.25 48.1802 143.28 48.0902C143.86 47.3002 144.41 46.5802 145.04 45.8502H145.05ZM174.07 45.8802L174.04 45.7902L174.07 45.8502V45.8802ZM158.13 46.0802C157.96 45.8802 157.81 45.6402 157.72 45.3502C157.86 45.5502 158.07 45.7902 158.13 46.0802ZM157.64 45.1802C157.64 45.2702 157.52 45.2402 157.55 45.1502C157.61 45.1502 157.64 45.1502 157.64 45.1802ZM145.02 44.7402C144.41 45.6702 143.72 46.7202 143.05 47.4402C143.51 46.4802 144.29 45.5802 144.93 44.6502L145.02 44.7402ZM144.5 44.1902C144.01 45.0302 143.4 45.8502 142.85 46.4902C143.2 45.6802 143.89 44.9202 144.5 44.1902ZM142.82 45.3202C142.73 45.3202 142.62 45.3202 142.65 45.2302C142.97 44.6502 143.4 44.1302 143.89 43.6902L142.82 45.3202ZM158.39 43.5802L158.36 43.4902L158.39 43.5202V43.5802ZM142.53 44.1902C142.68 43.8702 142.96 43.4602 143.28 43.1702C143.16 43.5202 142.87 43.9302 142.53 44.1902ZM171.79 43.1702C173.35 43.7202 174.92 45.0302 175.7 46.6902C175.32 46.3102 174.98 45.7602 174.57 45.3802C174.48 45.3502 174.4 45.4702 174.46 45.5002C174.52 45.7002 174.69 45.8802 174.78 46.0802C174.46 45.7002 174.06 45.1502 173.59 44.7702C173.56 44.7402 173.53 44.8302 173.47 44.8602C173.59 45.1802 173.85 45.4402 173.99 45.7602C173.47 45.2702 173.15 44.6002 172.52 44.1302C172.43 44.1002 172.4 44.3002 172.43 44.3902C172.75 44.7402 172.95 45.1802 173.15 45.5802C172.72 45.0602 172.34 44.4202 171.79 43.9202C171.82 44.3802 172.2 44.9702 172.4 45.4602C171.94 44.9702 171.73 44.1202 171.07 43.8902C171.01 44.2102 171.39 44.4402 171.42 44.8202C171.19 44.3802 170.75 43.8602 170.35 43.4802C170.23 43.9702 170.87 44.5302 170.99 45.1402C170.47 44.3802 169.98 43.5102 169.57 42.7802C170.29 42.9502 171.02 42.8702 171.8 43.1602L171.79 43.1702ZM143.14 42.4702C143.05 42.5602 143 42.7302 142.88 42.7302C142.94 42.6402 142.97 42.4702 143.14 42.4702ZM159.17 41.1302C159.98 43.1702 160.36 45.8702 159.6 48.0502L159.05 50.2002C158.07 51.9202 157.46 53.8902 156.27 55.4302C156.53 55.0802 156.27 54.6202 156.1 54.3002C155.64 53.3402 155.26 52.2902 154.57 51.3602C155.44 52.3202 155.96 53.6602 156.51 54.8802C156.74 54.7302 156.74 54.4702 156.92 54.2702C156.49 52.7602 155.65 51.3602 154.78 50.0502C155.71 51.1502 156.4 52.4902 157.01 53.8302C157.21 53.8602 157.27 53.5702 157.27 53.4502C157.21 52.0002 156.23 50.8302 155.56 49.5802C156.31 50.5702 157.01 51.7002 157.44 52.8402C157.61 52.7202 157.73 52.4902 157.64 52.2002C157.12 50.7802 156.37 49.5302 155.56 48.2502C156.51 49.3302 157.21 50.6602 157.76 52.0002C158.05 51.8802 158.05 51.5102 157.93 51.2702C157.32 49.7902 156.69 48.3302 155.76 46.9402C156.83 48.1302 157.44 49.7002 158.08 51.1002C158.69 50.5802 158.17 49.8202 157.94 49.2702C157.56 48.4002 157.16 47.6102 156.61 46.8302C157.42 47.8202 157.97 49.0102 158.49 50.1202C158.78 50.0002 158.78 49.6002 158.69 49.3102C158.37 48.2602 157.85 47.2502 157.42 46.3202C158.09 47.1602 158.4 48.1802 158.87 49.1402C159.13 48.9102 159.01 48.4702 159.01 48.0902L158.17 46.1702C158.58 46.6402 158.81 47.3302 159.07 47.9702C159.27 47.9402 159.3 47.6802 159.27 47.4502C159.07 46.2902 158.4 45.2402 157.85 44.1902C158.46 44.9502 158.92 45.8802 159.33 46.8102C159.53 46.6102 159.45 46.2002 159.39 46.0002C159.01 45.2702 158.93 44.4302 158.49 43.7302C158.98 44.1402 159.01 44.9202 159.39 45.4702C159.53 45.4702 159.59 45.2702 159.53 45.1202C159.3 44.0402 158.89 43.0802 158.37 42.2102C158.8 42.6702 159.07 43.3702 159.33 43.9802C159.45 43.0502 159.27 42.0602 159.13 41.1302H159.19H159.17ZM161.89 39.4402L165.48 40.6602L167.88 42.2302C169.44 44.0902 171 45.9502 171.18 48.3602C170.86 47.2302 170.49 46.0902 169.76 45.1302C169.64 45.6802 170.14 46.3502 170.14 46.9902C169.56 45.8902 169.42 44.5202 168.37 43.6502C168.46 44.3802 168.77 45.1002 168.92 45.8302C168.49 45.0202 168.4 44.0802 167.79 43.3002C167.56 43.9702 168.17 44.7202 168.11 45.4502C167.88 44.7202 167.76 43.9102 167.39 43.2402C167.22 42.8602 167.04 42.4502 166.64 42.2502C166.73 42.9802 167.13 43.6502 167.25 44.3702C166.76 43.4402 166.61 42.2202 165.72 41.4602C165.92 42.1302 166.33 43.0602 166.56 43.8702C166.13 42.9402 165.72 41.8902 164.85 41.1102C164.91 41.7802 165.51 42.5602 165.63 43.4402C165.31 42.5102 164.7 41.6702 164.07 40.8802C164.19 41.6702 164.88 42.5102 164.85 43.4402C164.56 42.3302 164.04 41.2902 163.2 40.5302C163.35 41.2902 164.04 42.0402 164.13 42.9402C164.04 42.7102 163.93 42.4202 163.78 42.1802C163.46 41.4002 163 40.7602 162.3 40.1402C162.7 41.1902 163.46 42.3802 163.63 43.6302C163.34 42.2102 162.39 40.8702 161.34 39.8202C161.63 40.5202 161.95 41.3002 162.18 42.0902C161.63 41.1002 161.23 39.9102 160.36 39.0702C160.65 40.0002 161.43 40.9602 161.43 42.0402C161.14 40.7602 160.42 39.5402 159.64 38.4602C159.64 39.1902 160.25 39.9402 160.33 40.7602C159.9 39.7402 159.4 38.6102 158.91 37.5602C160.13 37.6802 160.94 38.7502 161.89 39.4202V39.4402ZM151.21 30.6002L151.12 30.5102L151.29 30.5702L151.2 30.6002H151.21ZM149.76 29.2602H149.7L149.67 29.1102H149.76V29.2602ZM151.87 27.4002C151.87 27.4902 151.81 27.5202 151.75 27.4902C151.61 27.4002 151.87 27.2902 151.87 27.4002ZM156.07 26.4402C156.07 26.9902 156.19 27.5202 156.36 28.0402C155.96 27.6602 155.96 26.9902 155.98 26.4402H156.07ZM154.97 25.3102C154.85 25.5402 154.71 25.8302 154.54 26.0102C154.54 25.8102 154.66 25.3402 154.92 25.2302C154.98 25.2002 155.04 25.2902 154.98 25.3202L154.97 25.3102ZM155.58 25.1402C155.67 25.3102 155.44 25.3402 155.44 25.4902C155.35 25.4302 155.38 25.1402 155.58 25.1402ZM157.16 24.9702C157.26 24.9602 156.69 24.8802 156.71 24.8102C156.82 24.7902 157.21 24.9202 157.16 24.9702ZM155.18 23.2502C155.3 23.5102 155.18 23.6902 155.27 23.9502C155.04 23.9802 155.04 23.7502 155.07 23.5702C155.07 23.4502 155.04 23.2202 155.18 23.2502ZM157.73 22.9302C157.48 23.1802 157.28 23.5602 157.41 23.8502C157.23 23.7802 157.13 23.4602 157.27 23.2202C157.41 23.0802 157.48 22.9002 157.72 22.9402L157.73 22.9302ZM156.5 23.2502C156.54 23.4702 156.28 23.7302 156.09 23.7302C156.27 23.4302 156.24 23.1702 156.02 22.8402C156.28 22.8402 156.46 23.1002 156.5 23.2502ZM149.45 23.5102C148.99 24.0902 149.8 24.2702 149.57 24.8802L149.8 24.7602C149.86 25.0202 149.68 25.4302 149.89 25.7202C150.06 25.6302 150 25.4002 150.21 25.4002C150.21 25.7202 150.01 26.1602 150.18 26.4802C150.38 26.4202 150.32 26.0402 150.53 26.1302C150.5 26.4502 150.39 26.8602 150.5 27.1802C150.79 27.0102 150.79 26.6602 151.02 26.4502C151.11 26.7702 150.85 27.1802 150.79 27.5302C151.11 27.7002 151.11 27.0902 151.34 26.9802C151.25 27.3002 151.11 27.7402 151.22 28.0602C151.54 28.0602 151.36 27.6802 151.68 27.6802C151.68 28.1202 151.25 28.5202 151.53 28.9902C151.82 28.4702 152.02 27.9402 152.25 27.4202C152.25 27.3302 152.39 27.3302 152.48 27.4202C152.28 27.6802 152.02 28.1202 152.13 28.4402C152.45 28.1502 152.59 27.6002 152.97 27.3902C153.09 27.6202 152.68 27.8002 152.88 28.0002C153.11 27.7402 153.49 27.4202 153.72 27.1902C153.78 27.2802 153.78 27.3402 153.84 27.3402C154.53 27.1702 154.62 25.8302 155.37 26.3802C155.05 26.7002 154.82 27.1102 154.56 27.4302C154.53 27.3402 154.56 27.2802 154.5 27.2302C154.04 27.9302 153.37 28.3602 152.97 29.0602L152.74 29.0002L152.45 29.5802C152.33 29.4902 152.54 29.2002 152.28 29.1402C152.05 29.3702 152.02 29.7202 151.82 29.9802C151.76 29.9202 151.88 29.6902 151.73 29.6902C151.41 29.6902 151.33 30.5302 151.01 30.1002C150.84 29.8702 151.15 29.4602 150.92 29.3402C150.72 29.2502 150.8 29.6002 150.6 29.6002C150.6 29.3402 150.72 28.9302 150.57 28.6702C150.4 28.7302 150.4 29.0502 150.19 28.9302C150.16 28.6402 150.39 28.2302 150.19 27.9402L149.76 28.2002C149.7 28.0002 149.91 27.7902 149.76 27.5902C149.79 27.5302 149.85 27.5902 149.88 27.6202C149.99 27.4702 149.99 27.1002 149.79 27.0702C149.44 27.0102 149.67 27.9402 149.35 27.5402C149.58 27.1902 149.44 26.6702 149.47 26.2902C149.24 26.3802 149.24 26.7002 148.98 26.7002C149.04 26.1802 149.27 25.5702 149.15 25.1002C148.95 25.2202 148.95 25.5102 148.72 25.5402C148.78 24.8102 149.15 24.0602 149.04 23.3302C148.84 23.4502 148.78 23.7702 148.63 23.9102C148.77 23.4702 148.63 22.8602 149.12 22.5402C149.58 22.7402 148.86 23.3302 149.44 23.5302L149.45 23.5102ZM148.96 22.2302C148.84 22.6102 148.55 22.9302 148.41 23.2202C148.44 23.0502 148.55 22.8402 148.44 22.7302C148.24 22.7302 148.01 23.0202 147.95 23.2202C147.83 23.5702 147.6 24.0302 147.75 24.3802L148.07 24.0302C148.07 24.6102 147.4 25.1902 147.72 25.7502C148.01 25.6302 147.95 25.2802 148.21 25.1102C148.21 25.8102 147.81 26.4802 147.83 27.2002C148.06 27.2002 148.06 26.7602 148.26 26.6502C148.26 27.2602 147.83 27.9002 148.2 28.4502C148.46 28.1902 148.55 27.7202 148.78 27.4002C148.78 28.0402 148.43 28.8302 148.58 29.5502C149.04 29.2602 148.99 28.6202 149.27 28.2102C149.24 28.9402 148.98 29.7502 149.12 30.4202C149.29 30.1902 149.35 29.7502 149.64 29.5802C149.5 30.0702 149.5 30.6802 149.38 31.2102L149.58 31.4102C149.78 31.1202 149.87 30.6302 150.1 30.4202C150.1 30.9402 149.84 31.5502 149.9 32.0802C150.16 31.9302 150.22 31.6402 150.3 31.4102C150.42 31.8202 150.04 32.3402 150.36 32.7502C150.56 32.2802 150.79 31.7602 150.88 31.2102C151 32.0202 150.42 32.8702 150.71 33.6002C151.11 32.8702 151.32 32.0602 151.67 31.3002C151.84 31.8202 151.24 32.2902 151.47 32.7802C152.02 32.0202 152.25 31.0402 152.6 30.1902C152.74 30.6302 152.37 31.0902 152.46 31.5002C152.98 31.0402 152.89 30.2202 153.39 29.7602C153.51 29.9902 153.27 30.3702 153.33 30.5702C153.82 29.9002 153.99 29.1502 154.31 28.3902C154.25 28.7402 154.14 29.1502 154.19 29.5002C154.65 28.9802 154.83 28.1902 155.06 27.5202C155.26 27.6602 154.94 28.1002 155.29 27.9302C155.35 27.5202 155.58 27.0902 155.67 26.7702C155.78 27.0602 155.78 27.4702 155.67 27.7302C155.87 28.1102 155.99 28.5702 156.07 28.9202C155.87 28.7502 155.87 28.4302 155.64 28.2502C155.38 28.3102 155.47 28.6302 155.55 28.7402C155.78 29.2302 155.96 29.7002 156.22 30.1902C155.99 29.9002 155.79 29.5802 155.58 29.2602C155.49 29.3502 155.29 29.4902 155.44 29.7602C155.67 30.2802 155.99 30.7802 156.22 31.3002C155.79 30.9502 155.55 30.3702 155.18 29.8702C154.95 29.9602 155.07 30.2802 155.15 30.3902C155.5 31.1202 155.99 31.7602 156.36 32.4802C155.67 31.9302 155.46 31.0302 154.86 30.3902C154.77 30.3902 154.77 30.4802 154.72 30.5102C154.95 31.5302 155.67 32.4002 156.08 33.2702C155.47 32.6602 155.07 31.8502 154.58 31.0902C154.26 31.4102 154.46 31.8502 154.58 32.1702C154.93 33.0702 155.65 33.7402 156.08 34.5802C155.39 33.7102 154.58 32.7802 154.11 31.8202C153.7 32.0202 154.25 32.3402 154.02 32.6102C154.43 33.8602 155.47 34.8802 155.96 36.0402C155.38 35.2002 154.57 34.3502 154.11 33.4202C153.94 33.1302 153.7 32.9002 153.73 32.4902C153.73 32.4002 153.53 32.4002 153.53 32.4902C153.41 34.2302 155.03 35.3102 155.29 36.9402C154.74 35.5202 153.5 34.3202 153.09 32.7802C152.89 33.2702 152.92 33.9102 153.12 34.4402C153.53 35.6602 154.34 36.7402 154.83 37.8702C154.02 36.5002 152.92 35.1402 152.66 33.4802C152.6 33.3902 152.4 33.3102 152.4 33.4802C152.2 35.8102 154.11 37.3502 154.54 39.4702C153.79 37.5802 152.54 35.9802 151.93 34.0302L151.73 34.2302L152.02 36.0302C152.54 37.1602 152.89 38.3602 153.26 39.5502C152.65 38.1002 152.02 36.5802 151.29 35.3102C151.55 37.0302 152.16 38.6802 152.27 40.3702C151.81 39.0302 151.63 37.4302 151.03 36.1002C150.77 37.7002 151.46 39.2402 151.52 40.8702C151.03 39.3002 150.8 37.6402 150.57 36.0102C150.19 36.6502 150.4 37.5502 150.22 38.2202C150.1 37.3502 150.28 36.4202 150.22 35.5202C149.7 36.5102 149.79 37.6702 149.58 38.7802C149.55 37.5902 149.75 36.4002 149.98 35.2902C149.14 36.4202 149.29 38.0502 148.62 39.1602C148.85 38.0002 149.28 36.9202 149.46 35.7002C149.49 35.2102 149.95 34.8002 149.87 34.4502L149.49 34.8602C148.74 36.4602 148.39 38.2902 147.72 39.9502C148.24 37.9202 148.82 35.7902 149.63 33.9302C148.1 35.0902 147.81 36.9802 146.97 38.5202C147.78 36.7502 148.21 34.6502 149.26 33.1402C148.13 34.0402 147.7 35.3802 147.06 36.5402C147.26 35.8402 147.67 35.1402 147.93 34.4502C148.19 33.8102 148.94 33.3202 149.03 32.7902C147.79 33.4902 147.41 34.8002 146.8 35.9002C147.09 34.6802 147.81 33.4902 148.71 32.5002C148.45 32.3502 148.19 32.5602 148.02 32.7002C147.09 33.6002 146.81 34.8802 146.02 35.8102C146.74 34.5602 147.21 33.0202 148.51 32.0602C148.39 31.6502 148.13 32.3502 147.9 32.1802C146.8 32.8802 146.43 34.0402 145.67 34.9702C146.28 33.7202 147 32.4102 148.04 31.5402C147.87 31.1002 147.66 31.8302 147.4 31.6602C146.59 32.2702 146.16 33.1402 145.49 33.8102C146.21 32.6802 147 31.3402 147.98 30.6102C146.79 30.7802 146.01 31.8902 145.2 32.7602C145.84 31.8302 146.56 30.9002 147.52 30.2002C147.32 29.9702 147 30.2002 146.8 30.2902C146.05 30.6102 145.41 31.3102 144.92 31.9802C145.41 30.8502 146.48 30.0902 147.41 29.3302C147.21 28.9802 147.01 29.5002 146.77 29.3602C146.13 29.6802 145.55 30.3202 145.12 30.9002C145.44 29.7702 146.68 29.1302 147.26 28.4302C146.33 28.5802 145.76 29.3602 145.21 29.9702C145.61 29.1602 146.22 28.4002 147 27.9302C146.59 27.7802 146.22 28.2202 145.84 28.3402C145.72 28.6302 145.43 28.8602 145.23 29.1202C145.64 28.3402 146.13 27.6102 146.94 27.2602C146.85 27.0802 146.68 27.1702 146.53 27.1702C146.24 27.3202 145.84 27.6902 145.63 27.9002C145.75 27.2902 146.35 27.0602 146.58 26.5602C146.35 26.5602 146.23 26.8502 146 26.9702C146.06 26.5602 146.58 26.2102 146.87 25.8402C146.84 25.7502 146.78 25.6702 146.72 25.6702C146.46 25.7302 146.34 26.0502 146.11 26.1402C146.34 25.5302 146.95 25.0402 147.15 24.4202C147.03 24.2702 146.95 24.5702 146.83 24.5102C147.06 23.9602 147.64 23.5202 147.76 22.9402C147.44 23.1102 147.18 23.4302 146.95 23.6702C147.09 22.8002 148.19 22.6202 148.4 21.7802C148.6 21.8702 148.72 22.1302 148.92 22.2502L148.96 22.2302ZM151.74 20.3402C151.34 20.3402 150.58 20.1402 150.09 20.6002C150 20.6602 150.06 20.7202 150.12 20.7502H150.64C150.5 21.0402 150.9 21.1302 151.05 21.2402C151.46 21.4702 152.29 20.9802 152.5 21.5902C151.89 22.0002 151.05 21.8802 150.59 22.5802C150.71 22.2302 150.94 21.9702 151.23 21.7702C151.23 21.5702 151.03 21.6002 150.85 21.6502C150.62 21.7902 150.39 22.2002 150.13 22.2002C150.1 21.8502 150.91 21.6502 150.51 21.4402C150.22 21.2702 150.11 21.7902 149.79 21.8802C149.7 21.5902 150.4 21.5002 150.08 21.1802C149.88 21.1802 149.73 21.3802 149.53 21.4702C149.5 21.2402 150.02 21.1202 149.7 20.8602L149.3 21.1502C149.27 20.8602 149.79 20.7702 149.53 20.5402C149.5 20.5102 149.38 20.6002 149.33 20.6302C149.33 20.5102 149.33 20.2502 149.5 20.1402C150.14 19.7002 151.12 19.8202 151.76 20.3402H151.74ZM149.48 18.2502C149.19 18.6902 149.08 19.2102 148.99 19.7002C148.87 19.2102 148.99 18.5402 149.48 18.2502ZM162.33 18.3402C162.27 18.4602 162.18 18.6602 162.01 18.6902C161.81 18.7802 161.66 18.4602 161.49 18.5702C161.49 18.7702 161.98 18.8602 161.66 18.9802C161.43 18.8602 161.08 18.6902 160.88 18.7502L161.58 19.2202C161.58 19.3102 161.49 19.3902 161.43 19.4202L160.56 18.9802C160.62 19.3902 161.08 19.3902 161.28 19.7102C160.87 19.8302 160.44 19.2702 160.01 19.2202C160.3 19.6302 160.76 19.7102 161.08 20.0602L160.96 20.2002C160.53 19.9402 160.09 19.6202 159.6 19.4702C159.89 19.8802 160.5 20.0202 160.82 20.4302C160.85 20.5202 160.76 20.5502 160.73 20.6002L159.51 19.9302C159.77 20.3402 160.23 20.5402 160.61 20.8302L160.44 20.9802C160.01 20.7202 159.57 20.5402 159.11 20.4002C159.31 20.7802 160.09 20.8702 160.01 21.3002C159.52 21.0702 159.08 20.7502 158.65 20.6302C158.85 20.9802 159.43 21.1502 159.49 21.5002C159.09 21.4402 158.8 21.1502 158.39 21.0402C158.45 21.3902 159.11 21.3902 159 21.8502C158.68 21.7002 158.39 21.4402 158.05 21.3802C158.17 21.7002 158.69 21.7602 158.66 22.1102C158.46 22.1102 158.34 22.3702 158.08 22.2302C157.27 21.7902 157.94 20.8302 157.44 20.1902C158.68 19.4602 159.84 18.2102 161.43 18.3302C161.75 18.3302 162.1 18.0402 162.33 18.3302V18.3402ZM152.4 19.0102C152.55 18.7802 152.05 18.6602 152.14 18.3402C152.6 18.4902 152.78 19.4702 153.38 19.1002C153.29 18.8702 152.92 18.7802 153 18.5502C153.38 18.7002 153.52 19.1902 153.84 19.3302C153.93 19.4202 154.04 19.2102 153.98 19.1602C153.89 18.9902 153.69 18.8702 153.69 18.7002C154.04 18.7602 154.21 19.4002 154.56 19.4902C154.7 19.1702 154.3 18.9102 154.3 18.6202C154.65 18.7902 154.82 19.2902 155.14 19.4902C155.43 19.1702 154.82 18.9102 154.76 18.5602C154.96 18.5002 155.08 18.7902 155.25 18.9102C155.63 18.7602 155.25 18.5002 155.22 18.2702C155.45 18.0402 155.77 18.3902 156 18.2402C156.17 18.3002 156.38 18.5002 156.41 18.6202C156.29 18.6202 156.09 18.3902 156.06 18.5902C156 18.9102 156.52 18.9702 156.61 19.2902C156.41 19.2302 156.26 18.9702 156.09 19.0902C156.21 19.3502 156.41 19.6402 156.7 19.8202C156.47 19.8502 156.15 19.4402 155.95 19.7302L156.7 20.3702C156.38 20.4302 156.09 19.9002 155.77 20.1702C155.97 20.5802 156.49 20.5502 156.67 20.9002C156.38 20.8702 156 20.4602 155.74 20.7002C155.94 20.9902 156.2 21.0202 156.46 21.2802C155.97 21.1902 155.24 20.7902 154.75 21.2802C155.65 21.4002 156.66 21.6002 157.21 22.2402C156.6 22.2402 155.68 22.0102 155.36 22.7302C155.27 22.8502 155.33 22.9902 155.16 23.0502C155.05 22.8502 155.42 22.5302 155.28 22.2602C154.93 22.7302 154.5 23.1302 154.56 23.7102C154.65 24.1202 154.7 24.6102 155.14 24.7302C155.49 24.8202 156.01 24.7002 156.3 24.8202C155.37 24.8502 154.19 24.9102 153.81 25.9502C153.78 25.6602 154.13 25.4302 154.04 25.1402C153.66 25.3102 153.49 25.7502 153.2 25.9002C153.26 25.6702 153.58 25.4302 153.4 25.1702C153.08 25.2302 152.97 25.5502 152.76 25.7502C152.76 25.5802 152.85 25.2602 152.99 25.0502C152.64 24.9002 152.44 25.4302 152.15 25.5702C152.15 25.3102 152.53 25.0202 152.27 24.8102C152.07 24.9002 151.92 25.1602 151.72 25.2502C151.66 25.0502 152.01 24.9002 151.81 24.7002L151.43 24.8402C151.34 24.7202 151.63 24.5802 151.52 24.4302C151.35 24.3102 151.29 24.5802 151.11 24.5802C151 24.4302 151.31 24.2902 151.08 24.1702L150.82 24.2902C150.79 24.1202 151.14 23.9702 150.91 23.8002L150.68 23.8902C150.36 22.9602 151.6 22.8102 152.07 22.3502C151.87 22.6702 151.52 22.8402 151.35 23.1602C151.41 23.1902 151.44 23.3302 151.52 23.2802C151.92 23.1902 152.24 22.8202 152.59 22.6102C152.47 22.9902 151.75 23.2502 151.95 23.6002C152.33 23.4002 152.65 23.1402 152.99 22.8702L152.32 23.7102L152.44 23.8602C152.79 23.7102 152.96 23.2802 153.31 23.1902C153.17 23.4802 152.79 23.8602 152.88 24.0902L153.69 23.3602C153.72 23.5902 153.4 23.8802 153.6 24.1702C153.89 24.0002 153.92 23.5902 154.18 23.3602C154.21 23.5602 154.01 23.8502 154.04 24.1702C154.1 24.4002 154.13 24.7202 154.42 24.7802C154.54 24.7802 154.71 24.9302 154.77 24.7802C154.63 24.3102 154.22 23.7902 154.63 23.3602C154.43 22.8402 155.09 22.4602 155.09 22.0202C154.71 22.1102 154.42 22.4302 154.02 22.5402C154.14 22.2502 154.71 22.2202 154.66 21.8702C154.4 21.9002 154.11 22.0402 153.79 22.1302C153.94 21.8702 154.34 21.7802 154.66 21.6602C154.4 21.2802 153.99 21.7802 153.62 21.6902C153.85 21.4602 154.34 21.4902 154.66 21.2802C154.2 21.0502 153.53 21.2502 153.1 21.2802C153.1 20.4702 152.2 20.0002 151.62 19.6802C151.04 19.4202 150.29 19.3002 149.77 19.4202C150.12 19.3902 150.41 19.1902 150.78 19.1002C150.72 18.9502 150.58 18.8102 150.43 18.8102C150.23 18.7802 150.17 19.0102 149.97 18.9502C150.09 18.6902 150.58 18.7802 150.58 18.4602C150.52 18.0202 150.2 18.6902 150 18.4602C150.23 18.0802 150.72 17.8502 151.16 18.0502C151.68 18.2802 151.88 18.9802 152.4 19.0102ZM143.6 16.8902H143.86C143.77 16.9202 143.6 17.0402 143.72 17.1502C143.92 17.3202 144.1 17.0302 144.3 17.1502L143.9 17.5002C144.13 17.8802 144.71 17.5002 145.06 17.5002C144.83 17.7302 144.39 17.6502 144.22 17.9602C144.54 18.3702 145.06 17.8102 145.32 18.0202C145.06 18.2502 144.54 18.1402 144.45 18.5402C144.45 18.6602 144.62 18.8002 144.71 18.7702C145.26 18.5702 145.78 18.3902 146.39 18.3302C145.96 18.5602 145.38 18.6502 144.92 18.8502C144.75 18.8802 144.72 19.0802 144.83 19.2002C145.35 19.1402 145.96 18.9402 146.51 18.8802C146.11 19.1702 145.44 19.2002 144.98 19.5802C145.39 19.9902 145.91 19.5802 146.4 19.6702C146.08 19.8702 145.65 19.8702 145.39 20.1302C145.91 20.6502 146.49 20.0102 147.04 19.9802C146.78 20.2402 146.29 20.3002 146 20.5902C146.29 21.1102 146.84 20.5002 147.22 20.6202C147.05 20.8502 146.47 20.7702 146.61 21.1402C146.78 21.4302 147.13 21.1702 147.36 21.1402C147.36 21.2902 147.01 21.2302 147.01 21.4302C147.04 21.7502 147.36 21.4902 147.62 21.4902C147.16 21.6902 147.74 21.9502 147.56 22.1902C146.84 21.8402 145.97 21.2902 145.33 20.7102C144.14 19.6102 143.88 17.9502 143.36 16.5502C143.53 16.4902 143.39 16.8702 143.62 16.8702L143.6 16.8902ZM145.94 16.5102C147.01 17.0002 148.14 17.5602 148.75 18.6902C148.55 19.2102 148.75 19.8802 148.43 20.2302C148.43 18.9802 147.53 17.9602 146.58 17.3502C145.54 16.7702 144.38 15.8702 143.14 16.3002C143.05 15.8302 143.49 16.2402 143.72 16.1802C144.53 16.0602 145.25 16.2402 145.95 16.5002L145.94 16.5102ZM168.57 13.8602C168.57 13.5102 168.8 13.2802 168.98 12.9902C168.92 13.3402 168.78 13.6002 168.57 13.8602ZM169.09 12.8702L169.03 12.9302V12.7902C169.12 12.7602 169.03 12.8802 169.09 12.8802V12.8702ZM150.89 8.1902C150.69 10.2302 152.25 11.9402 151.93 14.0002L151.01 17.0002C150.92 17.1202 150.81 17.1502 150.69 17.1202C150.95 15.7002 151.82 14.3902 151.67 12.9302C151.55 11.4802 150.83 10.2302 150.69 8.7702L150.81 8.1002L150.9 8.1902H150.89ZM166 8.1002C166.43 9.1502 166.29 10.3702 166.61 11.4102C166.61 11.5902 166.81 11.7002 166.96 11.5302C167.54 10.8902 167.57 10.0502 167.74 9.2302C168.25 11.4402 166.17 13.0502 166.15 15.2502C166.21 15.5102 166.56 15.3602 166.71 15.2702C167.35 14.5902 167.98 14.2902 168.48 13.9702C167.9 14.7902 167.1 15.3502 166.26 15.9502C165.31 16.6302 164.29 17.3502 163.45 18.1602C163.34 18.1602 163.31 18.0102 163.39 17.9602C164.23 17.0902 165.42 16.4802 165.91 15.3102C165.9 14.0702 166.62 12.6502 166.4 11.6802C165.82 10.7502 164.69 10.2502 163.74 9.8502L161.66 9.7302C160.65 8.92019 159.61 8.2502 158.56 7.5802C158.65 7.4602 158.88 7.6402 159.05 7.7002C159.92 8.2802 160.81 8.8902 161.68 9.5002L163.94 9.6202C164.58 9.9702 165.24 10.4002 165.82 10.9602C166.22 10.7902 165.99 10.1702 166.02 9.8602L165.79 7.9702C165.18 6.9802 164.34 6.2002 163.82 5.2102C164.75 6.0002 165.56 7.0402 165.99 8.1202L166 8.1002ZM141.17 5.0802C140.16 5.0502 139.58 6.0102 138.71 6.2102C138.22 6.3302 137.55 6.3302 137.21 6.1202C138.4 6.2402 139.35 5.6002 140.31 4.9902C140.57 4.8702 140.98 4.8702 141.18 5.0802H141.17ZM135.7 5.8902C135.29 6.0602 134.8 6.5002 134.4 6.0902C134.72 5.5702 135.24 5.2502 135.73 4.9602C136.13 5.1602 135.64 5.5702 135.7 5.8902ZM139.64 1.5602C138.83 3.0102 136.95 3.4202 136.17 4.8502C135.42 6.1902 135.76 8.0802 135.65 9.7402L136.03 10.8702C135.51 10.7002 134.99 10.3502 134.7 9.8502C134.41 9.3002 134.5 8.6302 134.32 8.0802C134.58 7.6702 134.52 6.9702 135.13 6.9502C135.39 6.9202 135.62 6.8302 135.65 6.6002C135.71 6.4502 135.65 6.4002 135.53 6.3102C134.98 6.4302 134.37 6.6002 133.97 7.0702L133.8 8.1702C134.06 8.7802 133.94 9.5402 134.26 10.0902C134.93 11.2202 136.17 11.6002 137.07 12.4202C137.36 12.2702 137.39 11.9502 137.21 11.7202C136.78 10.9902 136.26 10.2702 136.26 9.3702C136.35 7.9202 136.55 6.4602 136.69 5.1502C136.86 6.7502 135.94 8.4902 136.49 10.0302C136.89 11.0802 137.3 12.0102 138.28 12.7602L141.52 15.1702C142.62 15.7502 144.09 15.4602 145.34 15.6902C146.9 16.0402 148.44 16.5902 149.88 17.3202C149.88 17.4102 149.71 17.5502 149.59 17.6102C148.14 17.0002 146.67 16.3602 145.13 15.8902C143.77 15.5402 142.35 16.0702 141.19 15.3402C139.98 14.6102 139.05 13.4502 137.8 12.8402C136.84 12.4002 135.8 12.2302 134.99 11.4102L134.04 10.0702C133.78 9.0802 133.78 7.9502 133.2 7.1602C132.53 6.3202 131.61 5.7102 131.38 4.7802C131.21 4.1102 131.26 3.3302 131.49 2.6902C131.55 3.3302 131.26 4.3202 131.66 4.9602C132.1 5.6602 132.64 6.3302 133.19 6.9702C133.22 7.1202 133.45 7.1402 133.54 7.0302C134.03 6.1302 134.78 5.3702 135.6 4.7302C136.41 4.1202 137.28 3.7402 138 3.1302C138.52 2.6602 138.98 2.0502 139.42 1.5602H139.62H139.64ZM158.32 23.2402C158.32 23.2402 158.58 23.1602 158.58 23.1502C159.44 22.6302 160.42 22.3702 161.26 21.6502C162.21 20.7802 162.07 19.2902 163.2 18.7402C164.36 18.1302 165.2 17.1402 166.21 16.2702C166.85 15.6902 167.89 15.6602 168.47 14.9302C169.25 13.9102 169.42 12.5502 170.5 11.6102C170.64 11.5202 170.64 11.2902 170.5 11.2002C169.92 11.3702 169.2 11.5202 168.73 12.0102C168.27 12.6202 168.3 13.5502 167.6 13.9902C167.37 14.1902 167.08 14.5102 166.82 14.2802C166.85 12.7702 168.12 11.6602 168.12 10.2102C168.12 9.3402 168.32 8.2302 167.57 7.7402C166.93 8.1802 167.14 9.1402 166.76 9.6002C166.73 8.3802 166.24 7.3302 165.43 6.4302C164.88 5.7902 164.39 4.9202 163.61 4.6602C163.44 4.6302 163.2 4.7502 163.26 4.9202C163.87 6.0802 164.68 7.04019 165.31 8.2302C165.57 8.6102 165.4 9.31019 165.28 9.7402C164.76 9.7402 164.38 9.3902 163.95 9.2202L161.81 9.1002C160.16 8.0802 158.6 6.4002 156.48 6.9502C156.28 7.0402 156.39 7.3302 156.51 7.4202L158.57 8.1502C159.58 8.7002 160.36 9.60019 161.46 10.0702C162.18 10.3902 162.94 10.2502 163.72 10.4502C164.56 10.7402 165.17 11.5802 165.8 12.2002C165.68 12.9602 165.57 13.7102 165.39 14.5002C165.1 15.5802 164.18 16.5902 163.13 17.0302C162.26 17.4402 161.22 17.3502 160.24 17.5202C160.15 17.4302 160.24 17.2902 160.36 17.2302C161.26 17.0002 162.27 16.9702 163.02 16.4702C163.86 15.9802 164.7 15.4202 165.16 14.5202C165.16 14.5102 165.22 14.4302 165.2 14.4102L165.15 14.0502C165.21 13.9702 165.23 13.9402 165.28 13.8502C165.39 13.6802 165.48 13.2702 165.28 13.1502C164.58 13.8802 164.18 14.8902 163.25 15.3302C162.38 15.7402 161.28 15.3602 160.33 15.5602C159.52 15.7602 159.09 16.6602 158.33 16.9002C158.45 15.3602 160.3 14.8102 161.14 13.6402C161.78 12.7402 162.01 11.4602 162.09 10.3802C161.77 10.4402 161.48 10.3202 161.16 10.2102C160.7 11.0502 160.49 12.0102 159.83 12.7402C159.16 13.3802 158.27 13.7902 157.54 14.4002L156.4 17.4302V17.4602V17.4802L156.35 17.7902C156.17 17.6202 155.98 17.4802 155.76 17.3802L154.55 18.0502C153.6 17.8202 152.61 17.7902 151.77 17.3202C151.68 15.8702 152.87 14.3002 152.55 12.7302C152.29 11.5702 151.83 10.4602 151.36 9.3902C151.04 8.6102 151.56 7.5302 150.84 6.9202C150.72 6.8302 150.58 6.8302 150.49 6.9502L150.11 9.2202L150.95 13.4402C150.69 14.5202 150.37 15.5602 149.71 16.4902C149.04 16.4502 148.42 16.2502 147.82 16.0302C147 14.5002 146.26 12.4802 145.63 10.8002L145.51 9.0802C145.31 8.2702 145.45 7.1302 144.5 6.7502C144.27 7.3002 144.3 7.9402 144.3 8.5502C144.21 9.6002 144.07 10.8802 144.62 11.8602C145.2 12.8602 145.24 14.1902 145.67 15.2402C145.39 15.1702 145.09 15.1102 144.79 15.0902C143.86 15.0302 142.94 15.2102 142.13 14.8902C140.92 14.4202 139.99 13.4402 139.03 12.6202C138.07 11.7802 137.55 10.5602 137.03 9.3902L137.2 6.8902C138.3 6.9202 139.51 6.3702 140.47 5.6402C140.9 5.2602 141.69 5.3802 141.92 4.7402C141.72 4.4502 141.34 4.2202 140.99 4.1002C139.98 3.7802 139.25 4.7702 138.41 5.0602C138.01 5.2302 137.4 5.1502 137.05 5.0602C137.92 4.0102 139.19 2.5302 140.55 1.6002C140.78 1.4302 140.9 1.2202 140.78 0.990195L140.55 0.700195C138.38 0.960195 137.25 3.1102 135.11 3.9902C134.3 4.3102 133.87 5.3602 133.32 6.0002C132.65 5.8002 132.42 5.1302 131.99 4.7202L131.87 3.9902C131.75 2.8902 132.13 2.0402 132.51 1.1402C132.39 0.910195 132.07 0.820195 131.87 0.970195C131.18 1.4902 130.42 2.2502 130.66 3.2702L130.63 5.1602L132.74 7.7802C133.15 9.1502 132.91 10.8002 133.78 11.9102C134.5 12.8702 135.89 13.0402 137.02 13.4502C138.32 13.9202 139.22 15.1402 140.38 15.9802L142.84 16.8802C143.51 17.9302 143.68 19.2102 144.32 20.2502C144.96 21.2702 146.14 21.6802 146.81 22.6302C146.55 23.8202 146.23 24.9302 145.74 26.0002C145.42 26.7302 144.79 27.2802 144.44 28.0102C144.61 28.2102 144.85 27.7802 145.02 28.0402C144.5 28.7702 143.86 29.4902 143.37 30.1902C143.46 30.2802 143.92 30.0702 143.86 30.3602C143.6 30.9402 143.08 31.3502 142.96 31.9302C142.87 32.1602 143.28 31.8702 143.37 32.1302L142.88 33.7302C142.88 33.9302 143.14 34.0202 143.26 33.9902C143.17 34.9202 142.62 35.7102 142.45 36.6402C142.42 36.8402 142.68 36.7602 142.83 36.7302C142.69 37.3102 142.25 38.0702 142.28 38.7902C142.42 38.8802 142.54 38.7602 142.63 38.7902C142.89 38.8202 142.75 39.2002 142.75 39.4002C142.23 39.9202 141.91 40.8502 141.65 41.6102C141.42 42.2502 141.24 43.0302 141.24 43.7602C141.24 44.8402 141.33 45.8502 141.44 46.9302C141.7 49.0002 142.28 50.9402 142.97 52.9502C143.66 54.9002 144.5 56.6702 145.78 58.3302C146.62 59.4302 147.2 60.7102 147.43 62.1402C147.49 62.4602 147.34 62.7802 147.52 63.0102C148.07 63.8502 148.42 64.6702 148.76 65.6002C149.4 67.2602 148.79 68.9102 148.67 70.6602C148.44 73.9702 147.31 77.1402 146.56 80.4302C146.47 80.7802 146.65 81.4002 146.25 81.4902C146.22 81.9002 145.22 82.6102 145.36 83.0102C145.48 83.3002 145.69 83.0402 146.1 83.2202L149.05 83.2802C149.14 83.1602 149.28 83.3402 149.37 83.0502C149.49 82.5302 149.17 82.0902 149.28 81.5702C149.4 80.9602 150.23 81.4802 150.7 81.2802C150.93 81.1602 151.22 80.9602 151.25 80.6402C151.31 79.5902 151.83 78.6602 151.97 77.6202C152.09 76.8902 152.98 77.4702 153.1 76.9502C153.59 76.8002 153.48 76.2802 153.39 75.9002C153.19 74.7402 152.67 73.6002 152.55 72.3802C152.38 71.2202 152.38 70.0302 152.2 68.8302L152.14 65.9802C152.81 64.7302 152.75 63.3302 153.38 62.0802C154.34 60.2202 155.55 58.5002 156.16 56.4702C156.39 55.8002 157.06 56.0702 157.66 56.1202C159.25 56.1502 160.89 56.2302 162.49 56.0002C163.97 58.0102 165.88 59.7502 166.8 62.0502C167.67 64.2302 167.03 66.8202 166.8 69.2002C166.66 70.2802 166.28 71.4102 165.82 72.5202C165.59 73.0702 165.15 73.4802 164.87 74.0302C164.58 74.7002 164.67 75.4602 164.32 76.0902C163.94 76.6702 163.83 77.3402 163.42 77.9202C163.19 78.2502 161.86 79.8902 162.06 80.1902C162.21 80.3602 162.47 80.4502 162.7 80.5102C163.39 80.5402 164.08 80.5402 164.72 80.3602C165 80.1402 165.42 80.1902 165.57 79.6902C165.6 79.5202 165.48 79.4602 165.43 79.2802C165.37 78.1202 165.81 77.5102 166.3 76.4902H167.02C167.86 76.2902 167.45 75.3302 167.6 74.6902C168.18 72.5702 168.09 70.3302 168.67 68.2102C169.1 66.5502 169.86 64.8702 170.67 63.3002C170.99 62.6602 171.51 61.7602 171.1 61.1202C170.7 60.4802 169.97 60.1002 169.62 59.4302C169.19 58.7002 169.04 57.7202 169.04 56.8402C169.04 56.3202 168.81 55.5902 169.24 55.1802C170.14 55.8502 170.83 56.6602 171.35 57.6802C171.87 58.6402 172.02 59.8602 172.65 60.7902C173.32 61.6602 174.1 62.4802 174.59 63.4902C175.31 64.9402 175.83 66.5102 175.95 68.1402C176.09 70.1802 176.21 72.2402 176.24 74.3102C176.24 74.7502 176.01 75.2402 175.75 75.6502V76.7002C175.32 77.6002 175.6 78.5602 175.2 79.4902C174.88 80.1302 174.56 80.8602 174.3 81.5802C174.24 81.8702 174.16 82.4202 174.47 82.5102C174.96 82.6802 175.51 82.5102 176 82.5102C176.55 82.5402 177.07 82.3102 177.48 81.9002C177.58 81.5502 178 81.2602 177.8 80.8502C177.57 80.5302 177.16 80.3002 177.34 79.8302C177.37 79.6802 177.46 79.4802 177.48 79.2802C177.51 79.0802 177.77 79.0502 177.97 78.9902C178.52 78.8702 178.32 78.2602 178.29 77.9102C178.09 76.5102 177.97 75.1502 177.8 73.7802C177.6 71.8002 177.45 69.8302 177.8 67.8502C177.97 66.6902 178.23 65.5502 178.43 64.4202C178.78 63.3702 178.96 62.7302 177.91 62.0702C177.42 61.7602 177.16 61.0202 176.98 60.4702C176.52 58.6102 177.15 56.9502 177.36 55.0602C177.54 53.1802 178.3 51.7002 178.08 49.8002C177.86 47.8802 176.86 46.3902 175.53 44.8902C174.54 43.7802 173.16 43.3502 171.97 42.6502L168.9 41.9802C167.77 41.5102 166.73 40.7602 165.66 40.2402C164.53 39.6602 163.2 39.6302 162.13 39.0802C161.06 38.5602 160.28 37.5702 159.18 37.1302C158.86 37.0102 159.41 36.7502 159.47 36.5202C159.07 36.2002 158.46 36.1102 158.23 35.6502C158.06 35.2702 158.75 35.3602 158.87 35.0402C158.35 34.5702 157.63 34.4002 157.31 33.7302C157.4 33.5802 157.63 33.6702 157.8 33.5802C157.63 33.1702 157.4 32.7902 157.08 32.5302C157.2 32.2702 157.54 32.5302 157.63 32.1802L157.43 32.0302C156.68 31.3002 157.95 31.2702 157.43 30.4902C157.2 30.4602 157.2 30.2002 157.08 30.0802C156.73 29.8202 157.22 29.6702 157.4 29.5602C156.94 28.5102 156.36 27.4702 156.59 26.1902L157.43 25.4602V24.8502C157.89 24.3802 158.2 23.8102 158.31 23.2102L158.32 23.2402Z" fill="#02222D"/>
<path d="M107.11 82.7899H118.3V66.4499L123.55 82.7899H135.89L130.02 64.6799C128.15 63.2399 124.74 61.6899 122.7 60.9699L130.54 42.6399H124.01L118.3 60.9699V42.6399H107.11V82.7899ZM76.3 74.5899C75.71 73.4799 73.45 68.3899 72.3 57.4199C72.5 56.7599 74.01 52.0999 76.3 50.8299V74.5899ZM87.42 74.5899V50.8299C89.39 54.4799 90.96 61.2999 91.32 66.6699C90.47 69.9899 89.19 72.6499 87.42 74.5899ZM87.42 42.6299H76.3V47.3399H67.87C65.38 50.1599 62.72 54.4799 60.95 58.6899C62.59 66.8299 64.79 73.2599 67.87 79.1299H76.3V82.7799H87.42V79.1299H95.26C98.97 74.5899 100.77 71.1499 101.46 69.7699C101.72 69.1599 102.05 68.5499 102.38 67.8899C102.51 67.4499 102.74 67.0599 102.9 66.6699C101.92 59.5299 99.55 52.5499 97.06 47.3399H87.42V42.6299ZM30.4 53.4299L36.17 56.3099C36.37 55.8099 36.53 55.4199 36.86 54.8699C37.42 53.6499 38.04 52.3199 38.66 51.2199C39.94 49.1199 41.45 47.3999 41.91 47.0099C43.52 49.0599 44.93 53.1599 45.16 57.1399L40.37 55.5299C40.73 56.1399 41.45 57.6299 41.39 61.5099C41.39 63.4999 41.06 65.4999 40.37 67.7099L45.16 65.8299C44.93 74.3599 42.67 77.4599 41.91 78.3999C41.22 77.4599 40.04 75.6299 38.56 69.8699H29.57C31.21 75.1899 32.82 79.2299 34.49 82.7699H52.01C52.47 82.1099 53.52 80.3299 54.54 78.1199C55.13 76.8499 55.66 75.5699 56.21 74.3499C56.64 73.2399 57.1 72.1899 57.52 71.1399C57.78 70.1999 58.11 69.3099 58.34 68.3199C57.78 67.2699 55.49 63.0599 50.63 59.9599C54.76 56.2999 55.65 54.0299 56.07 52.9299C55.84 49.3299 54.92 46.3899 53.02 42.6299H38.26C38.03 42.8499 37.7 43.2399 37.47 43.5199C37.04 44.0699 36.58 44.5699 36.19 45.1299C35.6 45.8499 34.98 46.5699 34.35 47.3499C33.86 48.0699 33.37 48.7899 32.91 49.5599C32.35 50.2299 31.93 50.9999 31.37 51.7199C31.07 52.3299 30.68 52.8799 30.39 53.4399L30.4 53.4299ZM27.42 66.7799H20.99C20.33 70.0999 19.19 74.4199 17.94 77.5199H17.35C10.2 64.2799 10.2 52.7599 10.23 51.5499C10.49 50.4399 10.98 48.7799 12.72 46.1199C13.67 47.3899 14.56 48.9399 15.44 51.4399C15.93 52.7099 16.36 54.0399 16.82 55.4799C16.98 56.0299 17.21 56.6399 17.34 57.1999L25.54 51.5499C25.18 50.6099 23.8 46.4599 20.98 42.6299H8.1C7.34 43.4099 3.47 47.3899 0 53.1499C0.3 64.0599 2.03 72.9199 5.22 82.7799H20.47C23.09 78.7899 26.31 71.7599 27.43 66.7699L27.42 66.7799Z" fill="#02222D"/>
<path fill-rule="evenodd" clip-rule="evenodd" d="M109.32 12.5197L110.55 11.9597L114.14 15.8397L111.68 14.5097L113.19 16.7897L115.17 18.4997L115.08 19.0797L113.38 18.2197L111.2 15.8397L110.35 16.6097L109.4 15.7497C109.4 15.7497 107.61 16.0297 108.08 16.0297C108.55 16.0297 111.11 14.0297 111.11 14.0297L112.06 14.3197L109.32 12.5197ZM90.9204 -0.0003125H90.8904L90.6904 0.279687L84.3904 9.24969L77.4904 15.9997L76.9604 15.3997L76.8004 15.2197L76.5804 15.3297L75.2604 15.9897L75.2204 16.0097L75.1904 16.0397L72.3104 18.6697L68.0904 13.9797L67.8704 13.7297L67.6404 13.9697L62.7604 19.0597L61.3104 18.8897L61.1404 18.8697L61.0304 18.9997L58.3004 22.3897H57.0704L57.0104 22.4097L53.1004 23.9997L51.3504 24.1897H51.2404L51.1604 24.2797L50.2604 25.1797L49.4104 24.8697L49.1504 24.7697L49.0304 25.0197C49.0304 25.0197 48.4904 25.9797 48.1804 25.9797C47.7104 25.9797 44.7104 26.7097 44.2204 26.8197L43.4904 26.6597L42.3904 26.0197L42.2404 25.9297L42.0804 26.0197L41.3604 26.4297L39.7104 25.8097L39.6004 25.7697L39.4904 25.8097L38.0704 26.3497L35.2504 25.6097L35.1204 25.5697L35.0004 25.6497L20.2104 35.5297L19.4804 35.4497L19.2804 35.4297L19.1804 35.5997L18.7104 36.3897L15.1604 36.2997H15.0504L14.9604 36.3697L14.4904 36.7597L12.5904 36.6697L10.1504 39.4597L12.0604 39.4997L21.8604 39.0897L23.6404 40.3097L24.7404 40.3697L25.9704 37.3697L26.9604 42.1097L28.2004 43.4397L33.1904 41.4597L31.6504 41.2397L26.6004 33.6497L29.2704 35.6597L31.0604 33.7897L31.0904 37.2397L33.1204 38.5697L35.6804 37.8297L38.4004 37.0497L40.1104 36.5597L37.3304 39.8197L43.1304 37.4997L55.8504 39.0097L65.5304 45.9097L74.9804 39.7897L81.4504 40.0597L84.1904 40.0097L78.4204 35.3897L77.2904 34.5397L76.3404 35.2997L74.0704 33.4997L73.9804 36.6297L72.8404 35.6797L72.7404 33.4897L71.7004 33.2997L70.5604 32.1597L71.1304 29.7797L69.9004 28.3497L68.1004 28.5397L67.0704 27.5897L68.1004 25.4997L66.1204 23.0297L66.3104 21.7897L67.4504 22.7397L69.8104 25.3097L72.8404 26.3497L76.1404 24.7397L76.3304 26.1697L78.1204 22.3697L79.0704 26.6497L77.6504 25.8897L76.9904 26.8397L78.2204 28.1697L78.0304 32.0697L79.3504 35.3897L81.4304 35.0097L85.7304 39.9697H86.1804L84.0304 33.9497L82.1904 33.5797L81.2404 31.9697L82.7604 31.6797L83.3204 30.6397L85.3104 32.5397L86.6304 29.5997L88.9904 31.0197L89.6504 30.2597L86.6304 26.5497V22.4697L88.7104 27.6897L90.2304 29.2997L91.4504 31.0097L92.7804 31.3897L93.8204 29.3997L94.8604 30.8197L95.8004 31.7697L95.6104 32.4397L97.1304 32.2497L98.1704 31.2997L100.62 27.2197L100.46 30.4997L99.7004 35.0097L98.2604 37.2797L98.9204 38.7097L101.28 39.3697L105.53 37.8497L103.73 39.4597L106.19 40.3197L105.99 40.6397L108.28 40.1197L109.6 38.1397L109.46 39.8597L124.1 36.5197L131.61 41.2397L135.2 42.5297L133.78 38.8997L136.9 40.6097L139.07 41.4597L138.5 42.3097L139.07 43.1597L139.83 43.3497L139.17 40.4997L136.52 36.6097L134.72 36.5097L134.06 34.4197L133.21 32.5197L135.19 33.0897L136.42 34.5997L138.12 37.0797L139.83 38.2097L139.91 33.7497L140.29 33.8497L140.23 33.3797L140.08 32.2697L140.06 32.1297L139.95 32.0497L138.5 31.0097L135.86 29.2097L135.73 29.1197L135.58 29.1697L134.9 29.3997L132.32 27.2597L131.59 26.3397L131.53 26.2597L131.43 26.2297L130.32 25.9097L130.02 25.5597L129.25 24.3697L129.18 24.2597L129.05 24.2297L127.27 23.8697L124.8 21.0197L124.78 20.9897L124.76 20.9697L123.92 20.3397L124.23 20.0197L124.39 19.8597L124.29 19.6597L122.97 17.0097L122.95 16.9697L122.91 16.9297L120.55 14.5597L120.51 14.5197L120.46 14.4997L112.03 10.3597L109.62 7.93969L109.5 7.81969L109.34 7.84969L108.43 8.02969L108.58 7.47969L108.66 7.20969L108.39 7.10969L105.13 5.85969L105.2 5.04969L105.22 4.82969L105.01 4.73969L100.21 2.56969L100.11 2.52969L100 2.54969L94.8904 3.82969L91.1604 0.169688L90.9204 -0.0703125V-0.0003125ZM99.7704 39.9297L99.3104 39.7797L96.6604 39.3097L88.4004 34.9497L89.8704 39.9097L90.2804 39.8897L98.0304 41.5397L99.7704 39.9297ZM57.1904 23.0297H57.1604H57.1804H57.1904ZM125.73 23.0997L124.06 22.8697L125.1 24.4797L125.48 25.9997L126.24 28.9497L127.37 30.5597L125.86 29.3297L123.03 31.7997L121.61 32.5597L121.89 29.0497L121.51 27.8997L120.56 29.2297V27.8097L121.22 26.6797L121.03 22.7797L121.6 21.4497H119.71L117.53 20.1197L118.76 23.3497L119.33 27.9097L118.67 30.1897L116.12 25.8297L117.63 30.2997L117.07 30.0097L113.58 24.7897L113.39 23.0797L110.65 20.6097L110.37 19.4597L106.02 15.3797H104.79L103.46 14.7097L92.8804 4.83969L92.5004 3.41969L91.6504 2.93969L92.4604 2.39969L94.5904 4.47969L94.7104 4.59969L94.8804 4.55969L96.4404 4.16969L98.9304 6.16969L103 7.96969L99.5404 3.38969L100.06 3.25969L104.56 5.29969L104.49 6.11969L104.47 6.35969L104.69 6.44969L107.91 7.67969L107.7 8.43969L107.57 8.92969L108.07 8.82969L109.32 8.57969L111.65 10.9197L111.69 10.9597L111.73 10.9797L120.17 15.1197L122.45 17.4097L123.65 19.8197L123.24 20.2397L122.99 20.4997L123.28 20.7097L124.38 21.5397L125.75 23.1197L125.73 23.0997ZM133.17 28.8297L132.95 29.7997L134.55 31.5097L134.25 31.6297L133.04 31.3097L128.88 27.0397L128.5 25.9097L130.86 27.1497L130.76 26.7497L131.16 26.8597L131.85 27.7297L131.87 27.7497L131.89 27.7697L133.16 28.8197L133.17 28.8297Z" fill="#718389"/>
</svg>
