<svg width="204" height="52" viewBox="0 0 204 52" fill="none" xmlns="http://www.w3.org/2000/svg">
<g id="content" clip-path="url(#clip0_182_1735)">
<path id="Vector" d="M160.901 37.4069L167.998 45.4728H163.388L157.899 39.2556V45.4728H154.078V30.4322H157.899V35.8908L163.297 30.4322H167.815L160.9 37.4069H160.901ZM46.5667 34.4952C49.3558 34.4952 50.6298 33.161 50.6298 31.1596C50.6298 29.1582 49.3558 27.8239 46.5667 27.8239H41.0477V34.4952H46.5667ZM46.6882 24.2461C51.4798 24.2461 54.6336 26.7016 54.6336 31.1596C54.6336 35.6175 51.4798 38.0741 46.6882 38.0741H41.0477V45.4728H37.0449V24.2461H46.6882ZM63.668 42.319C65.9115 42.319 68.0044 40.7125 68.0044 37.9525C68.0044 35.1925 65.9115 33.586 63.668 33.586C61.4245 33.586 59.3316 35.1936 59.3316 37.9525C59.3316 40.7115 61.4245 42.319 63.668 42.319ZM63.668 30.0072C67.7924 30.0072 71.8856 32.6757 71.8856 37.9525C71.8856 43.2293 67.7924 45.8968 63.668 45.8968C59.5436 45.8968 55.4504 43.2293 55.4504 37.9525C55.4504 32.6757 59.5436 30.0072 63.668 30.0072ZM81.6411 42.319C79.3363 42.319 77.6383 40.6512 77.6383 37.9525C77.6383 35.2538 79.3966 33.586 81.6411 33.586C83.0056 33.586 84.1881 34.223 85.1285 35.6477L88.4039 33.7678C87.3118 31.4329 84.9467 30.0082 81.6723 30.0082C77.3962 30.0082 73.7581 33.162 73.7581 37.9525C73.7581 42.743 77.2154 45.8979 81.6723 45.8979C84.8864 45.8979 87.0395 44.442 88.5557 41.8649L85.4018 40.1368C84.4915 41.4108 83.522 42.3201 81.6422 42.3201M122.325 38.9542C122.143 41.2591 121.687 41.7745 120.899 41.7745C120.361 41.7745 120.107 41.7153 119.739 41.6186L119.757 45.5103C119.757 45.5103 120.232 45.6557 121.111 45.6557C124.355 45.6557 125.569 43.5629 125.873 39.106L126.236 33.8593H130.542V45.4437H134.362V30.4332H122.961L122.324 38.9542H122.325ZM115.277 35.9521C114.914 34.0723 113.489 32.9199 111.366 32.9199C109.365 32.9199 107.849 34.2542 107.302 35.9521H115.277ZM111.487 30.0092C115.793 30.0092 118.825 33.1329 118.825 37.5296V38.8638H107.241C107.483 41.1687 109.12 42.6235 111.365 42.6235C113.397 42.6235 114.246 41.7444 115.186 40.5618L118.218 42.0779C116.702 44.655 114.609 45.8989 111.304 45.8989C107.119 45.8989 103.571 42.7149 103.571 37.9535C103.571 33.1922 107.12 30.0092 111.486 30.0092M148.206 35.9521C147.842 34.0723 146.417 32.9199 144.295 32.9199C142.293 32.9199 140.777 34.2542 140.231 35.9521H148.206ZM144.415 30.0092C148.721 30.0092 151.754 33.1329 151.754 37.5296V38.8638H140.169C140.411 41.1687 142.049 42.6235 144.294 42.6235C146.325 42.6235 147.174 41.7444 148.115 40.5618L151.147 42.0779C149.631 44.655 147.538 45.8989 144.232 45.8989C140.048 45.8989 136.5 42.7149 136.5 37.9535C136.5 33.1922 140.048 30.0092 144.414 30.0092M89.7424 33.7689H94.2305V45.4739H98.0514V33.7689H102.54V30.4332H89.7424V33.7689ZM175.583 42.3201C177.826 42.3201 179.919 40.7135 179.919 37.9535C179.919 35.1936 177.826 33.587 175.583 33.587C173.339 33.587 171.246 35.1946 171.246 37.9535C171.246 40.7125 173.339 42.3201 175.583 42.3201ZM175.583 30.0082C179.707 30.0082 183.8 32.6767 183.8 37.9535C183.8 43.2304 179.707 45.8989 175.583 45.8989C171.458 45.8989 167.365 43.2304 167.365 37.9535C167.365 32.6767 171.458 30.0082 175.583 30.0082ZM199.004 30.4301L194.857 40.964L190.709 30.4301H185.715V45.4437H189.347V35.9386L193.373 45.4437H196.339L200.364 35.9386V45.4437H203.996V30.4301H199.002H199.004Z" fill="#718389"/>
<g id="Group">
<path id="Vector_2" d="M24.8043 51.9576H3.60453C2.07282 51.9576 1.17188 50.5891 1.17188 49.393C1.17188 48.6853 1.45868 48.0442 1.92318 47.5797L11.1747 38.3281L24.8043 51.9576Z" fill="#02222D"/>
<path id="Vector_3" d="M3.60477 51.9566C2.00343 51.9566 0.00306671 50.6764 0.00306671 48.1315V19.6307C0.00306671 15.7796 -0.193333 13.0705 2.5573 10.3199L12.8771 -0.000976562L31.1776 18.3286L1.92342 47.5787C1.45892 48.0432 1.17211 48.6833 1.17211 49.392C1.17211 50.588 2.07306 51.9566 3.60477 51.9566Z" fill="#718389"/>
</g>
</g>
<defs>
<clipPath id="clip0_182_1735">
<rect width="204" height="51.9576" fill="white"/>
</clipPath>
</defs>
</svg>
