<svg width="210" height="43" viewBox="0 0 210 43" fill="none" xmlns="http://www.w3.org/2000/svg">
<g id="Logo" clip-path="url(#clip0_182_1806)">
<g id="Group">
<path id="Vector" d="M24.0793 17.8173C22.2608 16.1775 19.4563 16.319 17.815 18.1375C16.1767 19.9561 16.3227 22.7605 18.1412 24.4018C19.9597 26.0416 22.7627 25.8986 24.404 24.0816C26.0423 22.2631 25.8978 19.4601 24.0793 17.8188V17.8173Z" fill="#718389"/>
<path id="Vector_2" d="M8.41174 4.2442C5.51046 6.43207 3.19153 9.35271 1.73047 12.7291C3.48493 13.161 8.73642 14.8708 11.1462 21.3763C11.8715 21.1395 13.4339 20.2295 14.5166 16.7146C15.9702 12.0082 18.727 7.48207 22.303 5.96143C18.7375 2.43314 14.04 1.60357 8.41174 4.24271V4.2442Z" fill="#718389"/>
<path id="Vector_3" d="M37.3653 7.64786C33.4959 2.97574 27.6502 0 21.1089 0C16.343 0 11.9449 1.58021 8.41211 4.24468C16.2238 0.579361 22.2453 3.60276 25.9314 11.2462C31.804 12.2991 35.7925 9.37701 37.3653 7.64786Z" fill="#718389"/>
<path id="Vector_4" d="M12.8538 40.5335C16.1989 41.9528 19.888 42.5009 23.5429 42.0779C23.041 40.3428 21.8942 34.9394 26.3236 29.6001C25.7561 29.0907 24.1878 28.1926 20.6014 29.0118C15.7997 30.1064 10.5006 29.9813 7.39677 27.6445C6.12486 32.4969 7.75422 36.9813 12.8538 40.5349V40.5335Z" fill="#718389"/>
<path id="Vector_5" d="M1.32534 13.7573C1.32534 13.7573 1.32534 13.7573 1.32385 13.7573C-0.785086 19.4452 -0.439554 25.9969 2.83108 31.6609C5.21406 35.7894 8.78107 38.8069 12.856 40.5345C5.77554 35.6018 5.38384 28.8744 10.1587 21.8595C8.13469 16.2461 3.61002 14.2533 1.32683 13.7559L1.32534 13.7573Z" fill="#718389"/>
<path id="Vector_6" d="M42.0598 18.542C41.6159 14.9348 40.2457 11.4676 38.0519 8.5127C36.8009 9.81589 32.6947 13.5095 25.857 12.3433C25.6992 13.0895 25.7066 14.8976 28.2087 17.5933C31.5568 21.205 34.0992 25.8563 33.627 29.7137C38.4645 28.3897 41.5325 24.7363 42.0598 18.542Z" fill="#718389"/>
<path id="Vector_7" d="M24.6357 41.9175C30.617 40.9003 36.1157 37.3243 39.3863 31.6603C41.7693 27.5318 42.6004 22.9341 42.0583 18.542C41.3255 27.1401 35.6972 30.8441 27.2361 30.2156C23.3876 34.776 23.9238 39.6909 24.6357 41.9175Z" fill="#718389"/>
</g>
<g id="Group_2">
<path id="Vector_8" d="M55.8549 32.2365H51.0859V9.97949H58.7487C60.1472 9.97949 61.4087 10.1284 62.5332 10.4248C63.6561 10.7212 64.6153 11.1725 65.4106 11.7757C66.2059 12.3789 66.8151 13.1533 67.238 14.0961C67.6625 15.0388 67.874 16.1469 67.874 17.4188C67.874 18.6908 67.6566 19.7825 67.2217 20.758C66.7868 21.7335 66.1568 22.5542 65.3302 23.2214C64.5036 23.8886 63.4968 24.398 62.3098 24.748C61.1227 25.098 59.7868 25.2722 58.3034 25.2722H55.8549V32.235V32.2365ZM55.7595 21.0767H58.3674C59.8091 21.0767 60.9321 20.7967 61.7378 20.2337C62.5436 19.6722 62.9457 18.798 62.9457 17.611C62.9457 16.3599 62.5525 15.4752 61.7691 14.9569C60.9857 14.4371 59.8612 14.178 58.3987 14.178H55.7595V21.0767Z" fill="#718389"/>
<path id="Vector_9" d="M82.3074 32.6177C80.6959 32.6177 79.2289 32.3675 77.9033 31.8701C76.5793 31.3726 75.4399 30.6354 74.4852 29.6598C73.5306 28.6858 72.7948 27.4824 72.275 26.0511C71.7552 24.6199 71.4961 22.9726 71.4961 21.1079C71.4961 19.2433 71.7657 17.5945 72.3063 16.1633C72.8469 14.732 73.5931 13.5301 74.5478 12.5545C75.5025 11.579 76.6299 10.8433 77.9346 10.3443C79.2378 9.84689 80.6527 9.59668 82.1793 9.59668C83.8965 9.59668 85.4276 9.86179 86.774 10.392C88.1188 10.9222 89.2537 11.6788 90.1756 12.6648C91.0976 13.6507 91.802 14.8586 92.2905 16.2899C92.7776 17.7211 93.0218 19.3267 93.0218 21.1065C93.0218 23.0769 92.7522 24.7896 92.2116 26.2418C91.671 27.6939 90.9188 28.8913 89.9537 29.8341C88.9886 30.7769 87.8552 31.4769 86.552 31.9326C85.2488 32.3884 83.834 32.6162 82.3074 32.6162V32.6177ZM82.4667 28.4207C83.2725 28.4207 84.0142 28.2718 84.6918 27.9754C85.3695 27.679 85.9533 27.2277 86.4403 26.6245C86.9274 26.0213 87.3042 25.2633 87.5693 24.3518C87.8344 23.4403 87.9669 22.359 87.9669 21.1079C87.9669 18.585 87.4367 16.7367 86.3778 15.5601C85.3174 14.3835 83.9188 13.7952 82.1808 13.7952C81.3959 13.7952 80.6601 13.9441 79.9706 14.2405C79.281 14.5369 78.6837 14.9882 78.1744 15.5914C77.665 16.1945 77.2689 16.9586 76.9814 17.8805C76.6955 18.8024 76.5525 19.8792 76.5525 21.1079C76.5525 22.3367 76.7059 23.4403 77.0142 24.3518C77.321 25.2633 77.7395 26.0213 78.2697 26.6245C78.7999 27.2292 79.4254 27.679 80.1463 27.9754C80.8671 28.2718 81.6416 28.4207 82.4682 28.4207H82.4667Z" fill="#718389"/>
<path id="Vector_10" d="M114.389 31.3562C114.091 31.5036 113.77 31.6511 113.42 31.7985C113.07 31.946 112.656 32.083 112.179 32.2096C111.702 32.3362 111.151 32.436 110.526 32.5089C109.9 32.5819 109.185 32.6192 108.38 32.6192C106.683 32.6192 105.142 32.3749 103.754 31.8879C102.366 31.4009 101.179 30.6845 100.193 29.7417C99.2067 28.7989 98.4441 27.6268 97.9035 26.2283C97.3629 24.8298 97.0918 23.2183 97.0918 21.3953C97.0918 19.5724 97.3629 17.797 97.9035 16.3241C98.4441 14.8511 99.2231 13.6164 100.24 12.62C101.258 11.6237 102.492 10.8715 103.944 10.3622C105.396 9.8528 107.033 9.59961 108.858 9.59961C110.066 9.59961 111.151 9.70535 112.116 9.91684C113.08 10.1283 113.859 10.3726 114.453 10.6481L113.403 14.6545C112.724 14.4222 112.036 14.2524 111.336 14.1451C110.636 14.0394 110.033 13.9858 109.523 13.9858C108.421 13.9858 107.421 14.1243 106.519 14.3998C105.618 14.6768 104.844 15.1058 104.198 15.6911C103.551 16.2749 103.048 17.0196 102.687 17.9222C102.327 18.8262 102.148 19.8926 102.148 21.1243C102.148 23.4819 102.809 25.2558 104.135 26.4458C105.459 27.6358 107.245 28.23 109.492 28.23C110.002 28.23 110.615 28.1615 111.336 28.023C112.057 27.886 112.757 27.6685 113.435 27.3707L114.388 31.3532L114.389 31.3562Z" fill="#718389"/>
<path id="Vector_11" d="M132.511 27.3722H123.958L122.369 32.2365H117.664L125.263 9.97949H131.463L138.966 32.2365H134.102L132.513 27.3722H132.511ZM125.263 23.1752H131.208L128.252 13.828L125.263 23.1752Z" fill="#718389"/>
<path id="Vector_12" d="M149.81 32.2365H145.041V14.3671H138.713V9.97949H156.106V14.3671H149.81V32.2365Z" fill="#718389"/>
<path id="Vector_13" d="M169.139 32.6177C167.529 32.6177 166.061 32.3675 164.735 31.8701C163.41 31.3726 162.272 30.6354 161.317 29.6598C160.363 28.6858 159.627 27.4824 159.107 26.0511C158.587 24.6199 158.328 22.9726 158.328 21.1079C158.328 19.2433 158.599 17.5945 159.14 16.1633C159.68 14.732 160.428 13.5301 161.381 12.5545C162.335 11.579 163.463 10.8433 164.768 10.3443C166.073 9.84689 167.488 9.59668 169.013 9.59668C170.73 9.59668 172.261 9.86179 173.607 10.392C174.952 10.9222 176.087 11.6788 177.009 12.6648C177.931 13.6507 178.636 14.8586 179.124 16.2899C179.611 17.7211 179.855 19.3267 179.855 21.1065C179.855 23.0769 179.586 24.7896 179.045 26.2418C178.504 27.6939 177.752 28.8913 176.787 29.8341C175.822 30.7769 174.689 31.4769 173.386 31.9326C172.081 32.3884 170.667 32.6162 169.141 32.6162L169.139 32.6177ZM169.299 28.4207C170.103 28.4207 170.845 28.2718 171.524 27.9754C172.203 27.679 172.785 27.2277 173.272 26.6245C173.759 26.0213 174.136 25.2633 174.401 24.3518C174.666 23.4403 174.799 22.359 174.799 21.1079C174.799 18.585 174.269 16.7367 173.21 15.5601C172.149 14.3835 170.751 13.7952 169.013 13.7952C168.229 13.7952 167.492 13.9441 166.803 14.2405C166.115 14.5369 165.514 14.9882 165.006 15.5914C164.497 16.1945 164.099 16.9586 163.813 17.8805C163.527 18.8024 163.385 19.8792 163.385 21.1079C163.385 22.3367 163.538 23.4403 163.845 24.3518C164.152 25.2633 164.572 26.0213 165.102 26.6245C165.63 27.2292 166.256 27.679 166.977 27.9754C167.698 28.2718 168.471 28.4207 169.299 28.4207Z" fill="#718389"/>
<path id="Vector_14" d="M209.617 32.2365H204.816L203.608 17.4516L199.029 32.2365H194.482L189.967 17.5157L188.759 32.2365H183.957L186.182 9.97949H191.873L196.897 26.7676L201.858 9.97949H207.358L209.616 32.2365H209.617Z" fill="#718389"/>
</g>
</g>
<defs>
<clipPath id="clip0_182_1806">
<rect width="209.617" height="42.2174" fill="white"/>
</clipPath>
</defs>
</svg>
