<svg width="240" height="58" viewBox="0 0 240 58" fill="none" xmlns="http://www.w3.org/2000/svg">
<path d="M28.5635 0.166992C12.6762 0.166992 -0.337891 13.0121 -0.337891 29.0684C-0.337891 44.9557 12.5072 57.9698 28.5635 57.9698C44.4508 57.9698 57.4649 45.1247 57.4649 29.0684C57.4649 13.0121 44.4508 0.166992 28.5635 0.166992ZM28.5635 55.6036C13.8593 55.6036 2.0283 43.7726 2.0283 29.0684C2.0283 14.3642 13.8593 2.53319 28.5635 2.53319C43.2677 2.53319 55.0987 14.3642 55.0987 29.0684C55.2677 43.6036 43.2677 55.6036 28.5635 55.6036Z" fill="#02222D"/>
<path d="M28.5634 50.5347C29.5775 50.5347 30.0845 49.8586 30.2535 49.0136C30.4226 49.3516 30.7606 49.6896 31.0986 49.8586C31.4366 49.8586 31.9437 49.8587 32.2817 49.6896C32.6197 49.5206 32.9578 49.1826 33.1268 48.8446C33.2958 48.5065 33.2958 47.9995 33.1268 47.6615C33.6338 48.3375 34.3099 48.5065 35.155 48.1685C36.169 47.6615 36.5071 46.9854 36 45.9713C34.8169 43.0981 33.6338 40.3939 32.4507 37.5206C32.2817 37.1826 32.2817 37.0136 32.1127 36.6755C31.9437 36.5065 31.9437 36.3375 31.7747 36.1685C31.7747 35.9995 31.6056 35.9995 31.4366 35.8305C33.2958 35.9995 34.1409 36.6756 34.6479 37.0136C34.8169 37.1826 34.8169 37.1826 35.324 37.0136C35.493 37.0136 35.831 37.0136 36 37.0136C36.169 37.1826 36.5071 37.3516 36.6761 37.3516C37.3521 37.8586 38.0282 38.3657 38.7042 38.8727C39.0423 39.2108 39.3803 39.5488 39.3803 40.0558C39.3803 40.3939 38.3662 41.2389 38.1972 41.577C37.5211 42.253 38.5352 43.2671 39.8873 43.2671C39.5493 42.9291 39.3803 42.591 39.5493 42.253C39.7183 42.253 39.8873 42.253 40.2254 42.084C40.5634 41.915 40.3944 41.0699 40.5634 40.9009C41.0704 40.3939 42.4225 40.3939 43.4366 40.3939C43.7747 40.3939 44.2817 40.2248 44.1127 39.7178C44.6197 39.7178 44.7887 40.2248 44.7887 40.5629C45.2958 40.2248 45.6338 39.0417 43.9437 38.7037C44.2817 38.3657 44.7887 38.3657 45.1268 38.7037C45.4648 38.1967 44.6197 37.3516 43.2676 37.8586C43.2676 37.8586 42.5916 37.0136 40.9014 39.0417C40.7324 38.8727 40.3944 38.7037 40.2254 38.5347C39.5493 37.8587 37.8592 36.1685 37.8592 36.1685C37.8592 35.1544 37.6902 33.2953 36.5071 32.2812C36 31.7741 35.493 31.6051 34.3099 31.2671C34.3099 31.2671 34.8169 30.422 34.9859 30.084C36 31.0981 38.0282 31.4361 38.0282 29.746C39.7183 31.4361 41.2395 30.422 41.2395 29.4079C41.2395 29.915 41.4085 30.422 41.5775 30.9291C41.7465 31.4361 42.5916 33.6333 44.4507 33.6333C44.4507 34.3094 44.4507 36.8446 46.8169 37.3516C46.9859 37.3516 46.9859 37.3516 47.1549 37.5206C48.169 38.7037 52.0564 39.8868 52.3944 39.5488C52.0564 39.3798 51.5493 39.0417 51.5493 37.6896C51.5493 36.8446 51.3803 32.1122 51.3803 25.5206C51.3803 23.1544 51.2113 15.5488 43.6057 14.5347C42.4226 14.3657 41.4085 14.5347 40.3944 15.2108C39.0423 16.2248 38.3662 17.915 39.2113 19.7741V19.9432C39.5493 20.4502 39.3803 20.7882 39.0423 21.1263C38.3662 21.8023 37.6902 22.1403 36.8451 22.3093C36.3381 22.3093 35.831 22.1403 35.493 21.8023C34.6479 20.9572 34.1409 19.9432 33.8028 18.7601C33.4648 16.5629 33.9718 15.3798 33.9718 15.2108C34.6479 14.0277 35.831 13.0136 37.3521 13.0136C38.0282 11.6615 40.0564 12.1685 40.0564 12.1685C40.5634 12.3375 40.7324 12.3375 40.9014 12.6755C40.9014 12.6755 41.7465 11.3234 40.9014 10.8164C40.0564 10.3094 38.1972 10.1403 38.1972 10.1403C38.1972 9.29527 36.8451 8.61921 34.1409 9.12625C31.0986 9.6333 30.4226 8.4502 30.4226 8.4502C30.2535 9.97132 31.4366 10.6474 31.7747 10.9854C30.5916 12.3375 28.9014 14.8727 28.5634 18.422C28.2254 14.8727 26.5352 12.3375 25.3521 10.9854C25.6902 10.8164 26.8733 9.97132 26.7043 8.4502C26.7043 8.4502 26.0282 9.6333 22.9859 9.12625C20.4507 8.61921 18.9296 9.29527 18.9296 10.1403C18.9296 10.1403 17.0704 10.3094 16.2254 10.8164C15.3803 11.3234 16.2254 12.6755 16.2254 12.6755C16.3944 12.5065 16.5634 12.3375 17.0704 12.1685C17.0704 12.1685 19.0986 11.6615 19.7747 13.0136C21.2958 13.1826 22.4789 14.0277 23.1549 15.2108C23.1549 15.2108 23.831 16.3939 23.324 18.7601C23.155 19.9432 22.4789 20.9572 21.6338 21.8023C21.2958 22.1403 20.7888 22.4784 20.2817 22.3093C19.4366 22.1403 18.7606 21.8023 18.0845 21.1263C17.7465 20.7882 17.5775 20.4502 17.9155 19.9432V19.7741C18.7606 17.915 18.0845 16.2248 16.7324 15.2108C15.7183 14.5347 14.7042 14.3657 13.5211 14.5347C6.08453 15.5488 5.7465 23.1544 5.7465 25.5206C5.7465 32.1122 5.57749 36.8446 5.57749 37.6896C5.57749 39.0417 5.07045 39.3798 4.73242 39.5488C5.23946 39.8868 9.12678 38.7037 9.97186 37.5206C9.97186 37.5206 10.1409 37.3516 10.3099 37.3516C12.6761 36.8446 12.6761 34.3094 12.6761 33.6333C14.5352 33.6333 15.3803 31.4361 15.5493 30.9291C15.7183 30.422 15.8873 29.915 15.8873 29.4079C15.8873 30.422 17.4085 31.2671 19.0986 29.746C19.0986 31.4361 21.1268 31.0981 22.1409 30.084C22.3099 30.422 22.8169 31.2671 22.8169 31.2671C21.6338 31.4361 21.1268 31.7741 20.6197 32.2812C19.2676 33.4643 19.2676 35.3234 19.2676 36.1685C19.2676 36.1685 17.5775 37.8587 16.9014 38.5347C16.7324 38.7037 16.3944 38.8727 16.2254 39.0417C14.3662 37.0136 13.8592 37.8586 13.8592 37.8586C12.5071 37.3516 11.831 38.1967 12 38.7037C12.338 38.3657 12.8451 38.5347 13.1831 38.7037C11.324 39.0417 11.831 40.3939 12.3381 40.5629C12.3381 40.2248 12.5071 39.7178 13.0141 39.7178C13.0141 40.2248 13.3521 40.3939 13.6902 40.3939C14.5352 40.3939 16.0564 40.3939 16.5634 40.9009C16.9014 41.0699 16.7324 41.915 16.9014 42.084C17.0704 42.253 17.4085 42.253 17.5775 42.253C17.5775 42.591 17.5775 42.7601 17.2395 43.2671C18.5916 43.4361 19.4366 42.253 18.9296 41.577C18.5916 41.2389 17.7465 40.3939 17.7465 40.0558C17.7465 39.7178 18.0845 39.2108 18.4226 38.8727C19.0986 38.3657 19.7747 37.8586 20.4507 37.3516C20.6197 37.1826 20.7888 37.0136 21.1268 37.0136C21.2958 36.8446 21.6338 36.8446 21.8028 37.0136C22.3099 37.1826 22.3099 37.1826 22.4789 37.0136C22.9859 36.6756 23.831 35.9995 25.6902 35.8305C25.5211 35.8305 25.5211 35.9995 25.3521 36.1685C25.1831 36.3375 25.1831 36.5065 25.0141 36.6755C24.8451 36.8446 24.8451 37.1826 24.6761 37.5206C23.493 40.3939 22.3099 43.0981 21.1268 45.9713C20.7888 46.9854 21.1268 47.6615 21.9719 48.1685C22.6479 48.5065 23.493 48.3375 24 47.6615C23.831 48.1685 23.831 48.5065 24 48.8446C24.169 49.1826 24.5071 49.5206 24.8451 49.6896C25.1831 49.8587 25.6902 49.8586 26.0282 49.8586C26.5352 49.6896 26.7042 49.5206 26.8733 49.0136C27.0423 49.8586 27.5493 50.5347 28.5634 50.5347Z" fill="#02222D"/>
<path d="M77.2396 18.9298C78.7607 18.9298 82.141 18.7608 84.0001 18.5918C84.0001 18.9298 84.0001 19.4369 84.0001 19.6059C84.0001 19.7749 84.0001 20.2819 84.0001 20.62C82.31 20.4509 79.6058 20.2819 78.7607 20.2819C78.0847 20.2819 75.8875 20.2819 74.5354 20.4509V27.5495H76.0565C79.0987 27.5495 85.1832 28.0566 85.1832 33.296C85.1832 37.5214 81.634 39.3805 77.0706 39.3805C76.5635 39.3805 74.7044 39.3805 73.3523 39.3805C72.8452 39.3805 72.1692 39.3805 71.6621 39.3805C71.8311 36.1693 71.8311 31.9439 71.8311 28.3946C71.8311 25.1834 71.8311 20.2819 71.6621 18.7608C73.5213 18.7608 76.5635 18.9298 77.2396 18.9298ZM74.5354 37.6904C75.2114 37.6904 76.2255 37.6904 76.9016 37.6904C80.2818 37.6904 82.141 36.1693 82.141 33.127C82.141 29.9157 79.7748 28.9017 74.3663 28.9017V37.6904H74.5354Z" fill="#718389"/>
<path d="M88.394 26.536C89.5771 25.1839 91.6053 24.5078 93.2954 24.5078C96.3377 24.5078 98.3659 26.0289 98.3659 29.5782V36.6768C98.3659 38.1979 98.7039 38.536 99.2109 38.536C99.3799 38.536 99.718 38.536 99.887 38.367L100.056 39.043C99.2109 39.5501 98.3658 39.5501 97.8588 39.5501C96.8447 39.5501 96.3377 39.043 96.1687 38.367L95.9997 37.6909C94.4785 38.874 92.7884 39.5501 91.4363 39.5501C88.9011 39.5501 87.2109 38.1979 87.2109 35.8317C87.2109 33.2965 89.0701 32.1134 91.7743 31.6064L94.6475 31.0994C95.6616 30.9303 96.1687 30.5923 96.1687 29.9163C96.1687 26.874 94.8166 26.0289 92.6194 26.0289C90.9292 26.0289 89.7461 26.536 88.7321 28.3951H88.394V26.536ZM96.1687 31.9444L94.3095 32.2825C92.2814 32.6205 89.9151 33.2965 89.9151 35.4937C89.9151 37.1839 90.7602 38.0289 92.6194 38.0289C93.8025 38.0289 94.8166 37.6909 95.9997 36.3388V31.9444H96.1687Z" fill="#718389"/>
<path d="M104.113 25.0146C104.451 25.0146 104.958 25.0146 105.465 25.0146C105.296 27.2118 105.127 30.7611 105.127 30.9301C106.31 30.9301 108 31.0992 109.014 31.0992C110.028 31.0992 111.719 31.0992 112.564 30.9301C112.564 30.7611 112.564 27.2118 112.395 25.0146C112.902 25.0146 113.578 25.0146 113.916 25.0146C114.254 25.0146 114.761 25.0146 115.268 25.0146C115.099 27.2118 114.93 30.7611 114.93 32.2822C114.93 33.4653 114.93 37.3527 115.268 39.5499C114.761 39.5499 114.423 39.5499 113.916 39.5499C113.409 39.5499 112.902 39.5499 112.395 39.5499C112.564 37.3527 112.564 33.4654 112.564 32.6203C111.381 32.4513 109.521 32.4513 109.014 32.4513C108.169 32.4513 106.31 32.4513 105.127 32.6203C105.127 33.6344 105.127 37.3527 105.465 39.5499C104.958 39.5499 104.62 39.5499 104.113 39.5499C103.606 39.5499 103.099 39.5499 102.592 39.5499C102.761 37.3527 102.93 33.4653 102.93 32.2822C102.93 30.7611 102.93 27.2118 102.592 25.0146C103.099 25.0146 103.775 25.0146 104.113 25.0146Z" fill="#718389"/>
<path d="M120.507 25.0147C120.845 25.0147 121.353 25.0147 121.86 25.0147C121.691 27.2119 121.691 30.7612 121.691 31.2682H122.198C123.212 31.2682 127.944 25.8598 128.451 25.0147C128.789 25.0147 129.465 25.0147 129.803 25.0147C130.141 25.0147 130.817 25.0147 131.155 25.0147L124.395 31.0992C125.24 32.1133 129.803 37.1837 131.831 39.3809C130.986 39.3809 130.479 39.3809 130.141 39.3809C129.634 39.3809 128.789 39.3809 128.282 39.3809C127.268 37.6908 124.057 33.9725 122.198 31.9443H121.691C121.691 32.9584 121.691 37.1837 121.86 39.3809C121.522 39.3809 121.015 39.3809 120.507 39.3809C120 39.3809 119.493 39.3809 118.986 39.3809C119.155 37.1837 119.324 33.2964 119.324 32.1133C119.324 30.5922 119.324 27.0429 118.986 24.8457C119.493 25.0147 120 25.0147 120.507 25.0147Z" fill="#718389"/>
<path d="M144.169 18.7608C145.183 18.7608 146.366 18.5918 147.211 18.5918C152.451 18.5918 154.479 20.1129 154.479 23.8312C154.479 28.3946 150.592 29.9157 145.859 29.9157C145.521 29.9157 144.507 29.9157 144 29.7467V34.6481C144 36.0002 144 37.8594 144.169 39.2115C143.662 39.2115 143.155 39.2115 142.648 39.2115C142.141 39.2115 141.465 39.2115 141.127 39.2115C141.296 36.0002 141.296 31.7749 141.296 28.2256C141.296 25.0143 141.296 20.1129 141.127 18.5918C142.31 18.5918 143.493 18.7608 144.169 18.7608ZM145.352 28.3946C149.409 28.3946 151.606 26.8735 151.606 23.8312C151.606 20.958 149.409 20.2819 146.535 20.2819C146.028 20.2819 144.338 20.2819 144 20.2819V28.2256C144.507 28.3946 145.014 28.3946 145.352 28.3946Z" fill="#718389"/>
<path d="M169.353 32.1104C169.353 36.5048 166.479 39.7161 162.085 39.7161C157.691 39.7161 154.986 36.5048 154.986 32.4485C154.986 27.7161 158.029 24.6738 162.423 24.6738C166.648 24.6738 169.353 27.7161 169.353 32.1104ZM157.691 32.2795C157.691 35.4907 159.043 38.533 162.085 38.533C164.958 38.533 166.648 35.6597 166.648 31.9414C166.648 28.8992 165.465 25.6879 162.254 25.6879C159.212 25.6879 157.691 28.8992 157.691 32.2795Z" fill="#718389"/>
<path d="M183.211 28.057H182.873C181.859 26.3668 180.507 25.8598 178.985 25.8598C175.605 25.8598 174.084 29.0711 174.084 32.2823C174.084 35.8316 176.112 38.7049 179.662 38.7049C180.845 38.7049 181.859 38.5358 183.549 36.6767L183.887 37.0147L183.549 38.3668C182.197 39.2119 180.676 39.7189 178.816 39.7189C174.422 39.7189 171.549 36.6767 171.549 32.2823C171.549 27.7189 174.76 24.8457 179.323 24.8457C180.845 24.8457 182.366 25.1837 184.225 26.0288L183.211 28.057Z" fill="#718389"/>
<path d="M197.747 28.057H197.409C196.395 26.3668 195.043 25.8598 193.522 25.8598C190.141 25.8598 188.62 29.0711 188.62 32.2823C188.62 35.8316 190.648 38.7049 194.198 38.7049C195.381 38.7049 196.395 38.5358 198.085 36.6767L198.254 37.0147L197.916 38.3668C196.564 39.2119 195.043 39.7189 193.184 39.7189C188.789 39.7189 185.916 36.6767 185.916 32.2823C185.916 27.7189 189.127 24.8457 193.691 24.8457C195.212 24.8457 196.733 25.1837 198.592 26.0288L197.747 28.057Z" fill="#718389"/>
<path d="M201.972 39.209C201.803 39.209 201.296 39.209 201.127 39.209C201.296 37.0119 201.465 33.1245 201.465 31.9414C201.465 30.4203 201.465 26.871 201.127 24.6738C201.634 24.6738 202.31 24.6738 202.648 24.6738C202.986 24.6738 203.493 24.6738 204 24.6738C203.831 26.871 203.662 30.4203 203.662 31.9414C203.662 33.1245 203.662 34.8147 203.662 35.6597C205.183 33.8006 210.761 26.702 212.113 24.8428C212.451 24.8428 212.62 24.8428 212.958 24.8428C213.127 24.8428 213.803 24.8428 213.972 24.8428C213.803 27.04 213.634 30.5893 213.634 32.1104C213.634 33.2935 213.634 37.1809 213.972 39.3781C213.465 39.3781 213.127 39.3781 212.62 39.3781C212.113 39.3781 211.606 39.3781 211.099 39.3781C211.268 37.1809 211.437 33.2935 211.437 32.1104C211.437 30.5893 211.437 28.7302 211.437 28.2231C209.578 30.2513 204.338 36.8428 202.817 39.3781C202.479 39.209 202.141 39.209 201.972 39.209Z" fill="#718389"/>
<path d="M218.029 39.209C217.86 39.209 217.353 39.209 217.184 39.209C217.353 37.0119 217.353 33.1245 217.353 31.9414C217.353 30.4203 217.353 26.871 217.184 24.6738C217.691 24.6738 218.367 24.6738 218.705 24.6738C219.043 24.6738 219.55 24.6738 220.057 24.6738C219.719 27.04 219.719 30.5893 219.719 32.1104C219.719 33.2935 219.719 34.9837 219.719 35.8288C221.24 33.9696 226.817 26.871 228.17 25.0119C228.508 25.0119 228.677 25.0119 229.015 25.0119C229.184 25.0119 229.86 25.0119 230.029 25.0119C229.86 27.04 229.86 30.5893 229.86 32.1104C229.86 33.2935 229.86 37.1809 230.029 39.3781C229.522 39.3781 229.184 39.3781 228.677 39.3781C228.17 39.3781 227.662 39.3781 227.155 39.3781C227.324 37.1809 227.324 33.2935 227.324 32.1104C227.324 30.5893 227.324 28.7302 227.324 28.2231C225.465 30.2513 220.226 36.8428 218.705 39.3781C218.536 39.209 218.367 39.209 218.029 39.209Z" fill="#718389"/>
</svg>
